<svg width="50" height="60" viewBox="0 0 50 60" fill="none" xmlns="http://www.w3.org/2000/svg">
<path fill-rule="evenodd" clip-rule="evenodd" d="M25.8055 0.339803C25.4083 -0.112125 24.7048 -0.113458 24.3059 0.336961L13.9058 12.0788C5.66487 16.1664 0 24.6659 0 34.4886C0 48.2957 11.1929 59.4886 25 59.4886C38.8071 59.4886 50 48.2957 50 34.4886C50 24.6869 44.3593 16.2028 36.147 12.1051L25.8055 0.339803Z" fill="#35383B"/>
<circle cx="25" cy="34.4885" r="22" fill="#E5E7EA"/>
<path d="M42.9999 30.8314C42.9899 29.5775 42.1773 28.489 40.9782 28.1237C40.7019 28.0396 40.4143 27.9979 40.1228 28.0001C38.5493 28.0128 37.2795 29.3034 37.2919 30.8769C37.2956 31.3671 37.4243 31.8313 37.6488 32.2377L38.1898 31.4378C38.135 31.2573 38.1024 31.0674 38.1001 30.8707C38.0912 29.7429 39.0017 28.8181 40.1288 28.809C40.3379 28.8075 40.5442 28.8369 40.7421 28.8973C41.6011 29.1589 42.1835 29.939 42.1904 30.838C42.1994 31.9305 41.3444 32.8293 40.2656 32.8926L39.8267 33.6281L39.7984 33.6859C39.9205 33.7005 40.0437 33.7092 40.1678 33.7083C41.7426 33.6955 43.0123 32.4049 42.9999 30.8314Z" fill="#35383B"/>
<path d="M40.5382 30.2593C40.2094 30.0417 39.7674 30.1326 39.5499 30.4614L37.9803 32.8383L25.2008 32.9412L25.2 32.8117C25.1984 32.6458 25.1397 32.486 25.033 32.3588L23.9701 31.0921C23.8333 30.9292 23.6309 30.8356 23.4179 30.8371L20.4081 30.8615C20.335 30.8622 20.262 30.8737 20.1925 30.8967L15.9228 32.2925C15.634 32.3868 15.4375 32.6529 15.431 32.9563L15.4285 33.0867L15.2835 33.0878L15.282 33.0878L14.2599 33.0959C12.4638 33.1102 11.4325 34.1432 10.7502 34.8265C10.6245 34.952 10.5062 35.0709 10.404 35.1606C10.168 35.3687 9.95558 35.4843 9.75002 35.5962C9.14154 35.9264 8.67714 36.2709 8.68636 37.428C8.69261 38.1856 9.1568 38.7608 9.95992 39.0055C10.4717 39.1614 10.9823 39.1451 11.1095 39.1379L23.5001 39.0385C26.4675 39.0147 30.1304 36.2111 30.7726 35.7009L38.0755 34.2644L38.372 34.2619C38.6096 34.2603 38.8307 34.1401 38.9614 33.9416L40.7407 31.2477C40.9571 30.9189 40.8668 30.4764 40.5382 30.2593Z" fill="#35383B"/>
<path d="M20.5704 29.8979C20.6236 29.9089 20.6793 29.9147 20.7362 29.9149L22.8533 29.9201C23.1413 29.9207 23.3946 29.7737 23.543 29.5503L35.8509 29.5806C36.1015 29.581 36.3055 29.3785 36.306 29.1279C36.3067 28.8774 36.102 28.6729 35.8532 28.6732L23.5453 28.6429C23.3982 28.4188 23.146 28.2704 22.8573 28.2696L20.7402 28.2645C20.4522 28.2638 20.1989 28.4108 20.0505 28.6342L7.45506 28.603C7.20456 28.6023 7.00078 28.8052 7 29.0557C6.99963 29.2752 7.15508 29.4587 7.36172 29.5014C7.39118 29.5075 7.4216 29.5107 7.45269 29.5108L20.0507 29.5421C20.1689 29.7209 20.3526 29.8529 20.5704 29.8979Z" fill="#35383B"/>
<path d="M22.7495 39.754C22.6793 39.7326 22.6065 39.7223 22.5327 39.7228C22.3401 39.724 22.1595 39.8005 22.0244 39.9381C21.889 40.0753 21.8155 40.2573 21.817 40.45C21.8198 40.7669 22.0251 41.0424 22.3277 41.1345C22.3976 41.1558 22.4703 41.1665 22.5442 41.1656C22.9418 41.1624 23.2626 40.8359 23.2598 40.4384C23.2574 40.1216 23.0524 39.8463 22.7495 39.754Z" fill="#35383B"/>
<path d="M10.3468 39.8586C10.2773 39.8375 10.2046 39.8268 10.1311 39.8275C9.73319 39.8305 9.41237 40.157 9.41552 40.5546C9.41786 40.8718 9.62328 41.1469 9.9262 41.2392C9.99606 41.2605 10.0688 41.2711 10.1426 41.2706C10.5402 41.2674 10.8613 40.941 10.8583 40.5431C10.8555 40.2261 10.6501 39.951 10.3468 39.8586Z" fill="#35383B"/>
</svg>
