<svg width="40" height="40" viewBox="0 0 40 40" fill="none" xmlns="http://www.w3.org/2000/svg">
<circle cx="20" cy="20" r="19.5" fill="#E6E6E6" stroke="#01A299"/>
<path d="M19.6944 22.4776V30.7769C19.6932 30.9304 19.6499 31.0811 19.5688 31.2145C19.4877 31.348 19.3714 31.4598 19.2311 31.5393C19.0907 31.6188 18.9309 31.6633 18.7669 31.6687C18.6029 31.6741 18.4402 31.6401 18.2943 31.57L9.51467 27.3212C9.3588 27.2447 9.22838 27.1297 9.13762 26.9885C9.04687 26.8474 8.99927 26.6857 9.00001 26.521V17.6057C8.99948 17.5164 9.02368 17.4286 9.07023 17.3507C9.11678 17.2727 9.18411 17.2074 9.26565 17.1611C9.3472 17.1147 9.44018 17.0889 9.53555 17.0862C9.63092 17.0834 9.72542 17.1039 9.80985 17.1454L19.1722 21.6845C19.3294 21.7583 19.4616 21.8715 19.5539 22.0116C19.6461 22.1517 19.6948 22.3131 19.6944 22.4776Z" fill="#01A299"/>
<path d="M31.3623 17.4614V26.5583C31.3647 26.7221 31.3178 26.8833 31.2269 27.0237C31.136 27.164 31.0046 27.278 30.8476 27.3527L22.0681 31.5707C21.9222 31.6403 21.7595 31.6741 21.5955 31.6687C21.4315 31.6634 21.2717 31.6191 21.1314 31.5402C20.991 31.4613 20.8747 31.3503 20.7936 31.2178C20.7125 31.0853 20.6692 30.9358 20.668 30.7833V22.5442C20.6672 22.3807 20.7148 22.2201 20.8056 22.08C20.8963 21.94 21.0268 21.8257 21.1826 21.7498L30.7795 17.131C30.8402 17.1001 30.9087 17.0846 30.9779 17.086C31.0472 17.0875 31.1148 17.1059 31.1739 17.1395C31.233 17.173 31.2816 17.2204 31.3147 17.277C31.3477 17.3335 31.3642 17.3971 31.3623 17.4614Z" fill="#01A299"/>
<path d="M30.7653 15.1136L21.4455 19.7198C21.0679 19.9056 20.6486 20.0026 20.2231 20.0026C19.7976 20.0026 19.3783 19.9056 19.0007 19.7198L9.60209 15.1136C9.42041 15.0232 9.26822 14.8873 9.16208 14.7208C9.05593 14.5544 9 14.3637 9 14.1692C9 13.9747 9.05593 13.784 9.16208 13.6175C9.26822 13.4511 9.42041 13.3154 9.60209 13.2249L18.9219 8.61873C19.2995 8.43293 19.7188 8.33594 20.1443 8.33594C20.5698 8.33594 20.9891 8.43293 21.3667 8.61873L30.7653 13.2317C30.9453 13.3227 31.0955 13.4583 31.2004 13.624C31.3054 13.7897 31.3611 13.9794 31.3611 14.1727C31.3611 14.3659 31.3054 14.5555 31.2004 14.7212C31.0955 14.8869 30.9453 15.0226 30.7653 15.1136Z" fill="#01A299"/>
</svg>
