<svg width="70" height="85" viewBox="0 0 70 85" fill="none" xmlns="http://www.w3.org/2000/svg">
<g filter="url(#filter0_dd_25_4156)">
<path d="M60 45.9622C60 59.7693 48.8071 70.9622 35 70.9622C21.1929 70.9622 10 59.7693 10 45.9622C10 32.155 21.1929 20.9622 35 20.9622C48.8071 20.9622 60 32.155 60 45.9622Z" fill="#5C88B4"/>
<circle cx="35" cy="45.9622" r="22" fill="#DCDCDC"/>
<path d="M38.9754 36.969C38.9766 37.3482 39.0194 37.7261 39.1031 38.0959C39.4184 37.8829 39.713 37.6408 39.9831 37.3728L40.1709 37.185C40.3216 37.0398 40.4206 36.8491 40.4526 36.6422C40.5394 36.0174 40.7983 35.4291 41.2003 34.9429C41.6023 34.4568 42.1315 34.092 42.7289 33.8893C43.3263 33.6867 43.9682 33.6542 44.583 33.7954C45.1978 33.9366 45.7613 34.246 46.2103 34.689C46.6594 35.1319 46.9765 35.6911 47.126 36.3039C47.2756 36.9167 47.2518 37.5591 47.0573 38.1592C46.8628 38.7592 46.5053 39.2934 46.0247 39.702C45.5441 40.1105 44.9593 40.3774 44.3358 40.4728C44.1157 40.5029 43.9107 40.6014 43.7498 40.7545L43.7066 40.7977C43.3853 41.1176 43.1017 41.4734 42.8614 41.8579C43.2311 41.9421 43.6091 41.985 43.9883 41.9857C44.9792 41.9857 45.9478 41.6919 46.7718 41.1415C47.5957 40.5911 48.238 39.8087 48.6174 38.8934C48.9968 37.978 49.0963 36.9707 48.9034 35.9988C48.7104 35.0269 48.2336 34.134 47.5333 33.433C46.8329 32.732 45.9405 32.2544 44.9688 32.0605C43.997 31.8666 42.9896 31.9652 42.0739 32.3437C41.1582 32.7223 40.3753 33.3638 39.8241 34.1873C39.2729 35.0107 38.9782 35.9791 38.9773 36.9699L38.9754 36.969Z" fill="#5C88B4"/>
<path d="M27.9583 50.9392L27.9151 50.9824C27.6226 51.2684 27.2467 51.4539 26.8417 51.5121C26.3795 51.584 25.9464 51.783 25.5907 52.0869C25.235 52.3907 24.9708 52.7875 24.8276 53.2328C24.6844 53.6782 24.6677 54.1546 24.7796 54.6088C24.8915 55.063 25.1274 55.4772 25.4611 55.8051C25.7947 56.133 26.2129 56.3617 26.669 56.4657C27.1252 56.5696 27.6012 56.5447 28.044 56.3938C28.4867 56.2428 28.8788 55.9718 29.1765 55.6109C29.4741 55.25 29.6656 54.8134 29.7295 54.35C29.787 53.9541 29.9731 53.5882 30.2591 53.3086L30.4469 53.1207C30.8165 52.754 31.226 52.4298 31.6678 52.1544C32.7542 51.475 34.0094 51.1142 35.2908 51.113H35.7603C37.0436 51.1149 38.3008 51.4757 39.3899 52.1544C39.8304 52.4281 40.2373 52.7524 40.6023 53.1207L40.746 53.2644C41.0563 53.5672 41.2597 53.9628 41.3254 54.3913C41.398 54.8517 41.5965 55.2831 41.899 55.6377C42.2015 55.9923 42.5962 56.2563 43.0394 56.4005C43.4826 56.5446 43.9571 56.5634 44.4103 56.4546C44.8635 56.3458 45.2778 56.1138 45.6074 55.7842C45.9369 55.4545 46.1688 55.0402 46.2774 54.5869C46.386 54.1337 46.3671 53.6592 46.2228 53.216C46.0785 52.7728 45.8144 52.3782 45.4597 52.0758C45.105 51.7734 44.6736 51.5751 44.2131 51.5027C43.7868 51.4339 43.3927 51.2332 43.0862 50.9289C42.6656 50.5127 42.3021 50.0425 42.0053 49.5306C41.8478 49.2676 41.7121 48.9922 41.5996 48.707C41.2534 47.8772 41.0753 46.987 41.0756 46.0879L41.0756 45.0013C41.0749 43.7928 41.3958 42.6059 42.0053 41.5624C42.3027 41.0496 42.6654 40.5777 43.0843 40.1584L43.1322 40.1349C43.423 39.85 43.7964 39.6643 44.1991 39.6043C44.6615 39.5334 45.0951 39.3353 45.4514 39.0321C45.8077 38.7288 46.0727 38.3325 46.2166 37.8874C46.3606 37.4422 46.378 36.9658 46.2667 36.5113C46.1555 36.0569 45.9201 35.6424 45.5867 35.314C45.2534 34.9857 44.8354 34.7566 44.3793 34.6522C43.9232 34.5479 43.4471 34.5724 43.0042 34.7231C42.5613 34.8738 42.169 35.1447 41.8712 35.5055C41.5734 35.8664 41.3818 36.3029 41.3179 36.7664C41.2604 37.1623 41.0743 37.5282 40.7883 37.8078L40.6004 37.9957C40.2315 38.3622 39.8237 38.6875 39.3843 38.9658C38.2956 39.6463 37.0376 40.0072 35.7538 40.0072C34.7073 40.0067 33.6711 39.8013 32.7036 39.4024C32.3551 39.2591 32.0176 39.0903 31.6941 38.8972C31.1203 38.5558 30.5902 38.1458 30.1154 37.6764L30.0967 37.6388C29.8968 37.4402 29.7731 37.1775 29.7473 36.8969C29.7163 36.4882 29.5866 36.0932 29.3694 35.7455C29.1522 35.3979 28.854 35.1082 28.5003 34.901C28.1467 34.6939 27.748 34.5756 27.3386 34.5563C26.9292 34.537 26.5212 34.6172 26.1496 34.7901C25.7779 34.9629 25.4538 35.2233 25.2048 35.5489C24.9558 35.8745 24.7895 36.2556 24.7201 36.6596C24.6507 37.0635 24.6802 37.4783 24.8062 37.8683C24.9322 38.2584 25.1508 38.612 25.4434 38.8991C25.8608 39.3185 26.4129 39.5769 27.0023 39.6288C27.2856 39.6551 27.551 39.7785 27.7536 39.9781L27.9536 40.1781C28.3751 40.5951 28.7392 41.0662 29.0364 41.5793C29.6454 42.622 29.9663 43.8079 29.9661 45.0154L29.9661 46.1001C29.9663 47.3076 29.6454 48.4935 29.0364 49.5362C28.7415 50.0515 28.3793 50.5252 27.9593 50.9449L27.9583 50.9392ZM33.3412 45.5563C33.3427 45.125 33.4719 44.7039 33.7126 44.346C33.9533 43.9881 34.2946 43.7095 34.6935 43.5454C35.0923 43.3814 35.5309 43.3392 35.9537 43.4242C36.3765 43.5091 36.7647 43.7175 37.0692 44.0229C37.3737 44.3284 37.5809 44.7172 37.6646 45.1402C37.7483 45.5633 37.7048 46.0017 37.5396 46.4001C37.3743 46.7985 37.0947 47.139 36.7361 47.3785C36.3775 47.6181 35.9559 47.7461 35.5246 47.7463C34.9458 47.7463 34.3907 47.5164 33.9814 47.1071C33.5721 46.6978 33.3422 46.1427 33.3422 45.5638L33.3412 45.5563Z" fill="#5C88B4"/>
<path d="M43.7053 50.3299C43.8809 50.5052 44.1086 50.6188 44.3542 50.6539C44.9736 50.7525 45.5535 51.0207 46.0298 51.4288C46.506 51.8369 46.86 52.3689 47.0523 52.9658C47.2447 53.5628 47.268 54.2013 47.1196 54.8107C46.9713 55.4201 46.6571 55.9765 46.2118 56.4182C45.7666 56.8599 45.2077 57.1697 44.5971 57.3131C43.9866 57.4566 43.3482 57.4282 42.7529 57.2311C42.1575 57.0339 41.6283 56.6758 41.2241 56.1963C40.8198 55.7168 40.5562 55.1347 40.4626 54.5145C40.4182 54.2724 40.3005 54.0498 40.1254 53.8769L39.9808 53.7341C39.712 53.4647 39.4173 53.2225 39.1009 53.011C39.0171 53.3809 38.9743 53.7588 38.9732 54.1379C38.9726 55.1284 39.2657 56.0968 39.8155 56.9206C40.3653 57.7445 41.147 58.3868 42.0618 58.7665C42.9766 59.1461 43.9834 59.246 44.955 59.0534C45.9265 58.8609 46.8191 58.3846 47.52 57.6847C48.2209 56.9849 48.6985 56.093 48.8925 55.1217C49.0865 54.1505 48.9882 53.1435 48.6099 52.2281C48.2317 51.3127 47.5905 50.5301 46.7675 49.9791C45.9444 49.4281 44.9765 49.1335 43.986 49.1326C43.6068 49.1333 43.2289 49.1761 42.8591 49.2603C43.0947 49.651 43.3796 50.0104 43.7053 50.3299Z" fill="#5C88B4"/>
<path d="M27.339 40.792L27.139 40.592C27.0792 40.5359 27.0027 40.501 26.9211 40.4925C26.276 40.4355 25.6606 40.1955 25.1474 39.8005C24.6341 39.4056 24.2444 38.8723 24.024 38.2633C23.8037 37.6543 23.7619 36.9951 23.9037 36.3632C24.0454 35.7313 24.3648 35.153 24.8241 34.6965C25.2834 34.24 25.8636 33.9242 26.4964 33.7863C27.1291 33.6485 27.7881 33.6943 28.3957 33.9183C29.0033 34.1424 29.5343 34.5354 29.9261 35.0511C30.3178 35.5667 30.5541 36.1836 30.6071 36.829C30.6147 36.9009 30.648 36.9676 30.701 37.0169L30.7254 37.0413C31.0953 37.4129 31.505 37.7426 31.9472 38.0245C32.0228 37.6787 32.0606 37.3257 32.0599 36.9718C32.06 35.9812 31.7665 35.0128 31.2163 34.1891C30.6661 33.3654 29.884 32.7233 28.9689 32.3441C28.0537 31.9649 27.0467 31.8656 26.0752 32.0588C25.1036 32.2519 24.2112 32.7288 23.5107 33.4292C22.8102 34.1296 22.3331 35.0219 22.1398 35.9934C21.9464 36.965 22.0456 37.972 22.4246 38.8872C22.8036 39.8024 23.4455 40.5846 24.2692 41.1349C25.0928 41.6853 26.0611 41.979 27.0517 41.979C27.4309 41.9784 27.8088 41.9355 28.1786 41.8513C27.9422 41.4658 27.6604 41.1102 27.339 40.792Z" fill="#5C88B4"/>
<path d="M32.0774 54.1532C32.0784 53.7737 32.0345 53.3955 31.9469 53.0263C31.6316 53.2393 31.337 53.4814 31.067 53.7494L30.8791 53.9372C30.7284 54.0825 30.6294 54.2731 30.5974 54.48C30.5312 54.9561 30.3647 55.4126 30.1091 55.8197C29.8535 56.2267 29.5145 56.5749 29.1145 56.8414C28.7145 57.1078 28.2625 57.2864 27.7884 57.3654C27.3143 57.4444 26.8288 57.4221 26.364 57.2997C25.8992 57.1774 25.4656 56.958 25.0918 56.6558C24.718 56.3537 24.4125 55.9757 24.1955 55.5469C23.9784 55.1181 23.8547 54.6481 23.8326 54.168C23.8104 53.6878 23.8903 53.2085 24.0669 52.7615C24.2271 52.3635 24.4595 51.9986 24.7525 51.6853C25.2724 51.1296 25.9646 50.7657 26.7171 50.6523C26.9367 50.6208 27.1413 50.5224 27.3031 50.3705L27.3463 50.3264C27.6675 50.0067 27.9511 49.6513 28.1915 49.2671C27.8211 49.1824 27.4425 49.1393 27.0627 49.1384C26.0727 49.1397 25.1053 49.4344 24.2827 49.9852C23.4601 50.536 22.8193 51.3182 22.441 52.2331C22.0628 53.148 21.9641 54.1544 22.1576 55.1253C22.351 56.0962 22.8279 56.9879 23.5279 57.688C24.2279 58.388 25.1197 58.8648 26.0906 59.0583C27.0615 59.2517 28.0679 59.1531 28.9827 58.7748C29.8976 58.3966 30.6798 57.7557 31.2307 56.9331C31.7815 56.1105 32.0761 55.1432 32.0774 54.1532Z" fill="#5C88B4"/>
<path d="M34.3078 6.33693C34.7068 5.88651 35.4102 5.88784 35.8075 6.33977L47.5025 19.6449C48.1804 20.4162 47.3913 21.5994 46.417 21.2751C42.4134 19.9423 36.3198 17.9885 35.002 17.9885C33.6872 17.9885 27.6193 19.933 23.6153 21.2656C22.6391 21.5905 21.8494 20.4027 22.5316 19.6325L34.3078 6.33693Z" fill="#5C88B4"/>
</g>
<defs>
<filter id="filter0_dd_25_4156" x="0" y="-0.0153809" width="70" height="84.9775" filterUnits="userSpaceOnUse" color-interpolation-filters="sRGB">
<feFlood flood-opacity="0" result="BackgroundImageFix"/>
<feColorMatrix in="SourceAlpha" type="matrix" values="0 0 0 0 0 0 0 0 0 0 0 0 0 0 0 0 0 0 127 0" result="hardAlpha"/>
<feMorphology radius="1" operator="dilate" in="SourceAlpha" result="effect1_dropShadow_25_4156"/>
<feOffset dy="1"/>
<feGaussianBlur stdDeviation="1.5"/>
<feComposite in2="hardAlpha" operator="out"/>
<feColorMatrix type="matrix" values="0 0 0 0 0 0 0 0 0 0 0 0 0 0 0 0 0 0 0.35 0"/>
<feBlend mode="normal" in2="BackgroundImageFix" result="effect1_dropShadow_25_4156"/>
<feColorMatrix in="SourceAlpha" type="matrix" values="0 0 0 0 0 0 0 0 0 0 0 0 0 0 0 0 0 0 127 0" result="hardAlpha"/>
<feMorphology radius="2" operator="dilate" in="SourceAlpha" result="effect2_dropShadow_25_4156"/>
<feOffset dy="4"/>
<feGaussianBlur stdDeviation="4"/>
<feComposite in2="hardAlpha" operator="out"/>
<feColorMatrix type="matrix" values="0 0 0 0 0 0 0 0 0 0 0 0 0 0 0 0 0 0 0.2 0"/>
<feBlend mode="normal" in2="effect1_dropShadow_25_4156" result="effect2_dropShadow_25_4156"/>
<feBlend mode="normal" in="SourceGraphic" in2="effect2_dropShadow_25_4156" result="shape"/>
</filter>
</defs>
</svg>
