<svg width="24" height="24" viewBox="0 0 24 24" fill="none" xmlns="http://www.w3.org/2000/svg">
<path fill-rule="evenodd" clip-rule="evenodd" d="M17.4222 6C16.2132 6 15.1986 6.83885 14.9202 7.97015H4.62222C4.27847 7.97015 4 8.2507 4 8.59701C4 8.94333 4.27847 9.22388 4.62222 9.22388H14.9202C15.1986 10.3552 16.2132 11.194 17.4222 11.194C18.8458 11.194 20 10.0312 20 8.59701C20 7.16278 18.8458 6 17.4222 6ZM16.0889 8.59701C16.0889 7.85541 16.6861 7.25373 17.4222 7.25373C18.1583 7.25373 18.7556 7.85541 18.7556 8.59701C18.7556 9.33861 18.1583 9.9403 17.4222 9.9403C16.6861 9.9403 16.0889 9.33861 16.0889 8.59701Z" fill="white" fill-opacity="0.84"/>
<path fill-rule="evenodd" clip-rule="evenodd" d="M6.57778 18C7.78681 18 8.80142 17.1611 9.07982 16.0299H19.3778C19.7215 16.0299 20 15.7493 20 15.403C20 15.0567 19.7215 14.7761 19.3778 14.7761H9.07982C8.80135 13.6448 7.78677 12.806 6.57778 12.806C5.15417 12.806 4 13.9688 4 15.403C4 16.8372 5.15417 18 6.57778 18ZM7.91111 15.403C7.91111 16.1446 7.31388 16.7463 6.57778 16.7463C5.84167 16.7463 5.24444 16.1446 5.24444 15.403C5.24444 14.6614 5.84167 14.0597 6.57778 14.0597C7.31388 14.0597 7.91111 14.6614 7.91111 15.403Z" fill="white" fill-opacity="0.84"/>
</svg>
