<svg width="24" height="24" viewBox="0 0 24 24" fill="none" xmlns="http://www.w3.org/2000/svg">
<path d="M16.5405 5.08126C17.2169 4.40483 18.0283 3.98949 18.7026 4.0002C19.0658 4.00593 19.4118 4.12071 19.6469 4.35327C19.8794 4.5884 19.9941 4.93422 19.9998 5.29754C20.0105 5.97185 19.5952 6.78322 18.9187 7.45966C18.1757 8.28536 17.3654 9.10016 16.533 9.89579C15.991 9.70423 15.4077 9.6 14.8 9.6C11.9281 9.6 9.6 11.9281 9.6 14.8C9.6 15.2634 9.66063 15.7127 9.77438 16.1403L8.54041 17.1892C8.81762 18.0321 9.13314 19.3513 8.10802 19.3513C7.90547 19.3513 7.69672 19.3005 7.45934 19.1351L4.86496 16.5404C4.69936 16.303 4.64868 16.0943 4.64868 15.8917C4.64868 14.8668 5.96805 15.1821 6.81082 15.4593L10.4864 11.1351L4 7.89191L4.64868 6.59471L13.2973 8.32444C14.3454 7.19512 15.4331 6.07773 16.5405 5.08126Z" fill="white" fill-opacity="0.84"/>
<path d="M14.2784 19.2C13.8749 19.2 13.5346 18.8996 13.4846 18.4992L13.4334 18.0902C13.4105 17.9066 13.2847 17.7562 13.1267 17.66C12.9689 17.564 12.7751 17.5387 12.6048 17.6103L12.2195 17.7722C11.8483 17.9281 11.419 17.7839 11.2173 17.4355L10.7144 16.5668C10.5121 16.2174 10.6019 15.772 10.9237 15.5282L11.3743 15.187C11.4477 15.1314 11.4822 15.0405 11.4822 14.9485V14.6515C11.4822 14.5595 11.4477 14.4686 11.3743 14.413L10.9237 14.0718C10.6019 13.828 10.5121 13.3826 10.7144 13.0332L11.2173 12.1645C11.419 11.8161 11.8483 11.6719 12.2195 11.8278L12.6006 11.9879C12.7735 12.0606 12.9701 12.0345 13.1322 11.94C13.2899 11.848 13.4101 11.6961 13.4328 11.5149L13.4846 11.1008C13.5346 10.7004 13.8749 10.4 14.2784 10.4H15.2859C15.6894 10.4 16.0297 10.7004 16.0798 11.1008L16.1309 11.5098C16.1538 11.6934 16.2796 11.8438 16.4377 11.94C16.5954 12.036 16.7892 12.0613 16.9595 11.9897L17.3448 11.8278C17.716 11.6719 18.1453 11.8161 18.3471 12.1645L18.85 13.0332C19.0523 13.3826 18.9625 13.828 18.6406 14.0718L18.19 14.413C18.1166 14.4686 18.0822 14.5595 18.0822 14.6515V14.9485C18.0822 15.0393 18.1079 15.1331 18.1802 15.1879L18.6296 15.5282C18.9515 15.772 19.0413 16.2174 18.839 16.5668L18.3371 17.4336C18.1349 17.7829 17.7043 17.9268 17.3327 17.7694L16.9634 17.6129C16.7908 17.5397 16.5941 17.5655 16.4322 17.66C16.2744 17.752 16.1542 17.9039 16.1315 18.0851L16.0798 18.4992C16.0297 18.8996 15.6894 19.2 15.2859 19.2H14.2784ZM14.8042 16.34C15.2295 16.34 15.5925 16.1897 15.8932 15.889C16.1938 15.5883 16.3442 15.2253 16.3442 14.8C16.3442 14.3747 16.1938 14.0117 15.8932 13.711C15.5925 13.4103 15.2295 13.26 14.8042 13.26C14.3715 13.26 14.0067 13.4103 13.7097 13.711C13.4127 14.0117 13.2642 14.3747 13.2642 14.8C13.2642 15.2253 13.4127 15.5883 13.7097 15.889C14.0067 16.1897 14.3715 16.34 14.8042 16.34Z" fill="white" fill-opacity="0.84"/>
</svg>
