<svg width="24" height="24" viewBox="0 0 24 24" fill="none" xmlns="http://www.w3.org/2000/svg">
<path d="M15.6865 5.91314C15.8856 6.11237 15.9981 6.38221 15.9995 6.66395V18.9363C15.9977 19.2193 15.8841 19.4901 15.6831 19.6895C15.4822 19.8888 15.2106 20.0005 14.9276 20H9.0637C8.7819 19.9988 8.51222 19.8863 8.31284 19.6871C8.11365 19.4879 8.00117 19.218 8 18.9363V6.66395C8.00098 6.38211 8.11346 6.11211 8.31264 5.91276C8.51203 5.71342 8.7819 5.60088 9.0637 5.59964H10.4V4H13.5993V5.60023H14.9356C15.2174 5.60146 15.4873 5.71392 15.6865 5.91314Z" fill="white" fill-opacity="0.84"/>
</svg>
