<svg width="24" height="24" viewBox="0 0 24 24" fill="none" xmlns="http://www.w3.org/2000/svg">
<path d="M18.8462 10.8571H14.4154C14.2685 10.8571 14.1276 10.9173 14.0237 11.0245C13.9199 11.1316 13.8615 11.277 13.8615 11.4286V19.4286C13.8615 19.5801 13.9199 19.7255 14.0237 19.8327C14.1276 19.9398 14.2685 20 14.4154 20H18.8462C18.993 20 19.134 19.9398 19.2378 19.8327C19.3416 19.7255 19.4 19.5801 19.4 19.4286V11.4286C19.4 11.277 19.3416 11.1316 19.2378 11.0245C19.134 10.9173 18.993 10.8571 18.8462 10.8571ZM16.6308 18.8571C16.4839 18.8571 16.343 18.7969 16.2391 18.6898C16.1353 18.5827 16.0769 18.4372 16.0769 18.2857C16.0769 18.1342 16.1353 17.9888 16.2391 17.8816C16.343 17.7745 16.4839 17.7143 16.6308 17.7143C16.7776 17.7143 16.9186 17.7745 17.0224 17.8816C17.1263 17.9888 17.1846 18.1342 17.1846 18.2857C17.1846 18.4372 17.1263 18.5827 17.0224 18.6898C16.9186 18.7969 16.7776 18.8571 16.6308 18.8571ZM16.6308 4H5.55385C5.40698 4 5.26604 4.06021 5.1622 4.16735C5.05835 4.27449 5 4.4199 5 4.57143V19.4286C5 19.5801 5.05835 19.7255 5.1622 19.8327C5.26604 19.9398 5.40698 20 5.55385 20H12.8535C12.7891 19.8167 12.7554 19.6235 12.7539 19.4286V11.4286C12.7539 10.9738 12.929 10.5379 13.2405 10.2163C13.5522 9.8949 13.9747 9.71429 14.4154 9.71429H17.1847V4.57143C17.1847 4.4199 17.1263 4.27449 17.0225 4.16735C16.9186 4.06021 16.7776 4 16.6308 4ZM10.5385 18.8571C10.2447 18.8571 9.96297 18.7367 9.75517 18.5224C9.54747 18.308 9.43077 18.0173 9.43077 17.7143C9.43077 17.4112 9.54747 17.1205 9.75517 16.9061C9.96298 16.6918 10.2447 16.5714 10.5385 16.5714C10.8322 16.5714 11.114 16.6918 11.3218 16.9061C11.5295 17.1205 11.6462 17.4112 11.6462 17.7143C11.6462 18.0173 11.5295 18.308 11.3218 18.5224C11.1139 18.7367 10.8322 18.8571 10.5385 18.8571Z" fill="white" fill-opacity="0.84"/>
</svg>
