<svg width="24" height="24" viewBox="0 0 24 24" fill="none" xmlns="http://www.w3.org/2000/svg">
<path fill-rule="evenodd" clip-rule="evenodd" d="M18.1875 11.9998C18.1875 13.2304 17.8224 14.4336 17.1387 15.4568C16.455 16.4799 15.4835 17.2779 14.3467 17.7488C13.2097 18.2197 11.958 18.3424 10.751 18.1023C9.5441 17.8622 8.43555 17.2693 7.56543 16.3992C6.69531 15.529 6.10238 14.4206 5.8623 13.2136C5.62224 12.0067 5.74593 10.7558 6.2168 9.6189C6.68771 8.48202 7.48469 7.50963 8.50781 6.82593C9.53096 6.14228 10.7343 5.77716 11.9648 5.7771C13.6151 5.7771 15.1983 6.43345 16.3652 7.60034C17.5319 8.7672 18.1875 10.3497 18.1875 11.9998ZM11.8682 12.7341C11.8681 12.5141 11.8368 12.3071 11.7734 12.114C11.7101 11.9209 11.6166 11.7505 11.4941 11.6023C11.3717 11.4541 11.2239 11.3394 11.0508 11.2585C10.8776 11.1777 10.6789 11.1365 10.4551 11.1365C10.2354 11.1365 10.0411 11.1753 9.87207 11.2517C9.70307 11.3236 9.56722 11.4181 9.46582 11.5349L9.68164 10.1863H11.6211V9.59937H9.2002L8.85742 12.1814H9.47852C9.55879 12.0466 9.67345 11.932 9.82129 11.8376C9.97324 11.7434 10.1569 11.6961 10.3721 11.696C10.5494 11.696 10.7041 11.7411 10.835 11.8308C10.9701 11.9162 11.0737 12.0379 11.1455 12.1951C11.2215 12.3478 11.2597 12.5299 11.2598 12.741C11.2598 12.9431 11.2215 13.1275 11.1455 13.2937C11.0737 13.46 10.9702 13.5909 10.835 13.6853C10.6998 13.7796 10.5367 13.8269 10.3467 13.8269C10.0892 13.8268 9.88017 13.7571 9.71973 13.6179C9.55917 13.4786 9.45827 13.3004 9.41602 13.0847H8.80078C8.82613 13.3409 8.90254 13.5686 9.0293 13.7664C9.15603 13.9594 9.32927 14.1144 9.54883 14.2312C9.77272 14.3435 10.0367 14.4001 10.3408 14.4001C10.5732 14.4001 10.7845 14.3566 10.9746 14.2712C11.1645 14.1859 11.3252 14.0674 11.4561 13.9148C11.587 13.762 11.6889 13.5838 11.7607 13.3816C11.8325 13.1794 11.8682 12.9632 11.8682 12.7341ZM15.2002 13.2937C15.2044 13.0515 15.1584 12.8606 15.0615 12.7214C14.9686 12.5776 14.8327 12.4715 14.6553 12.4041C14.4779 12.3322 14.2604 12.2789 14.0029 12.2429C13.8213 12.2115 13.6727 12.1703 13.5586 12.1208C13.449 12.0715 13.3706 12.011 13.3242 11.9392C13.2778 11.8673 13.2549 11.7859 13.2549 11.696C13.255 11.5659 13.3059 11.4628 13.4072 11.3865C13.5086 11.3101 13.6563 11.2712 13.8506 11.2712C14.0365 11.2712 14.1841 11.3148 14.2939 11.4001C14.408 11.481 14.4759 11.5932 14.4971 11.7371H15.1113C15.0733 11.418 14.9469 11.1678 14.7314 10.988C14.5203 10.8085 14.2288 10.7186 13.8574 10.7185C13.6041 10.7185 13.384 10.7635 13.1982 10.8533C13.0167 10.9386 12.8748 11.058 12.7734 11.2107C12.6763 11.3635 12.6279 11.537 12.6279 11.7302C12.6279 11.8965 12.6524 12.0405 12.7031 12.1619C12.758 12.2832 12.8371 12.3837 12.9385 12.4646C13.044 12.5409 13.168 12.6047 13.3115 12.6541C13.4594 12.7035 13.625 12.7413 13.8066 12.7683C13.967 12.7908 14.1022 12.8226 14.2119 12.863C14.3259 12.9035 14.4109 12.9615 14.4658 13.0378C14.5249 13.1097 14.5537 13.2113 14.5537 13.3416C14.5537 13.4403 14.5308 13.5302 14.4844 13.6111C14.4379 13.6875 14.3657 13.7478 14.2686 13.7927C14.1757 13.8331 14.0618 13.8533 13.9268 13.8533C13.7665 13.8533 13.6312 13.827 13.5215 13.7732C13.4159 13.7148 13.3326 13.6404 13.2734 13.5505C13.2185 13.4562 13.1829 13.3547 13.166 13.2468H12.5264C12.5433 13.4715 12.6043 13.6721 12.71 13.8474C12.8156 14.0225 12.9702 14.1597 13.1729 14.2585C13.3756 14.3528 13.627 14.4001 13.9268 14.4001C14.1844 14.4001 14.4085 14.3566 14.5986 14.2712C14.7886 14.1814 14.9364 14.0559 15.042 13.8943C15.1476 13.728 15.2002 13.5274 15.2002 13.2937Z" fill="white" fill-opacity="0.84"/>
<path fill-rule="evenodd" clip-rule="evenodd" d="M20 11.9998C20 16.418 16.4183 19.9998 12 19.9998C7.58172 19.9998 4 16.418 4 11.9998C4 7.58148 7.58172 3.99976 12 3.99976C16.4183 3.99976 20 7.58148 20 11.9998ZM18.7998 11.9998C18.7998 8.24422 15.7555 5.19995 12 5.19995C8.24446 5.19995 5.2002 8.24422 5.2002 11.9998C5.2002 15.7553 8.24446 18.7996 12 18.7996C15.7555 18.7996 18.7998 15.7553 18.7998 11.9998Z" fill="white" fill-opacity="0.84"/>
</svg>
