<svg width="24" height="24" viewBox="0 0 24 24" fill="none" xmlns="http://www.w3.org/2000/svg">
<path d="M11.4477 4.42036C11.6215 3.85988 12.3785 3.85988 12.5523 4.42036L14.0427 9.22531C14.1205 9.47596 14.3435 9.64567 14.5951 9.64567H19.4181C19.9807 9.64567 20.2146 10.3998 19.7595 10.7462L15.8576 13.7158C15.654 13.8707 15.5688 14.1453 15.6466 14.396L17.137 19.2009C17.3108 19.7614 16.6984 20.2275 16.2433 19.8811L12.3414 16.9114C12.1378 16.7565 11.8622 16.7565 11.6586 16.9114L7.7567 19.8811C7.30156 20.2275 6.68916 19.7614 6.86301 19.2009L8.35342 14.396C8.43117 14.1453 8.346 13.8707 8.14245 13.7158L4.24051 10.7462C3.78536 10.3998 4.01928 9.64567 4.58187 9.64567H9.40493C9.65653 9.64567 9.87951 9.47596 9.95726 9.22531L11.4477 4.42036Z" fill="white" fill-opacity="0.84"/>
</svg>
