<svg width="24" height="24" viewBox="0 0 24 24" fill="none" xmlns="http://www.w3.org/2000/svg">
<path fill-rule="evenodd" clip-rule="evenodd" d="M18.6966 11.5827C19.0092 11.3045 19.2146 10.9274 19.2777 10.5157C19.3409 10.1041 19.2578 9.68358 19.0427 9.32592C18.8604 9.02061 18.5862 8.77952 18.2586 8.63649C17.9309 8.49346 17.5663 8.45566 17.2159 8.5284L17.369 9.32592L14.7963 8.41426C14.7997 8.42201 14.803 8.42979 14.8062 8.43759C14.8844 8.62617 14.9244 8.82817 14.9239 9.03205V10.2973H16.7907C16.9966 10.2961 17.2006 10.3352 17.3913 10.4122C17.5819 10.4892 17.7553 10.6027 17.9017 10.7461C18.048 10.8896 18.1643 11.0603 18.2441 11.2483C18.3238 11.4364 18.3653 11.6382 18.3663 11.8421V15.7003C18.3641 16.1126 18.197 16.5073 17.9017 16.7978C17.6064 17.0884 17.2069 17.2511 16.7907 17.2504H10.477C10.1203 17.251 9.77588 17.1315 9.49877 16.9144L7.28323 18.8L7.13015 18.0025C5.52039 18.0421 4.39389 17.3244 4.07972 16.0327C3.94022 15.4955 3.98469 14.9276 4.20614 14.4181C4.4276 13.9087 4.81351 13.4865 5.30331 13.2179C4.99027 13.4957 4.78433 13.8727 4.72071 14.2843C4.65708 14.6959 4.73971 15.1167 4.95447 15.4746C5.13695 15.7804 5.41161 16.0218 5.73979 16.1649C6.06797 16.308 6.43316 16.3455 6.78398 16.2721L6.6309 15.4746L9.03813 16.3274C8.95 16.1319 8.90262 15.9185 8.90143 15.7003V14.435H7.03458C6.82798 14.4362 6.62316 14.397 6.43183 14.3198C6.2405 14.2425 6.0664 14.1286 5.91949 13.9847C5.77258 13.8407 5.65573 13.6695 5.57561 13.4808C5.4955 13.2921 5.45369 13.0896 5.45257 12.8849V9.01937C5.45665 8.60706 5.6254 8.21315 5.92189 7.92382C6.21838 7.6345 6.61846 7.47333 7.03458 7.47559H13.3611C13.5668 7.47608 13.7705 7.51672 13.9604 7.59521C14.1457 7.67179 14.3143 7.78293 14.4572 7.92254L16.7167 6L16.8697 6.79752C18.4795 6.75788 19.606 7.4756 19.9202 8.76728C20.0598 9.30457 20.0154 9.87259 19.7939 10.3822C19.5725 10.8917 19.1865 11.314 18.6966 11.5827ZM6.48717 13.4303C6.63199 13.5757 6.82846 13.6591 7.03458 13.6629L13.3621 13.6623C13.5682 13.6586 13.7647 13.5751 13.9095 13.4298C14.0544 13.2844 14.136 13.0886 14.1371 12.8844V9.01884C14.1344 8.81567 14.052 8.62154 13.9073 8.47752C13.7627 8.3335 13.5671 8.2509 13.3621 8.24722H7.03458C6.82947 8.25091 6.63386 8.33358 6.4892 8.47771C6.34453 8.62184 6.26218 8.81611 6.25958 9.01937V12.8849C6.26066 13.0892 6.34234 13.2849 6.48717 13.4303ZM17.3458 16.254C17.4936 16.1093 17.5772 15.9124 17.5785 15.7066L17.5988 11.8406C17.5975 11.6347 17.5138 11.4378 17.3661 11.2932C17.2184 11.1485 17.0187 11.0678 16.811 11.0689H14.9441V12.8928C14.9415 13.306 14.7733 13.7012 14.4766 13.9916C14.18 14.282 13.7791 14.4438 13.3621 14.4414H9.68817V15.7066C9.68944 15.9124 9.77314 16.1093 9.92086 16.254C10.0686 16.3987 10.2683 16.4794 10.476 16.4782H16.7907C16.9984 16.4794 17.1981 16.3987 17.3458 16.254Z" fill="white" fill-opacity="0.84"/>
</svg>
