<svg width="24" height="24" viewBox="0 0 24 24" fill="none" xmlns="http://www.w3.org/2000/svg">
<path d="M17.1142 19.2535L14.9302 16.8812L14.9257 16.886L13.6343 18.6196L11.7976 12.502L17.4295 14.497L15.8172 15.8913L18.0133 18.2768L17.1142 19.2535Z" fill="white" fill-opacity="0.84"/>
<path d="M14.5319 9.33333C14.5319 10.0616 14.2961 10.8272 13.8862 11.6599C13.7485 11.9395 13.5948 12.2198 13.429 12.5025L14.2834 12.705C14.9142 11.5912 15.3733 10.4696 15.3733 9.33333C15.3733 6.38781 13.275 4 10.6867 4C8.09829 4 6 6.38781 6 9.33333C6 10.8802 7.10757 12.6037 8.24586 14.3749C9.00404 15.5547 9.77586 16.7557 10.2431 17.9398C10.5173 18.6349 10.6867 19.3242 10.6867 20C10.6867 19.3132 10.8615 18.6293 11.1436 17.9465C11.3773 17.3811 11.6845 16.8165 12.0269 16.2519L11.7863 15.0543C11.3978 15.6542 11.0181 16.272 10.7026 16.8954C10.2385 15.9303 9.62914 14.9718 9.05129 14.072L8.96239 13.9336C8.40144 13.0606 7.87808 12.246 7.48357 11.4636C7.06618 10.6358 6.84138 9.93399 6.84138 9.33333C6.84138 6.74702 8.66185 4.84138 10.6867 4.84138C12.7115 4.84138 14.5319 6.74702 14.5319 9.33333Z" fill="white" fill-opacity="0.84"/>
<path d="M12.9684 9.01212C12.9684 10.1738 12.0075 11.1156 10.8222 11.1156C9.63691 11.1156 8.67603 10.1738 8.67603 9.01212C8.67603 7.85042 9.63691 6.90867 10.8222 6.90867C12.0075 6.90867 12.9684 7.85042 12.9684 9.01212Z" fill="white" fill-opacity="0.84"/>
</svg>
