<svg width="24" height="24" viewBox="0 0 24 24" fill="none" xmlns="http://www.w3.org/2000/svg">
<path d="M7.22449 4C7.12706 4 7.03363 4.05641 6.96474 4.15682C6.89585 4.25723 6.85714 4.39342 6.85714 4.53542V5.0081C6.85714 5.57612 7.01195 6.12087 7.28752 6.52252C7.56308 6.92416 7.93682 7.1498 8.32653 7.1498H15.6735C16.0632 7.1498 16.4369 6.92416 16.7125 6.52252C16.988 6.12087 17.1429 5.57612 17.1429 5.0081V4.53542C17.1429 4.39342 17.1042 4.25723 17.0353 4.15682C16.9664 4.05641 16.8729 4 16.7755 4H7.22449ZM12.6 10.3624H14.3143C14.5189 10.3624 14.7151 10.1931 14.8598 9.89189C15.0044 9.59065 15.0857 9.18209 15.0857 8.75608V8.22065H8.91429V8.75608C8.91429 9.18209 8.99556 9.59065 9.14023 9.89189C9.2849 10.1931 9.48112 10.3624 9.68571 10.3624H11.4V13.0395C11.4 13.1815 11.4632 13.3177 11.5757 13.4181C11.6883 13.5185 11.8409 13.5749 12 13.5749C12.1591 13.5749 12.3117 13.5185 12.4243 13.4181C12.5368 13.3177 12.6 13.1815 12.6 13.0395V10.3624ZM6 15.1812C6 15.0392 6.06321 14.903 6.17574 14.8026C6.28826 14.7022 6.44087 14.6458 6.6 14.6458H8.4C8.55913 14.6458 8.71174 14.7022 8.82426 14.8026C8.93679 14.903 9 15.0392 9 15.1812C9 15.3232 8.93679 15.4594 8.82426 15.5598C8.71174 15.6602 8.55913 15.7166 8.4 15.7166H6.6C6.44087 15.7166 6.28826 15.6602 6.17574 15.5598C6.06321 15.4594 6 15.3232 6 15.1812ZM15.6 14.6458C15.4409 14.6458 15.2883 14.7022 15.1757 14.8026C15.0632 14.903 15 15.0392 15 15.1812C15 15.3232 15.0632 15.4594 15.1757 15.5598C15.2883 15.6602 15.4409 15.7166 15.6 15.7166H17.4C17.5591 15.7166 17.7117 15.6602 17.8243 15.5598C17.9368 15.4594 18 15.3232 18 15.1812C18 15.0392 17.9368 14.903 17.8243 14.8026C17.7117 14.7022 17.5591 14.6458 17.4 14.6458H15.6ZM12.6 15.1812C12.6 15.3232 12.5368 15.4594 12.4243 15.5598C12.3117 15.6602 12.1591 15.7166 12 15.7166C11.8409 15.7166 11.6883 15.6602 11.5757 15.5598C11.4632 15.4594 11.4 15.3232 11.4 15.1812C11.4 15.0392 11.4632 14.903 11.5757 14.8026C11.6883 14.7022 11.8409 14.6458 12 14.6458C12.1591 14.6458 12.3117 14.7022 12.4243 14.8026C12.5368 14.903 12.6 15.0392 12.6 15.1812ZM12.6 17.3229C12.6 17.1809 12.5368 17.0447 12.4243 16.9443C12.3117 16.8439 12.1591 16.7875 12 16.7875C11.8409 16.7875 11.6883 16.8439 11.5757 16.9443C11.4632 17.0447 11.4 17.1809 11.4 17.3229V19.4646C11.4 19.6066 11.4632 19.7428 11.5757 19.8432C11.6883 19.9436 11.8409 20 12 20C12.1591 20 12.3117 19.9436 12.4243 19.8432C12.5368 19.7428 12.6 19.6066 12.6 19.4646V17.3229ZM10.6248 15.8729C10.6807 15.9227 10.725 15.9818 10.7553 16.0468C10.7855 16.1119 10.8011 16.1816 10.8011 16.252C10.8011 16.3225 10.7855 16.3922 10.7553 16.4572C10.725 16.5223 10.6807 16.5814 10.6248 16.6311L8.8248 18.2374C8.71214 18.3379 8.55933 18.3944 8.4 18.3944C8.24067 18.3944 8.08786 18.3379 7.9752 18.2374C7.86254 18.1368 7.79924 18.0005 7.79924 17.8583C7.79924 17.7161 7.86254 17.5798 7.9752 17.4792L9.7752 15.8729C9.83094 15.8231 9.89715 15.7835 9.97004 15.7565C10.0429 15.7295 10.1211 15.7156 10.2 15.7156C10.2789 15.7156 10.3571 15.7295 10.43 15.7565C10.5029 15.7835 10.5691 15.8231 10.6248 15.8729ZM13.3752 16.6311C13.2625 16.5306 13.1992 16.3942 13.1992 16.252C13.1992 16.1098 13.2625 15.9735 13.3752 15.8729C13.4879 15.7724 13.6407 15.7159 13.8 15.7159C13.9593 15.7159 14.1121 15.7724 14.2248 15.8729L16.0248 17.4792C16.1375 17.5798 16.2008 17.7161 16.2008 17.8583C16.2008 18.0005 16.1375 18.1368 16.0248 18.2374C15.9121 18.3379 15.7593 18.3944 15.6 18.3944C15.4407 18.3944 15.2879 18.3379 15.1752 18.2374L13.3752 16.6311Z" fill="white" fill-opacity="0.84"/>
</svg>
