<svg width="24" height="24" viewBox="0 0 24 24" fill="none" xmlns="http://www.w3.org/2000/svg">
<path d="M11.2669 5C10.8722 5 10.5522 5.32644 10.5522 5.72912C10.5522 6.1318 10.8722 6.45824 11.2669 6.45824H18.5706V17.9418H11.2669C10.8722 17.9418 10.5522 18.2682 10.5522 18.6709C10.5522 19.0736 10.8722 19.4 11.2669 19.4H19.2853C19.68 19.4 20 19.0736 20 18.6709V5.72912C20 5.32644 19.68 5 19.2853 5H11.2669Z" fill="white" fill-opacity="0.84"/>
<path d="M9.32198 7.66719C9.60645 7.94635 9.61524 8.40791 9.34162 8.69813L6.66976 11.532H14.7532C15.1479 11.532 15.4679 11.8584 15.4679 12.2611C15.4679 12.6638 15.1479 12.9902 14.7532 12.9902H6.67167L9.34162 15.822C9.61524 16.1123 9.60645 16.5738 9.32198 16.853C9.03751 17.1321 8.58508 17.1232 8.31145 16.8329L4.49878 12.7891C4.48361 12.7744 4.46906 12.7589 4.4552 12.7429L4 12.2601L8.31145 7.68723C8.58508 7.39701 9.03751 7.38804 9.32198 7.66719Z" fill="white" fill-opacity="0.84"/>
</svg>
