<svg width="24" height="24" viewBox="0 0 24 24" fill="none" xmlns="http://www.w3.org/2000/svg">
<path d="M12.0501 20C9.80447 20 7.90139 19.2254 6.34084 17.6761C4.78028 16.1268 4 14.2353 4 12.0017C4 9.76799 4.77959 7.87596 6.33878 6.32556C7.89796 4.77519 9.80281 4 12.0533 4C13.309 4 14.4838 4.27819 15.5777 4.83457C16.6716 5.39097 17.5973 6.17161 18.355 7.17648V4.81667C18.355 4.60821 18.4385 4.41998 18.6054 4.252C18.7724 4.084 18.9623 4 19.1752 4C19.3881 4 19.5788 4.084 19.7473 4.252C19.9158 4.41998 20 4.60954 20 4.82066V9.62574C20 9.8921 19.9019 10.1221 19.7058 10.3157C19.5096 10.5094 19.2796 10.6062 19.0157 10.6062H14.192C13.9765 10.6062 13.7853 10.5222 13.6184 10.3541C13.4516 10.186 13.3681 9.99593 13.3681 9.78386C13.3681 9.57529 13.4516 9.38709 13.6184 9.21927C13.7853 9.05145 13.9738 8.96754 14.1839 8.96754H17.6195C17.0463 7.95365 16.2669 7.14536 15.2814 6.54267C14.2959 5.93999 13.2202 5.63865 12.0544 5.63865C10.2755 5.63865 8.76259 6.25739 7.51556 7.49486C6.26855 8.73232 5.64505 10.233 5.64505 11.9968C5.64505 13.7606 6.26772 15.2623 7.51306 16.5019C8.75843 17.7415 10.2729 18.3614 12.0565 18.3614C13.3276 18.3614 14.4799 18.0304 15.5133 17.3686C16.5467 16.7067 17.3198 15.804 17.8327 14.6604C17.9178 14.5181 18.0321 14.3953 18.1756 14.2919C18.3192 14.1886 18.4726 14.1369 18.6358 14.1369C18.9692 14.1369 19.2092 14.2462 19.3558 14.4649C19.5025 14.6835 19.51 14.933 19.3785 15.2132C18.7402 16.6575 17.7618 17.8164 16.4433 18.6898C15.1248 19.5633 13.6604 20 12.0501 20Z" fill="white" fill-opacity="0.84"/>
</svg>
