<svg width="24" height="24" viewBox="0 0 24 24" fill="none" xmlns="http://www.w3.org/2000/svg">
<path fill-rule="evenodd" clip-rule="evenodd" d="M7.43724 18.7722C7.74966 19.0759 8.2562 19.0759 8.56861 18.7722L11.7686 15.6611C12.081 15.3573 12.081 14.8649 11.7686 14.5611C11.4562 14.2574 10.9497 14.2574 10.6372 14.5611L8.80293 16.3445V5.77778C8.80293 5.34822 8.44476 5 8.00293 5C7.5611 5 7.20293 5.34822 7.20293 5.77778V16.3445L5.36862 14.5611C5.0562 14.2574 4.54966 14.2574 4.23724 14.5611C3.92482 14.8649 3.92482 15.3573 4.23724 15.6611L7.43724 18.7722ZM14.4029 11.2222H11.2029C10.7611 11.2222 10.4029 11.5704 10.4029 12C10.4029 12.4296 10.7611 12.7778 11.2029 12.7778H14.4029C14.8448 12.7778 15.2029 12.4296 15.2029 12C15.2029 11.5704 14.8448 11.2222 14.4029 11.2222ZM16.8029 8.11111H11.2029C10.7611 8.11111 10.4029 8.45933 10.4029 8.88889C10.4029 9.31844 10.7611 9.66667 11.2029 9.66667H16.8029C17.2448 9.66667 17.6029 9.31844 17.6029 8.88889C17.6029 8.45933 17.2448 8.11111 16.8029 8.11111ZM11.2029 5C10.7611 5 10.4029 5.34822 10.4029 5.77778C10.4029 6.20733 10.7611 6.55556 11.2029 6.55556H19.2029C19.6448 6.55556 20.0029 6.20733 20.0029 5.77778C20.0029 5.34822 19.6448 5 19.2029 5H11.2029Z" fill="white" fill-opacity="0.84"/>
</svg>
