<svg width="24" height="24" viewBox="0 0 24 24" fill="none" xmlns="http://www.w3.org/2000/svg">
<path d="M15.4568 6.86124C14.4336 6.17754 13.2306 5.81261 12 5.81261C10.3497 5.81261 8.76707 6.46816 7.60018 7.63506C6.43329 8.80195 5.77773 10.3846 5.77773 12.0348C5.77773 13.2655 6.14266 14.4685 6.82637 15.4917C7.51007 16.5149 8.48185 17.3125 9.61881 17.7834C10.7558 18.2544 12.0069 18.3776 13.2139 18.1375C14.4208 17.8974 15.5295 17.3048 16.3997 16.4346C17.2699 15.5644 17.8625 14.4557 18.1026 13.2487C18.3427 12.0417 18.2195 10.7907 17.7485 9.65369C17.2776 8.51673 16.4801 7.54495 15.4568 6.86124Z" fill="white" fill-opacity="0.84"/>
<path fill-rule="evenodd" clip-rule="evenodd" d="M12 20C16.4183 20 20 16.4183 20 12C20 7.58172 16.4183 4 12 4C7.58172 4 4 7.58172 4 12C4 16.4183 7.58172 20 12 20ZM18.8 12C18.8 15.7555 15.7555 18.8 12 18.8C8.24446 18.8 5.2 15.7555 5.2 12C5.2 8.24446 8.24446 5.2 12 5.2C15.7555 5.2 18.8 8.24446 18.8 12Z" fill="white" fill-opacity="0.84"/>
</svg>
