<svg width="24" height="24" viewBox="0 0 24 24" fill="none" xmlns="http://www.w3.org/2000/svg">
<path d="M18.6658 7.68702H16.6693V5.69033C16.6693 5.50725 16.5952 5.33166 16.4633 5.20221C16.3314 5.07275 16.1525 5 15.966 5C15.7795 5 15.6006 5.07275 15.4687 5.20221C15.3368 5.33166 15.2627 5.50725 15.2627 5.69033V7.68702H8.74263V5.69033C8.73659 5.51131 8.65992 5.34158 8.52876 5.21704C8.3976 5.09249 8.22222 5.02287 8.03972 5.02287C7.85723 5.02287 7.68185 5.09249 7.55069 5.21704C7.41953 5.34158 7.34286 5.51131 7.33682 5.69033V7.68702H5.33333C4.98002 7.68802 4.64152 7.82618 4.3917 8.07139C4.14187 8.31659 4.00102 8.64888 4 8.99566V18.0913C4.00102 18.4381 4.14187 18.7704 4.3917 19.0156C4.64152 19.2608 4.98002 19.399 5.33333 19.4H18.6667C18.8418 19.4001 19.0152 19.3663 19.177 19.3006C19.3388 19.2349 19.4859 19.1385 19.6097 19.0169C19.7335 18.8954 19.8317 18.7511 19.8987 18.5922C19.9657 18.4334 20.0001 18.2632 20 18.0913V8.99566C20.0001 8.82371 19.9656 8.65347 19.8986 8.4946C19.8316 8.33573 19.7333 8.19137 19.6094 8.06982C19.4855 7.94826 19.3384 7.8519 19.1765 7.78621C19.0146 7.72052 18.841 7.68683 18.6658 7.68702ZM19.3321 17.4684C19.3327 17.6404 19.2986 17.8109 19.2319 17.9699C19.1651 18.129 19.0669 18.2735 18.943 18.3951C18.819 18.5168 18.6718 18.6131 18.5097 18.6787C18.3477 18.7442 18.174 18.7777 17.9988 18.7771H5.99887C5.82375 18.7772 5.65028 18.7434 5.48847 18.6777C5.32666 18.6119 5.17965 18.5155 5.05582 18.394C4.93199 18.2725 4.8338 18.1281 4.76683 17.9693C4.69986 17.8105 4.66544 17.6403 4.66554 17.4684V12.2337C4.66676 11.887 4.80764 11.5548 5.05742 11.3096C5.30721 11.0645 5.64562 10.9262 5.99887 10.925H17.9988C18.3524 10.925 18.6916 11.0629 18.9416 11.3083C19.1917 11.5537 19.3321 11.8866 19.3321 12.2337V17.4684Z" fill="white" fill-opacity="0.84"/>
</svg>
