<svg width="24" height="24" viewBox="0 0 24 24" fill="none" xmlns="http://www.w3.org/2000/svg">
<path d="M13.7005 9.10061L10.3999 14.1554L11.59 14.7566L13.7005 9.10061Z" fill="white" fill-opacity="0.84"/>
<path fill-rule="evenodd" clip-rule="evenodd" d="M20 12C20 16.4183 16.4183 20 12 20C7.58172 20 4 16.4183 4 12C4 7.58172 7.58172 4 12 4C16.4183 4 20 7.58172 20 12ZM19.2 12C19.2 15.9765 15.9765 19.2 12 19.2C8.02355 19.2 4.8 15.9765 4.8 12C4.8 8.02355 8.02355 4.8 12 4.8C15.9765 4.8 19.2 8.02355 19.2 12Z" fill="white" fill-opacity="0.84"/>
</svg>
