<svg width="24" height="24" viewBox="0 0 24 24" fill="none" xmlns="http://www.w3.org/2000/svg">
<path d="M18.8749 14.3319L13.5119 18.3748H20L18.8749 14.3319Z" fill="white" fill-opacity="0.84"/>
<path d="M7.40504 14.8449V18.3752H12.8305L15.5983 16.285L7.40504 14.8449Z" fill="white" fill-opacity="0.84"/>
<path d="M4 18.3742H6.99027V14.7714L5.20261 14.4563L4 18.3742Z" fill="white" fill-opacity="0.84"/>
<path d="M12.0005 13.6257C12.8027 12.6237 13.5029 11.544 14.0907 10.4029C14.4482 9.76784 14.7082 9.15279 14.7082 8.70775C14.7082 8.35216 14.6382 8.00005 14.5021 7.67154C14.366 7.34302 14.1666 7.04452 13.9151 6.79308C13.6637 6.54164 13.3652 6.34219 13.0367 6.20611C12.7082 6.07004 12.3561 6 12.0005 6C11.6449 6 11.2928 6.07004 10.9643 6.20611C10.6357 6.34219 10.3372 6.54164 10.0858 6.79308C9.83437 7.04452 9.63492 7.34302 9.49885 7.67154C9.36277 8.00005 9.29273 8.35216 9.29273 8.70775C9.29273 9.16029 9.55775 9.78534 9.92029 10.4279C10.5066 11.5598 11.2034 12.6309 12.0005 13.6257ZM10.8679 8.70775C10.8684 8.48445 10.935 8.2663 11.0594 8.08084C11.1837 7.89538 11.3603 7.75092 11.5667 7.66569C11.7731 7.58047 12.0001 7.5583 12.2191 7.60198C12.438 7.64567 12.6392 7.75325 12.7971 7.91115C12.955 8.06904 13.0626 8.27018 13.1062 8.48916C13.1499 8.70815 13.1278 8.93517 13.0425 9.14156C12.9573 9.34796 12.8128 9.52448 12.6274 9.64885C12.4419 9.77322 12.2238 9.83985 12.0005 9.84035C11.8516 9.84068 11.7042 9.81161 11.5667 9.7548C11.4291 9.698 11.3041 9.61459 11.1989 9.50935C11.0936 9.40411 11.0102 9.27913 10.9534 9.14156C10.8966 9.004 10.8675 8.85657 10.8679 8.70775Z" fill="white" fill-opacity="0.84"/>
<path d="M18.7514 13.9006L18.5013 12.9355H12.8633L12.8458 12.9555C12.4858 13.4205 12.2058 13.7456 12.1533 13.8056C12.134 13.8282 12.1101 13.8464 12.0831 13.8589C12.0561 13.8714 12.0267 13.8779 11.997 13.8779C11.9673 13.8779 11.9379 13.8714 11.9109 13.8589C11.8839 13.8464 11.86 13.8282 11.8407 13.8056C11.8282 13.7906 11.5357 13.4555 11.1457 12.9555L11.1307 12.9355H5.67017L5.32514 14.0581L16.0486 15.9357L18.7514 13.9006Z" fill="white" fill-opacity="0.84"/>
</svg>
