<svg width="24" height="24" viewBox="0 0 24 24" fill="none" xmlns="http://www.w3.org/2000/svg">
<path d="M5.16161 11.756C5.16161 10.8652 7.82334 9.57581 11.9906 9.57581H12.2907L11.6954 8.38481C11.1493 8.38481 10.6031 8.40942 10.0718 8.45371C10.5392 6.64752 11.4002 5.16615 12.0053 5.16615C12.7827 5.16615 13.8504 6.98218 14.1997 9.96953H13.2108L14.7163 12.701L16.3251 9.96953H15.474C15.0951 6.79517 13.9242 3.99976 12.0053 3.99976C10.426 3.99976 9.25014 6.1849 8.71878 8.62596C6.07673 9.07382 4.00049 10.1369 4.00049 11.7511C4.00541 12.2482 4.23173 12.701 4.62041 13.0947L6.07673 12.7502C5.48633 12.4155 5.16161 12.0612 5.16161 11.756Z" fill="white" fill-opacity="0.84"/>
<path d="M19.9996 11.7366C19.9996 10.8802 19.3698 10.1814 18.376 9.64984L17.9873 9.5022L17.5051 10.5357C18.3465 10.9294 18.8336 11.3773 18.8336 11.7464C18.8336 12.6372 16.1718 13.9266 12.0046 13.9266C11.0698 13.9315 10.13 13.8577 9.20509 13.7101L9.53473 12.8833L6.03168 13.4246L8.55565 15.5163L8.88529 14.842C9.91357 15.0192 10.9566 15.1078 11.9997 15.1078C12.654 15.1078 13.3182 15.0733 13.9677 15.0094H13.9627C13.4904 17.1158 12.6245 18.8334 11.9849 18.8334C11.3453 18.8334 10.2334 17.4455 9.75613 15.4326L9.24445 17.224C9.84469 18.8629 10.7746 19.9998 11.9997 19.9998C13.6823 19.9998 14.8877 17.4701 15.3797 14.8027H15.3748C17.9479 14.3253 19.9996 13.2819 19.9996 11.7366Z" fill="white" fill-opacity="0.84"/>
</svg>
