<svg width="24" height="24" viewBox="0 0 24 24" fill="none" xmlns="http://www.w3.org/2000/svg">
<path d="M17.9683 13.5475C17.6563 12.926 17.1801 12.4042 16.5927 12.0403C16.0052 11.6764 15.3296 11.4847 14.641 11.4864H9.92977C9.9166 11.4864 9.90343 11.4864 9.89026 11.4904C9.8771 11.4944 9.86393 11.4864 9.85076 11.4864C9.39059 11.4872 8.93789 11.3685 8.53596 11.1416C8.13403 10.9148 7.7963 10.5873 7.55506 10.1905C7.78366 10.0444 7.97202 9.84217 8.10255 9.60251C8.23308 9.36285 8.30154 9.09362 8.30154 8.81993C8.30154 8.54625 8.23308 8.27702 8.10255 8.03736C7.97202 7.7977 7.78366 7.59542 7.55506 7.44938C7.7964 7.05254 8.13425 6.72502 8.53629 6.49814C8.93834 6.27126 9.39115 6.15259 9.85142 6.15349C9.86459 6.15349 9.87776 6.15349 9.89092 6.14949C9.90409 6.14549 9.91726 6.15349 9.93042 6.15349H16.2744C16.395 6.52371 16.6419 6.83832 16.9708 7.04091C17.2998 7.24349 17.6892 7.3208 18.0693 7.25897C18.4495 7.19714 18.7954 7.00021 19.0452 6.7035C19.2949 6.40678 19.432 6.0297 19.432 5.63987C19.432 5.25003 19.2949 4.87295 19.0452 4.57624C18.7954 4.27953 18.4495 4.0826 18.0693 4.02076C17.6892 3.95893 17.2998 4.03624 16.9708 4.23882C16.6419 4.44141 16.395 4.75602 16.2744 5.12624H9.92977C9.9166 5.12624 9.90343 5.12624 9.89026 5.13024C9.8771 5.13424 9.86393 5.12624 9.85076 5.12624C9.16212 5.12454 8.48652 5.3163 7.8991 5.68019C7.31167 6.04408 6.83545 6.56582 6.52341 7.1874C6.11156 7.21124 5.72431 7.3937 5.44106 7.69736C5.1578 8.00103 5 8.4029 5 8.8206C5 9.2383 5.1578 9.64017 5.44106 9.94383C5.72431 10.2475 6.11156 10.43 6.52341 10.4538C6.83554 11.0752 7.3118 11.5969 7.89922 11.9606C8.48664 12.3244 9.16219 12.5161 9.85076 12.5143C9.86393 12.5143 9.8771 12.5143 9.89026 12.5103C9.90343 12.5063 9.9166 12.5143 9.92977 12.5143H14.641C15.1013 12.5133 15.5541 12.6319 15.9562 12.8588C16.3583 13.0857 16.6961 13.4133 16.9374 13.8102C16.7086 13.9561 16.5201 14.1583 16.3895 14.398C16.2588 14.6377 16.1903 14.907 16.1903 15.1807C16.1903 15.4545 16.2588 15.7238 16.3895 15.9635C16.5201 16.2031 16.7086 16.4054 16.9374 16.5513C16.6961 16.9481 16.3584 17.2756 15.9565 17.5024C15.5545 17.7293 15.1018 17.848 14.6417 17.8472C14.6285 17.8472 14.6153 17.8472 14.6022 17.8512C14.589 17.8552 14.5758 17.8472 14.5627 17.8472H8.21737C8.09679 17.4771 7.84996 17.1627 7.52115 16.9602C7.19234 16.7578 6.80306 16.6805 6.4231 16.7424C6.04314 16.8042 5.69736 17.0011 5.44777 17.2976C5.19817 17.5942 5.06108 17.9711 5.06108 18.3608C5.06108 18.7505 5.19817 19.1274 5.44777 19.424C5.69736 19.7205 6.04314 19.9174 6.4231 19.9792C6.80306 20.0411 7.19234 19.9638 7.52115 19.7614C7.84996 19.5589 8.09679 19.2445 8.21737 18.8744H14.562C14.5752 18.8744 14.5883 18.8744 14.6015 18.8704C14.6147 18.8664 14.6278 18.8744 14.641 18.8744C15.3295 18.8761 16.0051 18.6844 16.5925 18.3207C17.1799 17.9569 17.6562 17.4353 17.9683 16.8139C18.3802 16.7901 18.7674 16.6076 19.0507 16.304C19.334 16.0003 19.4918 15.5984 19.4918 15.1807C19.4918 14.763 19.334 14.3612 19.0507 14.0575C18.7674 13.7538 18.3802 13.5714 17.9683 13.5475ZM17.2237 5.64087C17.2215 5.51713 17.2557 5.39553 17.322 5.29156C17.3883 5.18758 17.4836 5.10593 17.5959 5.05701C17.7082 5.0081 17.8323 4.99413 17.9524 5.01688C18.0725 5.03963 18.1833 5.09808 18.2705 5.18478C18.3577 5.27148 18.4174 5.38251 18.4421 5.50371C18.4668 5.62491 18.4553 5.75081 18.409 5.86536C18.3628 5.97991 18.2839 6.07793 18.1824 6.14693C18.081 6.21594 17.9615 6.25279 17.8393 6.25281C17.6776 6.25406 17.522 6.19035 17.4066 6.07564C17.2912 5.96093 17.2255 5.80459 17.2237 5.64087ZM6.03754 8.8206C6.03532 8.69687 6.06952 8.57527 6.1358 8.47129C6.20207 8.36731 6.29741 8.28566 6.40968 8.23675C6.52195 8.18783 6.64605 8.17386 6.76619 8.19661C6.88633 8.21937 6.99705 8.27782 7.08426 8.36452C7.17148 8.45122 7.23122 8.56224 7.2559 8.68344C7.28057 8.80465 7.26905 8.93054 7.22281 9.04509C7.17656 9.15965 7.09769 9.25767 6.99623 9.32667C6.89477 9.39567 6.77533 9.43253 6.65311 9.43255C6.49129 9.43397 6.33553 9.37034 6.22 9.25561C6.10448 9.14088 6.03928 8.98444 6.03754 8.8206ZM7.26867 18.3591C7.2709 18.4829 7.23669 18.6045 7.17042 18.7084C7.10414 18.8124 7.0088 18.8941 6.89653 18.943C6.78427 18.9919 6.66016 19.0059 6.54002 18.9831C6.41989 18.9604 6.30916 18.9019 6.22195 18.8152C6.13474 18.7285 6.07499 18.6175 6.05031 18.4963C6.02564 18.3751 6.03716 18.2492 6.0834 18.1346C6.12965 18.0201 6.20852 17.9221 6.30998 17.8531C6.41144 17.7841 6.53089 17.7472 6.65311 17.7472C6.8148 17.7459 6.97039 17.8097 7.08578 17.9244C7.20117 18.0391 7.26693 18.1954 7.26867 18.3591ZM17.8393 15.7913C17.7203 15.7891 17.6045 15.7513 17.5066 15.6828C17.4087 15.6142 17.333 15.5178 17.289 15.4058C17.245 15.2938 17.2346 15.1712 17.2591 15.0532C17.2837 14.9353 17.3421 14.8273 17.4271 14.7428C17.512 14.6584 17.6197 14.6012 17.7367 14.5785C17.8536 14.5558 17.9745 14.5686 18.0843 14.6152C18.1941 14.6618 18.2878 14.7403 18.3537 14.8406C18.4197 14.941 18.4549 15.0589 18.4549 15.1794C18.4533 15.3432 18.3876 15.4998 18.2722 15.6146C18.1568 15.7295 18.0011 15.7926 17.8393 15.7913Z" fill="white" fill-opacity="0.84"/>
</svg>
