<svg width="24" height="24" viewBox="0 0 24 24" fill="none" xmlns="http://www.w3.org/2000/svg">
<path d="M5.42534 12.949C5.46257 12.8569 5.53473 12.7835 5.62595 12.7448L6.07615 12.511L4.08336 10.0203C4.04839 9.9771 4.02348 9.92658 4.01044 9.87246C3.9974 9.81834 3.99657 9.76198 4.008 9.70749C4.01943 9.653 4.04284 9.60176 4.07652 9.55751C4.11019 9.51325 4.15329 9.4771 4.20267 9.45169L4.68642 9.19916C4.73965 9.1713 4.79881 9.15675 4.85885 9.15675C4.9189 9.15675 4.97805 9.1713 5.03129 9.19916L7.90489 10.6956L15.3019 6.83573C16.6571 6.1296 16.9302 6.10248 17.3319 6.1137C17.4718 6.12073 17.612 6.11099 17.7495 6.08471C18.196 5.97955 18.6598 5.97221 19.1094 6.0632C19.221 6.0855 19.3266 6.1314 19.4192 6.19784C19.5118 6.26428 19.5892 6.34974 19.6463 6.44853C19.732 6.61221 19.8961 7.20236 18.4747 7.97209L14.7202 9.93616L11.6751 13.1254C11.6525 13.1496 11.626 13.1698 11.5968 13.1853L10.5716 13.7203C10.5128 13.7509 10.4457 13.7613 10.3805 13.75C10.3153 13.7387 10.2556 13.7063 10.2104 13.6578C10.1653 13.6092 10.1373 13.5471 10.1306 13.4811C10.124 13.415 10.139 13.3486 10.1736 13.2919L11.1522 11.687L5.91676 13.435C5.82554 13.4737 5.72274 13.4745 5.63097 13.4371C5.5392 13.3997 5.46598 13.3273 5.42742 13.2358C5.38886 13.1443 5.38811 13.0411 5.42534 12.949Z" fill="white" fill-opacity="0.84"/>
<path d="M5.24457 15.7676H19.2602C19.3561 15.7641 19.4517 15.7801 19.5413 15.8145C19.6309 15.8489 19.7126 15.9011 19.7817 15.9679C19.8507 16.0348 19.9056 16.1148 19.9432 16.2034C19.9807 16.292 20 16.3873 20 16.4836C20 16.5798 19.9807 16.6751 19.9432 16.7637C19.9056 16.8523 19.8507 16.9324 19.7817 16.9992C19.7126 17.066 19.6309 17.1182 19.5413 17.1526C19.4517 17.187 19.3561 17.203 19.2602 17.1995H5.24457C5.1487 17.203 5.05311 17.187 4.96352 17.1526C4.87393 17.1182 4.79217 17.066 4.72312 16.9992C4.65407 16.9324 4.59915 16.8523 4.56164 16.7637C4.52413 16.6751 4.5048 16.5798 4.5048 16.4836C4.5048 16.3873 4.52413 16.292 4.56164 16.2034C4.59915 16.1148 4.65407 16.0348 4.72312 15.9679C4.79217 15.9011 4.87393 15.8489 4.96352 15.8145C5.05311 15.7801 5.1487 15.7641 5.24457 15.7676Z" fill="white" fill-opacity="0.84"/>
</svg>
