<svg width="24" height="24" viewBox="0 0 24 24" fill="none" xmlns="http://www.w3.org/2000/svg">
<path d="M11.9225 4.37342C9.81429 4.39385 7.79937 5.24566 6.31581 6.74366C4.83225 8.24166 4 10.2647 4 12.373C4 14.4814 4.83225 16.5044 6.31581 18.0024C7.79937 19.5004 9.81429 20.3522 11.9225 20.3727C12.9795 20.3829 14.0281 20.1836 15.0077 19.7861C15.9872 19.3887 16.8783 18.8011 17.6294 18.0572C18.3805 17.3134 18.9767 16.4281 19.3836 15.4524C19.7905 14.4768 20 13.4301 20 12.373C20 11.3159 19.7905 10.2693 19.3836 9.29369C18.9767 8.31804 18.3805 7.43271 17.6294 6.68886C16.8783 5.94501 15.9872 5.35739 15.0077 4.95996C14.0281 4.56253 12.9795 4.36318 11.9225 4.37342ZM11.6559 4.96287V19.7832C10.5897 19.3515 9.52265 16.4312 9.52265 12.3727C9.52265 8.3141 10.5882 5.39464 11.6559 4.96287ZM12.1891 19.784V4.96287C13.2553 5.39464 14.3223 8.31485 14.3223 12.3734C14.3223 16.432 13.2553 19.3522 12.1891 19.784ZM8.98876 12.3734C8.98876 15.2614 9.58046 18.2214 10.6235 19.5895C8.45563 18.744 6.85548 15.8403 6.85548 12.3734C6.85548 8.90656 8.45563 6.00286 10.6235 5.15735C9.58121 6.52548 8.98876 9.48549 8.98876 12.3734ZM14.8555 12.3734C14.8555 9.48549 14.2638 6.52548 13.2208 5.15735C15.3886 6.00286 16.988 8.90656 16.988 12.3734C16.988 15.8403 15.3879 18.744 13.22 19.5895C14.2638 18.2206 14.8555 15.2614 14.8555 12.3734ZM4.45563 12.3734C4.45572 10.8883 4.89873 9.43687 5.72804 8.20482C6.55734 6.97277 7.73525 6.01604 9.11116 5.45696C7.44493 6.84536 6.32535 9.42392 6.32535 12.3734C6.32535 15.3229 7.45169 17.9015 9.11716 19.2906C7.74114 18.7315 6.56315 17.7747 5.73383 16.5425C4.90452 15.3103 4.46157 13.8587 4.46164 12.3734H4.45563ZM14.7301 19.2906C16.3993 17.9015 17.5219 15.3229 17.5219 12.3734C17.5219 9.42392 16.3956 6.84536 14.7301 5.45621C16.1063 6.01522 17.2844 6.97201 18.1139 8.20422C18.9433 9.43643 19.3864 10.888 19.3864 12.3734C19.3864 13.8588 18.9433 15.3104 18.1139 16.5426C17.2844 17.7748 16.1063 18.7316 14.7301 19.2906Z" fill="white" fill-opacity="0.84"/>
</svg>
