<svg width="24" height="24" viewBox="0 0 24 24" fill="none" xmlns="http://www.w3.org/2000/svg">
<path d="M11.6 14.633V17.173C11.6 17.3997 11.6767 17.5897 11.83 17.743C11.9833 17.8964 12.1733 17.973 12.4 17.973C12.6267 17.973 12.8167 17.8964 12.97 17.743C13.1233 17.5897 13.2 17.3997 13.2 17.173V14.633L13.92 15.353C14 15.433 14.09 15.493 14.19 15.533C14.29 15.573 14.39 15.5897 14.49 15.583C14.59 15.5764 14.6867 15.553 14.78 15.513C14.8733 15.473 14.96 15.413 15.04 15.333C15.1867 15.173 15.2633 14.9864 15.27 14.773C15.2767 14.5597 15.2 14.373 15.04 14.213L12.96 12.133C12.88 12.053 12.7933 11.9964 12.7 11.963C12.6067 11.9297 12.5067 11.913 12.4 11.913C12.2933 11.913 12.1933 11.9297 12.1 11.963C12.0067 11.9964 11.92 12.053 11.84 12.133L9.76 14.213C9.6 14.373 9.52333 14.5597 9.53 14.773C9.53667 14.9864 9.62 15.173 9.78 15.333C9.94 15.4797 10.1267 15.5564 10.34 15.563C10.5533 15.5697 10.74 15.493 10.9 15.333L11.6 14.633ZM7.6 20.373C7.16 20.373 6.78333 20.2164 6.47 19.903C6.15667 19.5897 6 19.213 6 18.773V5.97305C6 5.53305 6.15667 5.15638 6.47 4.84305C6.78333 4.52971 7.16 4.37305 7.6 4.37305H13.34C13.5533 4.37305 13.7567 4.41305 13.95 4.49305C14.1433 4.57305 14.3133 4.68638 14.46 4.83305L18.34 8.71305C18.4867 8.85971 18.6 9.02971 18.68 9.22305C18.76 9.41638 18.8 9.61971 18.8 9.83305V18.773C18.8 19.213 18.6433 19.5897 18.33 19.903C18.0167 20.2164 17.64 20.373 17.2 20.373H7.6ZM13.2 9.17305C13.2 9.39971 13.2767 9.58971 13.43 9.74305C13.5833 9.89638 13.7733 9.97305 14 9.97305H17.2L13.2 5.97305V9.17305Z" fill="white" fill-opacity="0.84"/>
</svg>
