<svg width="24" height="24" viewBox="0 0 24 24" fill="none" xmlns="http://www.w3.org/2000/svg">
<path d="M8 5.70099V6.44204C8 6.57678 8.10105 6.69467 8.25263 6.69467H9.04421V5.44836H8.25263C8.11789 5.4652 8 5.56625 8 5.70099Z" fill="white" fill-opacity="0.84"/>
<path d="M13.7937 5.4653H10.9305V6.71161H13.7937V5.4653Z" fill="white" fill-opacity="0.84"/>
<path d="M16.4716 5.4653H15.68V6.71161H16.4716C16.6063 6.71161 16.7242 6.59372 16.7242 6.45898V5.71793C16.7242 5.56635 16.6063 5.4653 16.4716 5.4653Z" fill="white" fill-opacity="0.84"/>
<path d="M8 8.6653V9.40635C8 9.54109 8.10105 9.65898 8.25263 9.65898H9.04421V8.41266H8.25263C8.11789 8.41266 8 8.53056 8 8.6653Z" fill="white" fill-opacity="0.84"/>
<path d="M13.7937 8.41266H10.9305V9.65898H13.7937V8.41266Z" fill="white" fill-opacity="0.84"/>
<path d="M16.4716 8.41266H15.68V9.65898H16.4716C16.6063 9.65898 16.7242 9.55793 16.7242 9.40635V8.6653C16.7242 8.53056 16.6063 8.41266 16.4716 8.41266Z" fill="white" fill-opacity="0.84"/>
<path d="M8 11.6294V12.3705C8 12.5052 8.10105 12.6231 8.25263 12.6231H9.04421V11.3768H8.25263C8.11789 11.3768 8 11.4947 8 11.6294Z" fill="white" fill-opacity="0.84"/>
<path d="M13.7937 11.3768H10.9305V12.6231H13.7937V11.3768Z" fill="white" fill-opacity="0.84"/>
<path d="M16.4716 11.3768H15.68V12.6231H16.4716C16.6063 12.6231 16.7242 12.5221 16.7242 12.3705V11.6294C16.7242 11.4947 16.6063 11.3768 16.4716 11.3768Z" fill="white" fill-opacity="0.84"/>
<path d="M8 14.5938V15.3348C8 15.4695 8.10105 15.5874 8.25263 15.5874H9.04421V14.3411H8.25263C8.11789 14.3411 8 14.459 8 14.5938Z" fill="white" fill-opacity="0.84"/>
<path d="M13.7937 14.3411H10.9305V15.5874H13.7937V14.3411Z" fill="white" fill-opacity="0.84"/>
<path d="M16.4716 14.3411H15.68V15.5874H16.4716C16.6063 15.5874 16.7242 15.4695 16.7242 15.3348V14.5938C16.7242 14.459 16.6063 14.3411 16.4716 14.3411Z" fill="white" fill-opacity="0.84"/>
<path d="M8 17.5579V18.2989C8 18.4337 8.10105 18.5516 8.25263 18.5516H9.04421V17.3053H8.25263C8.11789 17.3053 8 17.4063 8 17.5579Z" fill="white" fill-opacity="0.84"/>
<path d="M13.7937 17.3053H10.9305V18.5516H13.7937V17.3053Z" fill="white" fill-opacity="0.84"/>
<path d="M16.4716 17.3053H15.68V18.5516H16.4716C16.6063 18.5516 16.7242 18.4505 16.7242 18.2989V17.5579C16.7242 17.4063 16.6063 17.3053 16.4716 17.3053Z" fill="white" fill-opacity="0.84"/>
<path d="M10.3579 4H9.61684C9.4821 4 9.36421 4.11789 9.36421 4.25263V19.7474C9.36421 19.8821 9.4821 20 9.61684 20H10.3579C10.4926 20 10.6105 19.8821 10.6105 19.7474V4.25263C10.6105 4.11789 10.4926 4 10.3579 4Z" fill="white" fill-opacity="0.84"/>
<path d="M15.1074 4H14.3663C14.2316 4 14.1137 4.11789 14.1137 4.25263V19.7474C14.1137 19.8821 14.2316 20 14.3663 20H15.1074C15.2421 20 15.36 19.8821 15.36 19.7474V4.25263C15.36 4.11789 15.2421 4 15.1074 4Z" fill="white" fill-opacity="0.84"/>
</svg>
