<svg width="24" height="24" viewBox="0 0 24 24" fill="none" xmlns="http://www.w3.org/2000/svg">
<path d="M7.03359 7.02605C9.67673 4.3829 13.9192 4.29873 16.6802 6.75668L16.293 7.14389C16.192 7.2449 16.1583 7.39642 16.192 7.5311C16.2257 7.66579 16.3435 7.7668 16.4782 7.78363L18.2964 8.1035C18.3132 8.1035 18.3469 8.1035 18.3637 8.1035C18.4648 8.1035 18.5658 8.06983 18.6331 7.98566C18.7173 7.90148 18.751 7.7668 18.7341 7.64895L18.4142 5.83074C18.3974 5.69606 18.2964 5.57821 18.1617 5.54454C18.027 5.51087 17.8755 5.54454 17.7745 5.64555L17.3705 6.0496C14.2223 3.2381 9.3737 3.30545 6.34334 6.3358C4.47463 8.20452 3.6497 10.8813 4.13792 13.474C4.18843 13.7097 4.39045 13.878 4.60931 13.878C4.64298 13.878 4.67665 13.878 4.69349 13.8612C4.96285 13.8107 5.1312 13.5581 5.0807 13.2888C4.65982 11.016 5.38373 8.65907 7.03359 7.02605Z" fill="white" fill-opacity="0.84"/>
<path d="M19.8621 10.4941C19.8116 10.2248 19.559 10.0564 19.2897 10.1069C19.0203 10.1574 18.852 10.41 18.9025 10.6793C19.3402 12.9689 18.6163 15.309 16.9664 16.9589C14.3233 19.602 10.0808 19.6862 7.31979 17.2282L7.707 16.841C7.80801 16.74 7.84168 16.5885 7.80801 16.4538C7.75751 16.3191 7.65649 16.2181 7.52181 16.2013L5.72044 15.8814C5.60259 15.8646 5.46791 15.8983 5.38373 15.9824C5.29955 16.0666 5.24905 16.2013 5.28272 16.3191L5.60259 18.1373C5.63626 18.272 5.72044 18.3899 5.85512 18.4235C5.88879 18.4404 5.92246 18.4404 5.97297 18.4404C6.07398 18.4404 6.17499 18.4067 6.24233 18.3225L6.64638 17.9185C8.16155 19.299 10.0808 19.9892 12 19.9892C14.0539 19.9892 16.091 19.2148 17.6567 17.6491C19.5254 15.7804 20.3503 13.1036 19.8621 10.4941Z" fill="white" fill-opacity="0.84"/>
<path d="M11.0835 8.4528C11.0682 8.45835 10.941 8.66256 10.9349 8.69312C10.9272 8.72785 10.9073 8.76258 10.895 8.76258C10.8858 8.76258 10.8827 8.76813 10.8873 8.77369C10.8919 8.78064 10.8705 8.82787 10.8429 8.87927C10.8138 8.93067 10.7893 8.98068 10.7893 8.99179C10.7893 9.00151 10.7801 9.01957 10.7709 9.0293C10.7601 9.03902 10.7494 9.05708 10.7464 9.0668C10.7402 9.09181 10.6314 9.30852 10.6207 9.31824C10.6161 9.32241 10.6115 9.33074 10.61 9.33908C10.6084 9.34602 10.5747 9.41548 10.5349 9.49189C10.495 9.56829 10.4613 9.63358 10.4598 9.63775C10.4475 9.68081 10.4322 9.7072 10.4199 9.7072C10.4107 9.7072 10.4077 9.71276 10.4123 9.71832C10.4169 9.72526 10.4 9.76555 10.3755 9.80861C10.3525 9.85168 10.3249 9.90863 10.3142 9.93642C10.305 9.96281 10.2912 9.98504 10.2851 9.98504C10.2789 9.98504 10.2728 9.99337 10.2728 10.0017C10.2728 10.0281 10.1578 10.2545 10.1379 10.2656C10.1303 10.2712 10.1272 10.2768 10.1333 10.2768C10.1441 10.2768 9.96475 10.6393 9.94789 10.6518C9.94329 10.656 9.93716 10.6685 9.9341 10.6796C9.93103 10.6907 9.90957 10.738 9.88659 10.7838C9.86207 10.8296 9.83908 10.881 9.83295 10.8977C9.82682 10.9158 9.81609 10.9297 9.80996 10.9297C9.80383 10.9297 9.7977 10.938 9.7977 10.9463C9.7977 10.9561 9.76858 11.02 9.7318 11.0894C9.69502 11.1575 9.66437 11.22 9.6613 11.2283C9.65364 11.2547 9.48352 11.5895 9.4728 11.5965C9.4682 11.6006 9.46207 11.6131 9.459 11.6242C9.45594 11.6354 9.43755 11.6756 9.41762 11.7145C9.35326 11.8423 9.33333 11.891 9.33333 11.9299C9.33333 11.9715 9.39464 12.0493 9.42835 12.0507C9.43908 12.0507 9.48659 12.0549 9.53257 12.059C9.57854 12.0646 9.67509 12.0716 9.74712 12.0771C9.81915 12.0827 9.88352 12.0896 9.89118 12.0938C9.89885 12.0979 9.94636 12.1021 9.99846 12.1049C10.049 12.1063 10.1226 12.1118 10.1609 12.1146C10.1992 12.1188 10.2896 12.1257 10.3632 12.1299C10.4368 12.1355 10.5471 12.1452 10.6084 12.1521C10.6697 12.1605 10.7586 12.1688 10.8046 12.1716C10.8843 12.1757 11.0559 12.191 11.1418 12.1994C11.1632 12.2021 11.2092 12.2049 11.246 12.2049C11.295 12.2077 11.3088 12.2119 11.2996 12.2244C11.2935 12.2341 11.2858 12.2535 11.2843 12.2674C11.2812 12.2813 11.272 12.3063 11.2613 12.323C11.2506 12.3397 11.2414 12.3619 11.2398 12.3716C11.2383 12.3827 11.2306 12.4008 11.2245 12.4133C11.2184 12.4258 11.2122 12.4425 11.2092 12.4508C11.2077 12.4577 11.1969 12.4827 11.1862 12.5064C11.177 12.5286 11.1663 12.5564 11.1632 12.5661C11.1617 12.5772 11.154 12.5953 11.1479 12.6078C11.1418 12.6203 11.1356 12.6369 11.1326 12.6453C11.131 12.6522 11.1203 12.6772 11.1096 12.7008C11.1004 12.7231 11.0896 12.7508 11.0866 12.7606C11.085 12.7717 11.0774 12.7897 11.0713 12.8022C11.0651 12.8147 11.059 12.8314 11.0559 12.8398C11.0544 12.8467 11.0467 12.8689 11.0375 12.8884C11.0299 12.9078 11.0222 12.9273 11.0207 12.9328C11.0161 12.9606 10.9517 13.1051 10.9379 13.1204C10.9303 13.1301 10.9272 13.1384 10.9333 13.1384C10.9441 13.1384 10.8827 13.2912 10.8613 13.3148C10.8536 13.3246 10.8506 13.3329 10.8567 13.3329C10.8674 13.3329 10.8061 13.4857 10.7847 13.5093C10.777 13.5191 10.7739 13.5274 10.7801 13.5274C10.7908 13.5274 10.7295 13.6802 10.708 13.7038C10.7004 13.7135 10.6973 13.7219 10.7019 13.7219C10.7111 13.7219 10.6881 13.7872 10.6498 13.8677C10.6283 13.915 10.6299 13.9094 10.6146 13.9677C10.6084 13.9928 10.5962 14.0136 10.5885 14.0136C10.5793 14.0136 10.5762 14.0191 10.5808 14.0247C10.5854 14.0317 10.5778 14.0553 10.5655 14.0775C10.5517 14.0997 10.5425 14.1192 10.5441 14.1219C10.5517 14.1344 10.5241 14.2081 10.5119 14.2081C10.5027 14.2081 10.4996 14.2136 10.5042 14.2192C10.5088 14.2261 10.5011 14.2497 10.4889 14.272C10.4751 14.2942 10.4659 14.3136 10.4674 14.3164C10.4751 14.3289 10.4475 14.4026 10.4352 14.4026C10.426 14.4026 10.423 14.4081 10.4276 14.4137C10.4322 14.4206 10.4245 14.4442 10.4123 14.4665C10.3985 14.4887 10.3893 14.5081 10.3908 14.5109C10.3985 14.5234 10.3709 14.597 10.3586 14.597C10.3494 14.597 10.3464 14.6026 10.351 14.6082C10.3555 14.6151 10.3479 14.6387 10.3356 14.6609C10.3218 14.6832 10.3126 14.7026 10.3142 14.7054C10.3218 14.7179 10.2942 14.7915 10.282 14.7915C10.2728 14.7915 10.2697 14.7971 10.2743 14.8026C10.2789 14.8096 10.2728 14.829 10.2621 14.8485C10.2513 14.8665 10.2421 14.886 10.2421 14.8929C10.2329 14.9457 10.2176 14.986 10.2054 14.986C10.1962 14.986 10.1931 14.9916 10.1977 14.9971C10.2023 15.0041 10.1962 15.0235 10.1854 15.043C10.1747 15.061 10.1655 15.0805 10.1655 15.0874C10.1563 15.1402 10.141 15.1805 10.1287 15.1805C10.1195 15.1805 10.118 15.186 10.1226 15.1944C10.1272 15.2013 10.1226 15.2222 10.1119 15.2388C10.1011 15.2569 10.0919 15.2736 10.0919 15.2777C10.0812 15.3319 10.0644 15.375 10.0536 15.375C10.0475 15.375 10.0429 15.3861 10.046 15.3986C10.049 15.4125 10.0552 15.4458 10.0613 15.4736C10.0705 15.5306 10.1134 15.5556 10.2038 15.5556C10.2513 15.5556 10.2728 15.5458 10.3249 15.4958C10.3785 15.4458 14.5379 10.9227 14.6329 10.813C14.7095 10.7227 14.6498 10.6088 14.5134 10.5921C14.4751 10.5865 13.9923 10.5379 13.4406 10.4837C12.8889 10.4296 12.4337 10.3823 12.4306 10.3809C12.423 10.3726 13.2628 9.14043 13.2735 9.14599C13.2781 9.14876 13.2827 9.14321 13.2827 9.13348C13.2827 9.12376 13.3594 9.0029 13.4528 8.86538C13.626 8.61116 13.6429 8.57087 13.6061 8.50836C13.5678 8.44168 13.6107 8.44446 12.3218 8.44446C11.6521 8.44446 11.0942 8.44863 11.0835 8.4528Z" fill="white" fill-opacity="0.84"/>
</svg>
