<svg width="24" height="24" viewBox="0 0 24 24" fill="none" xmlns="http://www.w3.org/2000/svg">
<path d="M18.6938 11.0522H5.30634C4.585 11.0522 4.00018 11.6554 4.00018 12.4002C4.00018 13.1443 4.58536 13.7475 5.30634 13.7475H18.6938C19.4152 13.7475 20 13.1443 20 12.4002C19.9999 11.6554 19.4151 11.0522 18.6938 11.0522H18.6938ZM5.30634 8.69474H18.6938C19.4152 8.69474 20 8.09109 20 7.34737C20 6.60263 19.4158 6 18.6946 6L5.30616 6.00009C4.58518 6.00009 4 6.60263 4 7.34737C4 8.09109 4.58518 8.69474 5.30616 8.69474L5.30634 8.69474ZM18.6938 16.1046H5.30634C4.585 16.1046 4.00018 16.7079 4.00018 17.4526C4.00018 18.1967 4.58536 18.8 5.30634 18.8H18.6938C19.4152 18.8 20 18.1967 20 17.4526C19.9999 16.7079 19.4151 16.1046 18.6938 16.1046H18.6938Z" fill="white" fill-opacity="0.84"/>
</svg>
