<svg width="24" height="24" viewBox="0 0 24 24" fill="none" xmlns="http://www.w3.org/2000/svg">
<path d="M10.7048 12.2811C10.3151 12.5777 10.2088 13.1309 10.5458 13.486C11.7074 14.7104 13.6425 14.762 14.8679 13.6013L17.8263 10.7991C19.0517 9.63835 19.1033 7.70486 17.9416 6.4805C16.7799 5.25614 14.8448 5.20455 13.6194 6.36526L11.7994 8.08921L13.121 8.56199L14.3117 7.43415C15.0442 6.74031 16.113 6.77115 16.8074 7.50304C17.5018 8.23493 17.471 9.39072 16.7385 10.0846L14.2197 12.4704C13.4872 13.1643 12.3304 13.1334 11.636 12.4015C11.5907 12.3538 11.5252 12.3124 11.4546 12.2724C11.2437 12.1529 10.8976 12.1343 10.7048 12.2811Z" fill="white" fill-opacity="0.84"/>
<path d="M13.0946 11.4529C13.4842 11.1563 13.5905 10.6032 13.2536 10.248C12.0919 9.02366 10.1568 8.97207 8.93138 10.1328L5.97304 12.935C4.74766 14.0957 4.69602 16.0292 5.85771 17.2536C7.01939 18.4779 8.95449 18.5295 10.1799 17.3688L11.9999 15.6448L10.5919 15.1721L9.40127 16.2999C8.66877 16.9938 7.68632 16.9629 6.9919 16.231C6.29747 15.4991 6.32834 14.3433 7.06084 13.6495L9.57961 11.2637C10.3121 10.5698 11.4689 10.6006 12.1633 11.3325C12.2086 11.3803 12.2741 11.4216 12.3447 11.4616C12.5556 11.5811 12.9017 11.5997 13.0946 11.4529Z" fill="white" fill-opacity="0.84"/>
<path d="M20 4.96734C20 5.50159 19.5665 5.93469 19.0318 5.93469C18.4972 5.93469 18.0637 5.50159 18.0637 4.96734C18.0637 4.43309 18.4972 4 19.0318 4C19.5665 4 20 4.43309 20 4.96734Z" fill="white" fill-opacity="0.84"/>
<path d="M5.93631 18.8156C5.93631 19.3499 5.50285 19.783 4.96815 19.783C4.43346 19.783 4 19.3499 4 18.8156C4 18.2814 4.43346 17.8483 4.96815 17.8483C5.50285 17.8483 5.93631 18.2814 5.93631 18.8156Z" fill="white" fill-opacity="0.84"/>
</svg>
