<svg width="24" height="24" viewBox="0 0 24 24" fill="none" xmlns="http://www.w3.org/2000/svg">
<path d="M5.49147 17.9453C4.99633 17.9453 4.60868 17.7791 4.32854 17.4469C4.04839 17.1146 3.94741 16.6553 4.02559 16.0689L4.96375 9.52132C5.06799 8.83073 5.39049 8.23786 5.93124 7.74272C6.47199 7.24757 7.08766 7 7.77825 7H16.2413C16.9319 7 17.5476 7.24757 18.0883 7.74272C18.6291 8.23786 18.9516 8.83073 19.0558 9.52132L19.9744 16.0689C20.0526 16.6553 19.9516 17.1146 19.6715 17.4469C19.3913 17.7791 19.0037 17.9453 18.5085 17.9453C18.2088 17.9453 17.9547 17.8964 17.7463 17.7987C17.5378 17.701 17.3619 17.5804 17.2185 17.4371L15.1859 15.4044H8.81414L6.78145 17.4371C6.63812 17.5804 6.46221 17.701 6.25373 17.7987C6.04525 17.8964 5.79116 17.9453 5.49147 17.9453ZM16.2999 13.2544C16.5084 13.2544 16.6908 13.1763 16.8472 13.0199C17.0036 12.8635 17.0817 12.6811 17.0817 12.4726C17.0817 12.2642 17.0036 12.0817 16.8472 11.9254C16.6908 11.769 16.5084 11.6908 16.2999 11.6908C16.0914 11.6908 15.909 11.769 15.7527 11.9254C15.5963 12.0817 15.5181 12.2642 15.5181 12.4726C15.5181 12.6811 15.5963 12.8635 15.7527 13.0199C15.909 13.1763 16.0914 13.2544 16.2999 13.2544ZM14.6386 10.7136C14.8471 10.7136 15.0295 10.6354 15.1859 10.479C15.3422 10.3227 15.4204 10.1403 15.4204 9.93177C15.4204 9.72329 15.3422 9.54087 15.1859 9.38451C15.0295 9.22815 14.8471 9.14996 14.6386 9.14996C14.4301 9.14996 14.2477 9.22815 14.0913 9.38451C13.935 9.54087 13.8568 9.72329 13.8568 9.93177C13.8568 10.1403 13.935 10.3227 14.0913 10.479C14.2477 10.6354 14.4301 10.7136 14.6386 10.7136ZM8.48188 13.1567H9.45913V11.6908H10.925V10.7136H9.45913V9.24769H8.48188V10.7136H7.01599V11.6908H8.48188V13.1567Z" fill="white" fill-opacity="0.84"/>
</svg>
