<svg width="24" height="24" viewBox="0 0 24 24" fill="none" xmlns="http://www.w3.org/2000/svg">
<path d="M17.6826 4V14.6452L17.6823 14.6412L16.5497 14.641V8.24249C16.5497 8.22607 16.5439 8.21378 16.5385 8.20217L16.5357 8.1963L16.5356 8.1832L16.5354 8.17553C16.5352 8.17178 16.5348 8.16823 16.5342 8.16479C16.5333 8.15972 16.5319 8.15491 16.5298 8.15011C16.5157 8.09814 16.4878 8.05773 16.4538 8.01731C16.4538 8.00966 16.4538 8.00388 16.4479 8.00388L13.5336 5.18956C13.5324 5.18843 13.5311 5.18746 13.5297 5.18662L13.5245 5.18412L13.5178 5.18181C13.5129 5.18027 13.5083 5.17883 13.5056 5.17614C13.4899 5.16442 13.473 5.15414 13.455 5.14514L13.4397 5.13793C13.4288 5.13306 13.4175 5.12863 13.4058 5.1246C13.3973 5.12169 13.3886 5.11901 13.3797 5.11652C13.3598 5.10886 13.3378 5.10309 13.3179 5.10309C13.3091 5.10309 13.3034 5.10084 13.297 5.09915L13.2927 5.09813C13.29 5.09764 13.2872 5.09731 13.2839 5.09731H8.14248V4H17.6826Z" fill="white" fill-opacity="0.84"/>
<path d="M19.7498 14.6449H18.3756V12.2771L19.7498 14.6449Z" fill="white" fill-opacity="0.84"/>
<path d="M13.63 7.90392H15.3658L13.63 6.23298V7.90392Z" fill="white" fill-opacity="0.84"/>
<path fill-rule="evenodd" clip-rule="evenodd" d="M6.31709 14.645V5.76494L12.9369 5.76517V8.23883C12.9369 8.42736 13.0966 8.57372 13.2845 8.57372H15.8572V14.645H6.31709ZM8.48828 13.3474H13.554C13.7479 13.3474 13.9017 13.2011 13.9016 13.0125C13.9016 12.824 13.7479 12.6776 13.554 12.6776H8.48828C8.29268 12.6776 8.14082 12.8257 8.14082 13.0125C8.14082 13.201 8.29443 13.3474 8.48828 13.3474ZM13.9016 11.0469C13.9016 10.8584 13.7479 10.712 13.554 10.712L8.48828 10.7122C8.29268 10.7122 8.14082 10.8603 8.14082 11.0471C8.14082 11.2356 8.29443 11.382 8.48828 11.382L13.554 11.3818C13.7497 11.3818 13.9016 11.2337 13.9016 11.0469Z" fill="white" fill-opacity="0.84"/>
<path d="M5.62393 14.6449V12.2771L4.24971 14.6449H5.62393Z" fill="white" fill-opacity="0.84"/>
<path fill-rule="evenodd" clip-rule="evenodd" d="M19.9999 20H4L4.0001 15.3126H20L19.9999 20ZM14.0273 17.3263H9.97461C9.77891 17.3263 9.62715 17.4725 9.62715 17.6613C9.62715 17.8422 9.78076 17.9962 9.97461 17.9962L14.0273 17.9961C14.223 17.9961 14.3749 17.8422 14.3749 17.6612C14.3749 17.4726 14.2212 17.3263 14.0273 17.3263Z" fill="white" fill-opacity="0.84"/>
</svg>
