<svg width="24" height="24" viewBox="0 0 24 24" fill="none" xmlns="http://www.w3.org/2000/svg">
<path d="M12.5 4C11.0166 4 9.56659 4.43987 8.33323 5.26398C7.09986 6.08809 6.13856 7.25943 5.57091 8.62987C5.00325 10.0003 4.85472 11.5083 5.14411 12.9632C5.4335 14.418 6.14781 15.7544 7.1967 16.8033C8.2456 17.8522 9.58197 18.5665 11.0368 18.8559C12.4917 19.1453 13.9997 18.9968 15.3701 18.4291C16.7406 17.8614 17.9119 16.9001 18.736 15.6668C19.5601 14.4334 20 12.9834 20 11.5C20 10.5151 19.806 9.53981 19.4291 8.62987C19.0522 7.71993 18.4997 6.89314 17.8033 6.1967C17.1069 5.50026 16.2801 4.94781 15.3701 4.5709C14.4602 4.19399 13.4849 4 12.5 4ZM8.8028 16.21C9.1256 15.535 11.0906 14.875 12.5 14.875C13.9094 14.875 15.8822 15.535 16.1978 16.21C15.1464 17.0453 13.8431 17.5 12.5003 17.5C11.1575 17.5 9.85422 17.0453 8.8028 16.21ZM17.27 15.1222C16.1972 13.8172 13.595 13.375 12.5 13.375C11.405 13.375 8.8028 13.8178 7.73 15.1222C7.05151 14.233 6.63508 13.1718 6.52771 12.0585C6.42034 10.9452 6.62631 9.824 7.12237 8.82152C7.61842 7.81904 8.38482 6.97518 9.33505 6.38518C10.2853 5.79519 11.3815 5.48254 12.5 5.48254C13.6185 5.48254 14.7147 5.79519 15.665 6.38518C16.6152 6.97518 17.3816 7.81904 17.8776 8.82152C18.3737 9.824 18.5797 10.9452 18.4723 12.0585C18.3649 13.1718 17.9485 14.233 17.27 15.1222Z" fill="white" fill-opacity="0.84"/>
<path d="M12.5007 6.99928C11.9816 6.99928 11.474 7.15323 11.0424 7.44167C10.6107 7.73011 10.2742 8.14007 10.0755 8.61973C9.87687 9.09939 9.82489 9.62719 9.92617 10.1364C10.0275 10.6456 10.2775 11.1133 10.6446 11.4804C11.0117 11.8475 11.4794 12.0975 11.9886 12.1988C12.4978 12.3001 13.0256 12.2481 13.5053 12.0495C13.9849 11.8508 14.3949 11.5143 14.6833 11.0826C14.9718 10.651 15.1257 10.1434 15.1257 9.62427C15.1266 9.27931 15.0593 8.93757 14.9277 8.6187C14.7961 8.29983 14.6028 8.01011 14.3588 7.76618C14.1149 7.52225 13.8252 7.32893 13.5063 7.19732C13.1874 7.06571 12.8457 6.9984 12.5007 6.99928ZM12.5007 10.7493C12.2782 10.7493 12.0607 10.6833 11.8757 10.5597C11.6907 10.4361 11.5465 10.2604 11.4614 10.0548C11.3762 9.84923 11.3539 9.62303 11.3973 9.4048C11.4408 9.18657 11.5479 8.98611 11.7052 8.82878C11.8626 8.67144 12.063 8.5643 12.2813 8.52089C12.4995 8.47748 12.7257 8.49976 12.9313 8.58491C13.1368 8.67006 13.3125 8.81425 13.4361 8.99926C13.5598 9.18426 13.6257 9.40177 13.6257 9.62427C13.626 9.77208 13.597 9.91848 13.5406 10.0551C13.4841 10.1917 13.4013 10.3158 13.2968 10.4203C13.1922 10.5248 13.0681 10.6077 12.9315 10.6641C12.7949 10.7206 12.6485 10.7495 12.5007 10.7493Z" fill="white" fill-opacity="0.84"/>
</svg>
