<svg width="24" height="24" viewBox="0 0 24 24" fill="none" xmlns="http://www.w3.org/2000/svg">
<path d="M8.58 15.42C8.7 15.54 8.84 15.6 9 15.6C9.16 15.6 9.3 15.54 9.42 15.42L12 12.84L14.6 15.44C14.7067 15.5467 14.8433 15.5967 15.01 15.59C15.1767 15.5833 15.3133 15.5267 15.42 15.42C15.54 15.3 15.6 15.16 15.6 15C15.6 14.84 15.54 14.7 15.42 14.58L12.84 12L15.44 9.4C15.5467 9.29332 15.5967 9.15668 15.59 8.99C15.5833 8.82332 15.5267 8.68668 15.42 8.58C15.3 8.46 15.16 8.4 15 8.4C14.84 8.4 14.7 8.46 14.58 8.58L12 11.16L9.4 8.56C9.29332 8.45332 9.15668 8.40332 8.99 8.41C8.82332 8.41668 8.68668 8.47332 8.58 8.58C8.46 8.7 8.4 8.84 8.4 9C8.4 9.16 8.46 9.3 8.58 9.42L11.16 12L8.56 14.6C8.45332 14.7067 8.40332 14.8433 8.41 15.01C8.41668 15.1767 8.47332 15.3133 8.58 15.42ZM12 20C10.8667 20 9.81332 19.7967 8.84 19.39C7.86668 18.9833 7.02 18.42 6.3 17.7C5.58 16.98 5.01667 16.1333 4.61 15.16C4.20333 14.1867 4 13.1333 4 12C4 10.88 4.20333 9.83332 4.61 8.86C5.01667 7.88668 5.58 7.04 6.3 6.32C7.02 5.6 7.86668 5.03333 8.84 4.62C9.81332 4.20667 10.8667 4 12 4C13.12 4 14.1667 4.20667 15.14 4.62C16.1133 5.03333 16.96 5.6 17.68 6.32C18.4 7.04 18.9667 7.88668 19.38 8.86C19.7933 9.83332 20 10.88 20 12C20 13.1333 19.7933 14.1867 19.38 15.16C18.9667 16.1333 18.4 16.98 17.68 17.7C16.96 18.42 16.1133 18.9833 15.14 19.39C14.1667 19.7967 13.12 20 12 20Z" fill="white" fill-opacity="0.84"/>
</svg>
