<svg width="24" height="24" viewBox="0 0 24 24" fill="none" xmlns="http://www.w3.org/2000/svg">
<path d="M4.23267 17.1058L10.8316 5.67575C11.073 5.25762 11.5191 5 12.002 5C12.4848 5 12.9309 5.25748 13.1725 5.67575L19.819 17.1882C20.0603 17.6063 20.0603 18.1213 19.819 18.5394C19.5776 18.9576 19.1314 19.2152 18.6485 19.2152H5.35523H5.35132C4.60504 19.2152 4 18.6102 4 17.8639C4.00027 17.583 4.08578 17.322 4.23256 17.1059L4.23267 17.1058ZM12.7556 9.93218C12.7556 9.51498 12.4172 9.17701 12.0004 9.17701C11.5833 9.17701 11.2452 9.51501 11.2452 9.93218V14.4361C11.2452 14.8533 11.5835 15.1913 12.0004 15.1913C12.4174 15.1913 12.7556 14.8533 12.7556 14.4361V9.93218ZM11.3188 17.2812C11.4985 17.4608 11.7475 17.5651 12.0004 17.5651C12.2534 17.5651 12.5025 17.4608 12.6838 17.2813C12.8633 17.1017 12.9656 16.8527 12.9656 16.5998C12.9656 16.345 12.8633 16.096 12.6838 15.9164C12.5025 15.7369 12.2551 15.6346 12.0004 15.6346C11.7475 15.6346 11.4985 15.7369 11.3188 15.9164C11.1374 16.096 11.0351 16.345 11.0351 16.5998C11.0351 16.8527 11.1374 17.1017 11.3188 17.2812Z" fill="white" fill-opacity="0.84"/>
</svg>
