<svg width="24" height="24" viewBox="0 0 24 24" fill="none" xmlns="http://www.w3.org/2000/svg">
<path d="M16.601 10.0698C16.601 10.4698 16.8677 10.7365 17.2676 10.7365C17.601 10.7365 17.9343 10.4031 17.9343 10.0698V7.86978C17.9343 7.46979 17.6676 7.20312 17.2676 7.20312C16.8677 7.20312 16.601 7.46979 16.601 7.86978V10.0698Z" fill="white" fill-opacity="0.84"/>
<path d="M14.6002 10.7365C14.2003 10.7365 13.9336 10.4698 13.9336 10.0698V7.86978C13.9336 7.46979 14.2003 7.20312 14.6002 7.20312C15.0002 7.20312 15.267 7.46979 15.267 7.86978V10.0698C15.267 10.4031 15.0002 10.7365 14.6002 10.7365Z" fill="white" fill-opacity="0.84"/>
<path d="M11.3326 10.0698C11.3326 10.4698 11.5994 10.7365 11.9993 10.7365C12.3993 10.7365 12.666 10.4031 12.666 10.0698V7.86978C12.666 7.46979 12.3993 7.20312 11.9993 7.20312C11.5994 7.20312 11.3326 7.46979 11.3326 7.86978V10.0698Z" fill="white" fill-opacity="0.84"/>
<path d="M9.40039 10.7365C9.00049 10.7365 8.73376 10.4698 8.73376 10.0698V7.86978C8.73376 7.46979 9.00049 7.20312 9.40039 7.20312C9.80042 7.20312 10.0671 7.46979 10.0671 7.86978V10.0698C10.0671 10.4031 9.73376 10.7365 9.40039 10.7365Z" fill="white" fill-opacity="0.84"/>
<path d="M6.06641 10.0698C6.06641 10.4698 6.33313 10.7365 6.73303 10.7365C7.13306 10.7365 7.39978 10.4031 7.39978 10.0698V7.86978C7.39978 7.46979 7.13306 7.20312 6.73303 7.20312C6.33313 7.20312 6.06641 7.46979 6.06641 7.86978V10.0698Z" fill="white" fill-opacity="0.84"/>
<path fill-rule="evenodd" clip-rule="evenodd" d="M19.3334 14C19.3171 14 19.301 13.9996 19.2853 13.9987H17.6V15.6653C17.6 16.0653 17.3334 16.332 16.9333 16.332H14.7333V17.7987C14.8 18.1987 14.4667 18.4653 14.1333 18.4653H9.93335C9.53333 18.4653 9.26672 18.1987 9.26672 17.7987V16.332H7.06665C6.66663 16.332 6.40002 16.0653 6.40002 15.6653V13.9987H4.71472L4.69189 13.9997L4.66663 14C4.4635 14 4.2948 13.9312 4.17786 13.8112C4.06458 13.6948 4 13.5302 4 13.3333V5.66666C4 5.26666 4.26672 5 4.66663 5H19.3334C19.7333 5 20 5.26666 20 5.66666V13.3333C20 13.4833 19.9625 13.6146 19.8945 13.7201C19.7812 13.8958 19.5833 14 19.3334 14ZM18.6666 6.33334V12.6653H17C16.6 12.6653 16.3334 12.932 16.3334 13.332V14.9987H14.1333C13.7333 14.9987 13.4667 15.2654 13.4667 15.6653V17.132H10.6V15.6653C10.6 15.2654 10.3334 14.9987 9.93335 14.9987H7.73328V13.332C7.73328 12.932 7.46667 12.6653 7.06665 12.6653H5.33337V6.33334H18.6666Z" fill="white" fill-opacity="0.84"/>
</svg>
