<svg width="24" height="24" viewBox="0 0 24 24" fill="none" xmlns="http://www.w3.org/2000/svg">
<path d="M20 11.104H19.1859V11.5483H17.799C17.6826 10.1598 17.0798 8.85863 16.0991 7.8785C15.1182 6.89836 13.8236 6.30346 12.4475 6.2006V4.81411H12.8955V4C14.7008 4.19763 16.3865 5.00781 17.6769 6.29816C18.9673 7.58849 19.7863 9.28272 20 11.104Z" fill="white" fill-opacity="0.84"/>
<path d="M11.5519 10.5125V7.10316C10.4133 7.20194 9.34481 7.70062 8.53241 8.51249C7.72001 9.32437 7.21493 10.3981 7.10517 11.547H10.5144C10.5838 11.2986 10.7159 11.0726 10.8977 10.8912C11.0797 10.7099 11.3051 10.5793 11.5519 10.5125Z" fill="white" fill-opacity="0.84"/>
<path d="M13.4851 11.547H16.8943C16.7845 10.3981 16.2795 9.32437 15.4671 8.51249C14.6547 7.70062 13.5862 7.20194 12.4475 7.10316V10.5125C12.6958 10.5766 12.9226 10.7061 13.105 10.8879C13.2873 11.0697 13.4185 11.2972 13.4851 11.547Z" fill="white" fill-opacity="0.84"/>
<path d="M16.8943 12.4454C16.7845 13.5944 16.2795 14.6681 15.4671 15.48C14.6547 16.2918 13.5862 16.7905 12.4475 16.8893V13.4835C12.6948 13.4164 12.9206 13.2853 13.1025 13.1033C13.2843 12.9213 13.4163 12.6946 13.4851 12.4454H16.8943Z" fill="white" fill-opacity="0.84"/>
<path d="M11.5519 16.8893V13.4835C11.3047 13.4164 11.079 13.2853 10.897 13.1033C10.7151 12.9213 10.5832 12.6946 10.5144 12.4454H7.10517C7.21483 13.5944 7.71971 14.6683 8.53221 15.4802C9.34461 16.2921 10.4132 16.7907 11.5519 16.8893Z" fill="white" fill-opacity="0.84"/>
<path d="M11.5524 17.7958V19.1743H11.1053V20C9.29891 19.8021 7.61249 18.991 6.32177 17.6994C5.03115 16.4079 4.2125 14.7122 4 12.8898H4.82373V12.4454H6.20009C6.31884 13.8334 6.92235 15.1337 7.90282 16.1138C8.88329 17.0939 10.1768 17.6901 11.5524 17.7958Z" fill="white" fill-opacity="0.84"/>
<path d="M17.6783 17.6991C18.9688 16.4075 19.7873 14.7121 20 12.8898H19.1859V12.4454H17.799C17.6832 13.8344 17.0807 15.1362 16.0999 16.1169C15.119 17.0976 13.824 17.6929 12.4475 17.7958V19.1743H12.8955V20C14.7016 19.8018 16.3878 18.9906 17.6783 17.6991Z" fill="white" fill-opacity="0.84"/>
<path d="M11.5524 6.2006V4.81411H11.1053V4C9.29881 4.19756 7.6122 5.00849 6.32148 6.30014C5.03066 7.59179 4.21221 9.28761 4 11.1102H4.82373V11.5546H6.20009C6.31806 10.1659 6.92118 8.86478 7.90175 7.88395C8.88231 6.90312 10.1763 6.30644 11.5524 6.2006Z" fill="white" fill-opacity="0.84"/>
</svg>
