<svg width="24" height="24" viewBox="0 0 24 24" fill="none" xmlns="http://www.w3.org/2000/svg">
<path d="M7.81814 6.44103C7.81074 6.43535 7.8051 6.42722 7.802 6.41777C7.79889 6.40831 7.79847 6.39801 7.80081 6.38827C7.80226 6.37812 7.80631 6.36867 7.81247 6.36108C7.81863 6.35349 7.82663 6.34809 7.83548 6.34554L8.91078 6.03536C9.13362 5.97219 9.36879 5.99409 9.57939 6.09761L13.859 8.23146L10.7062 9.13565L7.81814 6.44103ZM19.5204 10.3363L8.98622 13.3627C8.55996 13.4835 8.11544 13.4981 7.68367 13.4055L5.47122 12.9207C5.28149 12.8783 5.10618 12.7767 4.96532 12.6274C4.82447 12.4782 4.72376 12.2873 4.6747 12.0766L4 9.09081L4.48916 8.95101C4.49748 8.94896 4.50613 8.94928 4.51431 8.95196C4.5225 8.95463 4.52996 8.95956 4.53601 8.96631L5.71111 10.3089C5.90501 10.529 6.14646 10.6886 6.41173 10.7718C6.677 10.8551 6.95694 10.8592 7.22403 10.7837L16.0902 8.23463C16.6389 8.07646 17.2163 8.09806 17.7545 8.29688L19.5635 8.96789C19.6642 9.00746 19.7548 9.07407 19.8275 9.16194C19.9001 9.24982 19.9527 9.35632 19.9805 9.47221C20.0011 9.56301 20.0054 9.65749 19.9933 9.75019C19.9812 9.84289 19.953 9.93198 19.9102 10.0123C19.8673 10.0927 19.8108 10.1626 19.7438 10.2183C19.6769 10.2739 19.6012 10.314 19.5204 10.3363Z" fill="white" fill-opacity="0.84"/>
<path d="M18.4957 17.2H5.50446C5.43133 17.2 5.3612 17.1673 5.30949 17.1091C5.25778 17.0509 5.22873 16.9719 5.22873 16.8895C5.22873 16.8072 5.25778 16.7282 5.30949 16.67C5.3612 16.6118 5.43133 16.5791 5.50446 16.5791H18.4957C18.5688 16.5791 18.639 16.6118 18.6907 16.67C18.7424 16.7282 18.7714 16.8072 18.7714 16.8895C18.7714 16.9719 18.7424 17.0509 18.6907 17.1091C18.639 17.1673 18.5688 17.2 18.4957 17.2Z" fill="white" fill-opacity="0.84"/>
</svg>
