<svg width="24" height="24" viewBox="0 0 24 24" fill="none" xmlns="http://www.w3.org/2000/svg">
<path d="M9.64157 16.2586C9.64138 15.8189 9.64087 15.2057 9.63987 14.3519C9.67337 14.3519 9.69229 14.3553 9.70139 14.357C9.70578 14.3578 9.70823 14.3575 9.70823 14.3575C9.70823 14.3575 9.7074 14.3556 9.70517 14.3529C9.69174 14.3366 9.63953 14.2732 9.63953 14.0637C9.63953 13.4657 11.3236 13.336 11.9287 13.336C12.2574 13.336 12.2574 13.0124 12.2574 12.8676L12.2575 11.6716C12.2575 11.6716 12.2904 11.2203 11.6029 11.0736H8.88097L8.16599 11.6103V11.6489L6.12637 12.5893C5.72816 12.773 5.44263 13.1376 5.36028 13.5683L5 15.3972C5 15.3972 5.29376 16.1404 9.64157 16.2586Z" fill="white" fill-opacity="0.84"/>
<path d="M9.01066 9.32579C9.20256 9.27995 9.42979 9.27995 9.63987 9.27995L12.6204 9.2798C12.7477 9.06137 12.8617 8.83529 12.9615 8.60284C13.2992 8.3812 13.5125 8.01335 13.5372 7.61022C13.5553 7.09342 13.383 6.96885 13.2289 6.96667C13.2675 6.60639 13.4556 4 10.797 4C7.94372 4 8.34939 7.00742 8.34939 7.00742C8.19984 7.0256 8.04112 7.13658 8.0661 7.61022C8.0944 8.01224 8.30703 8.37851 8.64187 8.60284C8.74908 8.85163 8.87226 9.09311 9.01066 9.32579Z" fill="white" fill-opacity="0.84"/>
<path d="M19.0783 9.57498C19.305 9.57498 19.4888 9.75875 19.4888 9.98545C19.4888 10.2121 19.305 10.3959 19.0783 10.3959L9.38409 10.3959C9.1574 10.3959 8.97362 10.2121 8.97362 9.98545C8.97362 9.75875 9.1574 9.57498 9.38409 9.57498H19.0783Z" fill="white" fill-opacity="0.84"/>
<path fill-rule="evenodd" clip-rule="evenodd" d="M10.2889 15.1033C10.2889 14.541 10.7447 14.0852 11.307 14.0852H12.9176V11.7848C12.9176 11.2404 13.359 10.799 13.9034 10.799C14.4479 10.799 14.8892 11.2404 14.8892 11.7848V14.0852H16.5C17.0623 14.0852 17.5181 14.541 17.5181 15.1033V18.9819C17.5181 19.5442 17.0623 20 16.5 20H11.307C10.7447 20 10.2889 19.5442 10.2889 18.9819V15.1033ZM13.8889 18.6667C14.8707 18.6667 15.6667 17.8708 15.6667 16.8889C15.6667 15.9071 14.8707 15.1111 13.8889 15.1111C12.9071 15.1111 12.1111 15.9071 12.1111 16.8889C12.1111 17.8708 12.9071 18.6667 13.8889 18.6667Z" fill="white" fill-opacity="0.84"/>
</svg>
