<svg width="24" height="24" viewBox="0 0 24 24" fill="none" xmlns="http://www.w3.org/2000/svg">
<path fill-rule="evenodd" clip-rule="evenodd" d="M16.3274 17.6721C15.6011 17.6721 14.891 17.46 14.287 17.0627C13.6831 16.6655 13.2123 16.1008 12.9344 15.4401C12.6564 14.7794 12.5837 14.0524 12.7254 13.351C12.8671 12.6497 13.2169 12.0054 13.7305 11.4998C14.2441 10.9941 14.8985 10.6497 15.611 10.5102C16.3234 10.3707 17.0617 10.4423 17.7328 10.716C18.4039 10.9896 18.9775 11.4531 19.3811 12.0477C19.7846 12.6423 20 13.3413 20 14.0564C20 15.0154 19.6131 15.935 18.9243 16.6131C18.2356 17.2912 17.3015 17.6721 16.3274 17.6721ZM16.3274 11.0431C15.7221 11.0431 15.1302 11.2198 14.6269 11.5509C14.1236 11.882 13.7313 12.3526 13.4996 12.9033C13.268 13.4539 13.2073 14.0598 13.3254 14.6443C13.4435 15.2288 13.735 15.7658 14.1631 16.1872C14.5911 16.6086 15.1366 16.8956 15.7303 17.0119C16.324 17.1282 16.9394 17.0685 17.4987 16.8404C18.058 16.6123 18.536 16.2261 18.8723 15.7306C19.2087 15.235 19.3882 14.6524 19.3882 14.0564C19.3882 13.2572 19.0657 12.4908 18.4917 11.9257C17.9177 11.3605 17.1392 11.0431 16.3274 11.0431ZM17.0097 15.1701L16.113 14.2843C16.0817 14.2541 16.0574 14.2177 16.0415 14.1774C16.0257 14.1372 16.0188 14.0941 16.0212 14.051V12.5486C16.0212 12.4686 16.0535 12.3919 16.1109 12.3354C16.1683 12.2789 16.2462 12.2471 16.3274 12.2471C16.4087 12.2471 16.4865 12.2789 16.5439 12.3354C16.6013 12.3919 16.6336 12.4686 16.6336 12.5486V13.9141L17.4598 14.7275C17.4912 14.7562 17.5165 14.7908 17.534 14.8293C17.5515 14.8678 17.5609 14.9094 17.5617 14.9515C17.5625 14.9937 17.5546 15.0356 17.5386 15.0747C17.5226 15.1138 17.4987 15.1493 17.4684 15.1791C17.4381 15.2089 17.402 15.2324 17.3622 15.2481C17.3225 15.2639 17.28 15.2716 17.2371 15.2707C17.1943 15.2699 17.1521 15.2605 17.113 15.2433C17.0739 15.226 17.0387 15.2011 17.0097 15.1701Z" fill="white" fill-opacity="0.84"/>
<path d="M14.8747 9.00739C14.7463 7.46589 13.4626 6.05762 11.7086 6.05762C10.3639 6.05762 9.34891 6.84419 8.87692 7.78818C7.61841 7.15895 5.88782 7.94556 5.88782 9.83338C4.7718 10.0206 4 11.0973 4 12.1932C4 13.5036 5.07467 14.553 6.67443 14.553H11.887C11.8532 14.338 11.8357 14.1176 11.8357 13.8932C11.8357 11.5735 13.7076 9.69112 16.0233 9.67415C15.7027 9.36836 15.3106 9.1369 14.8747 9.00739Z" fill="white" fill-opacity="0.84"/>
</svg>
