<svg width="24" height="24" viewBox="0 0 24 24" fill="none" xmlns="http://www.w3.org/2000/svg">
<path d="M13.2291 12.84C12.9802 12.84 12.7846 13.0355 12.7846 13.2844V15.8089C12.7846 16.0578 12.9802 16.2533 13.2291 16.2533H13.7624L12.0024 18.2444L10.2424 16.2533H10.7757C11.0246 16.2533 11.2202 16.0578 11.2202 15.8089V14.2622C11.2202 14.0133 11.0246 13.8178 10.7757 13.8178C10.5268 13.8178 10.3313 14.0133 10.3313 14.2622V15.3644H9.26461C9.08683 15.3644 8.92683 15.4711 8.85572 15.6311C8.78461 15.7911 8.82017 15.9689 8.92683 16.1111L11.6646 19.2222C11.8246 19.4178 12.1624 19.4178 12.3402 19.2222L15.0779 16.1111C15.1846 15.9866 15.2202 15.7911 15.1491 15.6311C15.0779 15.4711 14.9179 15.3644 14.7402 15.3644H13.6735V13.2844C13.6735 13.0355 13.4779 12.84 13.2291 12.84Z" fill="white" fill-opacity="0.84"/>
<path d="M10.7745 9.80214C10.5256 9.80214 10.3301 9.99769 10.3301 10.2466V10.6555C10.3301 10.9044 10.5256 11.0999 10.7745 11.0999C11.0234 11.0999 11.219 10.9044 11.219 10.6555V10.2466C11.219 9.99769 11.0234 9.80214 10.7745 9.80214Z" fill="white" fill-opacity="0.84"/>
<path d="M10.7745 11.6309C10.5256 11.6309 10.3301 11.8265 10.3301 12.0754V12.8932C10.3301 13.1421 10.5256 13.3376 10.7745 13.3376C11.0234 13.3376 11.219 13.1421 11.219 12.8932V12.0754C11.219 11.8265 11.0234 11.6309 10.7745 11.6309Z" fill="white" fill-opacity="0.84"/>
<path d="M13.2264 11.1862C12.9775 11.1862 12.782 11.3817 12.782 11.6306V11.9151C12.782 12.1639 12.9775 12.3595 13.2264 12.3595C13.4753 12.3595 13.6709 12.1639 13.6709 11.9151V11.6306C13.6709 11.3817 13.4753 11.1862 13.2264 11.1862Z" fill="white" fill-opacity="0.84"/>
<path d="M17.1378 14.7244H16.64C16.3911 14.7244 16.1956 14.5289 16.1956 14.28C16.1956 14.0311 16.3911 13.8356 16.64 13.8356H17.1378C18.2222 13.8356 19.1111 12.9467 19.1111 11.8622C19.1111 10.8489 18.3644 10.0133 17.3511 9.90667C17.2267 9.88889 17.12 9.83556 17.0489 9.72889C16.9778 9.64 16.9422 9.51556 16.96 9.39111C16.9778 9.23111 16.9956 9.08889 16.9956 8.92889C16.9956 7.25778 15.6267 5.88889 13.9556 5.88889C12.7644 5.88889 11.68 6.58222 11.2 7.66667C11.1111 7.86222 10.88 7.96889 10.6667 7.91556C10.4533 7.84444 10.2044 7.80889 9.97333 7.80889C8.88889 7.80889 7.92889 8.53778 7.64444 9.58667C7.59111 9.8 7.37778 9.94222 7.14667 9.90667C7.05778 9.88889 6.95111 9.88889 6.86222 9.88889C5.77778 9.88889 4.88889 10.7778 4.88889 11.8622C4.88889 12.9467 5.77778 13.8356 6.86222 13.8356H7.36C7.60889 13.8356 7.80444 14.0311 7.80444 14.28C7.80444 14.5289 7.60889 14.7244 7.36 14.7244H6.86222C5.28 14.7244 4 13.4267 4 11.8622C4 10.28 5.28 9 6.86222 9C6.88 9 6.89778 9 6.91556 9C7.41333 7.75556 8.62222 6.92 9.99111 6.92C10.1867 6.92 10.3822 6.93778 10.5778 6.97333C11.2533 5.76444 12.5511 5 13.9733 5C16.1422 5 17.9022 6.76 17.9022 8.92889C17.9022 8.98222 17.9022 9.05333 17.9022 9.10667C19.1111 9.42667 20 10.5467 20 11.8622C20 13.4267 18.72 14.7244 17.1378 14.7244Z" fill="white" fill-opacity="0.84"/>
</svg>
