<svg width="24" height="24" viewBox="0 0 24 24" fill="none" xmlns="http://www.w3.org/2000/svg">
<path d="M14.5036 12.475L13.6309 9.34253L20 12.2467L13.6309 15.1543L14.5036 12.475Z" fill="white" fill-opacity="0.84"/>
<path d="M12.4921 10.2754L10.2829 10.2754C10.2035 10.277 10.1245 10.2621 10.0505 10.2313C9.97664 10.2005 9.90926 10.1544 9.85235 10.0959C9.79543 10.0374 9.75016 9.96749 9.71906 9.89036C9.68796 9.81313 9.67169 9.73021 9.67123 9.64628C9.67139 9.47507 9.73584 9.31086 9.8505 9.18968C9.96516 9.06861 10.1207 9.0003 10.2829 9L12.4921 9C12.6519 9.00386 12.8038 9.07368 12.9152 9.19455C13.0266 9.31543 13.0887 9.47761 13.088 9.64628C13.0881 9.72889 13.0728 9.8108 13.0429 9.88712C13.0293 9.92172 13.0129 9.95481 12.9939 9.98617C12.9709 10.024 12.944 10.0593 12.9137 10.0913C12.8584 10.1498 12.7926 10.196 12.7203 10.2276C12.6479 10.2593 12.5704 10.2754 12.4921 10.2754Z" fill="white" fill-opacity="0.84"/>
<path d="M11.2071 12.8872L6.57598 12.8872C6.49652 12.889 6.41757 12.874 6.34363 12.8433C6.26969 12.8125 6.20229 12.7665 6.14536 12.7079C6.08843 12.6493 6.04306 12.5795 6.012 12.5023C5.98092 12.4251 5.9647 12.342 5.96431 12.2581C5.96447 12.0869 6.029 11.9227 6.14366 11.8015C6.25831 11.6804 6.41375 11.6121 6.57598 11.6118L11.2071 11.6118C11.3668 11.6157 11.5188 11.6855 11.6302 11.8064C11.7416 11.9272 11.8037 12.0894 11.803 12.2581C11.8031 12.3407 11.7877 12.4226 11.7578 12.4989C11.7279 12.5754 11.684 12.6447 11.6286 12.7031C11.5733 12.7616 11.5076 12.8079 11.4353 12.8394C11.3629 12.8711 11.2854 12.8872 11.2071 12.8872Z" fill="white" fill-opacity="0.84"/>
<path d="M10.2829 15.3982L12.4921 15.3982C12.5704 15.3982 12.6479 15.382 12.7203 15.3504C12.7926 15.3188 12.8584 15.2725 12.9137 15.2141C12.9691 15.1556 13.013 15.0863 13.0429 15.0099C13.0728 14.9336 13.0881 14.8517 13.088 14.769C13.0887 14.6004 13.0266 14.4382 12.9152 14.3173C12.8038 14.1964 12.6519 14.1266 12.4921 14.1228L10.2829 14.1228C10.1207 14.1231 9.96516 14.1914 9.8505 14.3124C9.73584 14.4336 9.67139 14.5978 9.67123 14.769C9.67169 14.853 9.68796 14.9359 9.71906 15.0131C9.75016 15.0903 9.79543 15.1602 9.85235 15.2186C9.87461 15.2416 9.89846 15.2626 9.92369 15.2815C9.96296 15.3109 10.0055 15.3352 10.0505 15.354C10.1245 15.3849 10.2035 15.3998 10.2829 15.3982Z" fill="white" fill-opacity="0.84"/>
<path d="M8.23863 10.2798C8.5731 10.2798 8.84424 9.99358 8.84424 9.6405C8.84424 9.28742 8.5731 9.00122 8.23863 9.00122C7.90416 9.00122 7.63302 9.28742 7.63302 9.6405C7.63302 9.99358 7.90416 10.2798 8.23863 10.2798Z" fill="white" fill-opacity="0.84"/>
<path d="M5.21121 12.2004C5.21121 12.5534 4.94007 12.8396 4.6056 12.8396C4.27114 12.8396 4 12.5534 4 12.2004C4 11.8473 4.27114 11.5611 4.60561 11.5611C4.94007 11.5611 5.21121 11.8473 5.21121 12.2004Z" fill="white" fill-opacity="0.84"/>
<path d="M8.23863 15.4C8.5731 15.4 8.84424 15.1138 8.84424 14.7607C8.84424 14.4076 8.5731 14.1214 8.23863 14.1214C7.90416 14.1214 7.63302 14.4076 7.63302 14.7607C7.63302 15.1138 7.90416 15.4 8.23863 15.4Z" fill="white" fill-opacity="0.84"/>
</svg>
