<svg width="24" height="24" viewBox="0 0 24 24" fill="none" xmlns="http://www.w3.org/2000/svg">
<path d="M11.5494 8.02658C9.703 8.23706 8.19365 9.72637 7.96886 11.588C7.77622 13.2068 8.53089 14.6799 9.73511 15.5055C10.0562 15.716 10.249 16.0722 10.249 16.4606L10.2487 16.8006H13.733V16.4769C13.733 16.1046 13.9096 15.7322 14.2307 15.5218C15.3386 14.7934 16.0611 13.5307 16.0611 12.0899C16.0772 9.67783 14.0061 7.75138 11.5494 8.02658Z" fill="white" fill-opacity="0.84"/>
<path d="M10.3731 18.8C10.3731 18.9928 10.4327 19.1642 10.5371 19.2928L10.999 19.8499C11.0736 19.9356 11.1778 20 11.2822 20H12.7129C12.8173 20 12.9216 19.9571 12.9961 19.8499L13.4581 19.2928C13.5625 19.1642 13.622 18.9928 13.622 18.8V17.5999H10.3732L10.3731 18.8Z" fill="white" fill-opacity="0.84"/>
<path d="M12 6.40005C12.2227 6.40005 12.4061 6.17148 12.4061 5.89395V4.5061C12.4061 4.22856 12.2227 4 12 4C11.7773 4 11.5939 4.22857 11.5939 4.5061V5.87753C11.5939 6.17148 11.7642 6.40005 12 6.40005Z" fill="white" fill-opacity="0.84"/>
<path d="M4.96865 8.89454L6.28877 9.53912C6.37922 9.58515 6.46966 9.60046 6.55998 9.60046C6.75891 9.60046 6.93982 9.5084 7.04829 9.35488C7.21102 9.12472 7.10253 8.83311 6.84936 8.7103L5.52924 8.06583C5.25803 7.92773 4.91441 8.01979 4.7697 8.23465C4.60697 8.46482 4.69744 8.75644 4.96865 8.89454Z" fill="white" fill-opacity="0.84"/>
<path d="M17.4421 9.60046C17.5324 9.60046 17.6407 9.58504 17.7129 9.53866L19.0309 8.88923C19.3016 8.75009 19.3919 8.45628 19.2295 8.2398C19.067 8.00791 18.7239 7.93058 18.4712 8.06971L17.1532 8.71914C16.8824 8.85828 16.7921 9.15209 16.9546 9.36856C17.0629 9.52313 17.2435 9.60046 17.4421 9.60046Z" fill="white" fill-opacity="0.84"/>
<path d="M4.39206 13.473L5.79792 13.1042C6.0884 13.0223 6.37863 13.2046 6.44956 13.4699C6.53266 13.756 6.3476 14.0419 6.07822 14.1118L4.67236 14.4806C4.57549 14.5079 4.48758 14.5022 4.40424 14.4802C4.22068 14.4318 4.08059 14.2891 4.02522 14.0983C3.93317 13.8451 4.10157 13.5548 4.39206 13.473Z" fill="white" fill-opacity="0.84"/>
<path d="M19.6079 13.473L18.2021 13.1042C17.9116 13.0223 17.6213 13.2046 17.5504 13.4699C17.4673 13.756 17.6524 14.0419 17.9218 14.1118L19.3276 14.4806C19.4245 14.5079 19.5124 14.5022 19.5957 14.4802C19.7793 14.4318 19.9194 14.2891 19.9748 14.0983C20.0668 13.8451 19.8984 13.5548 19.6079 13.473Z" fill="white" fill-opacity="0.84"/>
</svg>
