<svg width="24" height="24" viewBox="0 0 24 24" fill="none" xmlns="http://www.w3.org/2000/svg">
<path fill-rule="evenodd" clip-rule="evenodd" d="M15.9509 12.0121V5.4684C15.9454 5.08062 15.7845 4.71023 15.5025 4.436C15.2204 4.16177 14.8394 4.00535 14.4406 4H6.51033C6.1115 4.00535 5.73049 4.16177 5.44849 4.436C5.16639 4.71023 5.0055 5.08062 5 5.4684V15.2588C5.0055 15.6465 5.16639 16.0169 5.44849 16.2912C5.73049 16.5654 6.1115 16.7218 6.51033 16.7271H11.0785C11.0682 16.6073 11.0629 16.486 11.0629 16.3636C11.0629 16.2362 11.0693 16.11 11.0805 15.9853C11.1563 15.1382 11.4844 14.3602 11.9922 13.7208H6.80047V12.8193H12.9579C13.6998 12.3071 14.6091 12.004 15.592 12.0001L15.6103 12C15.7249 12 15.8384 12.0041 15.9509 12.0121ZM6.80047 6.50415H10.2369V7.40566H6.80047V6.50415ZM14.0969 8.609H6.80047V9.51051H14.0969V8.609ZM6.80047 10.7139H14.0969V11.6154H6.80047V10.7139Z" fill="white" fill-opacity="0.84"/>
<path fill-rule="evenodd" clip-rule="evenodd" d="M12.9309 13.7924C13.6417 13.1104 14.6055 12.7273 15.6105 12.7273C16.2757 12.7273 16.9292 12.8953 17.5052 13.2145C18.0813 13.5336 18.5597 13.9926 18.8923 14.5455C19.2249 15.0983 19.4 15.7253 19.4 16.3636C19.4 17.328 19.0008 18.2529 18.29 18.9349C17.5794 19.6169 16.6154 20 15.6105 20C14.6056 20 13.6417 19.6169 12.9309 18.9349C12.2203 18.2529 11.8211 17.328 11.8211 16.3636C11.8211 15.3993 12.2203 14.4744 12.9309 13.7924ZM16.8128 17.6366C16.8394 17.6242 16.864 17.6075 16.8854 17.5871C16.9358 17.5384 16.9642 17.4726 16.9642 17.404C16.9642 17.3354 16.9358 17.2695 16.8854 17.2209L15.8812 16.2572V14.8053C15.8812 14.7125 15.8296 14.6267 15.7458 14.5803C15.6621 14.534 15.5589 14.534 15.4751 14.5803C15.3915 14.6267 15.3399 14.7125 15.3399 14.8053V16.3637C15.3402 16.4331 15.3694 16.4996 15.4211 16.5482L16.5038 17.5871C16.5336 17.6156 16.5696 17.6367 16.6088 17.6493C16.6362 17.6581 16.6651 17.6627 16.6945 17.6627C16.7358 17.6627 16.7762 17.6536 16.8128 17.6366Z" fill="white" fill-opacity="0.84"/>
</svg>
