<svg width="24" height="24" viewBox="0 0 24 24" fill="none" xmlns="http://www.w3.org/2000/svg">
<path fill-rule="evenodd" clip-rule="evenodd" d="M11.825 12.48V10.7742C13.6444 10.6174 15.0751 9.16264 15.0751 7.3948C15.0751 5.52287 13.4714 4 11.5001 4C9.5288 4 7.9251 5.52287 7.9251 7.3948C7.9251 9.16275 9.35571 10.6176 11.1751 10.7742V12.4799C8.62797 12.5862 6.30642 13.9338 5.04912 16.0564C4.98362 16.1668 4.98372 16.3018 5.04901 16.4123C6.35842 18.6268 8.8258 19.999 11.5003 20C14.1739 19.9991 16.6412 18.6276 17.951 16.4143C18.0164 16.3038 18.0164 16.1689 17.951 16.0585C16.6943 13.935 14.3723 12.5871 11.825 12.48ZM11.1751 13.2068C8.97526 13.3089 6.96892 14.4423 5.82491 16.2346C7.02411 18.1166 9.17354 19.273 11.5006 19.2738C13.8266 19.2727 15.9752 18.1175 17.1746 16.2366C16.0315 14.4435 14.0253 13.3096 11.825 13.2069V14.057C12.948 14.2081 13.818 15.1299 13.818 16.2366C13.818 17.4479 12.7756 18.4377 11.5 18.4377C10.2243 18.4377 9.18191 17.4479 9.18191 16.2366C9.18191 15.1298 10.052 14.208 11.1751 14.057V13.2068ZM11.1751 14.7933C10.4704 14.9339 9.94671 15.5234 9.94671 16.2365C9.94671 17.0553 10.6376 17.7114 11.5 17.7114C12.3623 17.7114 13.0532 17.0553 13.0532 16.2365C13.0532 15.5235 12.5296 14.934 11.825 14.7934V16.0361C11.825 16.2065 11.6794 16.3447 11.5001 16.3447C11.3206 16.3447 11.1751 16.2064 11.1751 16.0361V14.7933Z" fill="white" fill-opacity="0.84"/>
</svg>
