<svg width="24" height="24" viewBox="0 0 24 24" fill="none" xmlns="http://www.w3.org/2000/svg">
<path d="M10.6603 13.5166L10.6102 11.4512H11.186C11.6116 11.4512 11.9997 11.4137 12.3501 11.3386C12.7006 11.2635 12.9802 11.1174 13.1888 10.9005C13.3974 10.6835 13.5017 10.3664 13.5017 9.94914C13.5017 9.54859 13.3807 9.23565 13.1387 9.01034C12.8967 8.77668 12.5755 8.65985 12.1749 8.65985C11.7577 8.65985 11.4322 8.77668 11.1985 9.01034C10.9649 9.23565 10.8481 9.54441 10.8481 9.93662H9.33345C9.32511 9.43593 9.43359 8.98948 9.65891 8.59726C9.88422 8.20505 10.2097 7.89629 10.6353 7.67098C11.0692 7.44566 11.5866 7.33301 12.1874 7.33301C12.7465 7.33301 13.2389 7.43732 13.6645 7.64594C14.0984 7.85457 14.4364 8.15498 14.6784 8.54719C14.9287 8.93106 15.0539 9.40255 15.0539 9.96166C15.0539 10.5375 14.9246 11.0131 14.6659 11.3886C14.4155 11.7642 14.0692 12.0437 13.6269 12.2273C13.193 12.4109 12.6881 12.5069 12.1123 12.5152L12.0748 13.5166H10.6603ZM11.3738 16.333C11.0817 16.333 10.8397 16.2412 10.6478 16.0576C10.4642 15.874 10.3724 15.6529 10.3724 15.3942C10.3724 15.1272 10.4642 14.9019 10.6478 14.7183C10.8397 14.5347 11.0817 14.4429 11.3738 14.4429C11.6659 14.4429 11.9037 14.5347 12.0873 14.7183C12.2709 14.9019 12.3627 15.1272 12.3627 15.3942C12.3627 15.6529 12.2709 15.874 12.0873 16.0576C11.9037 16.2412 11.6659 16.333 11.3738 16.333Z" fill="white" fill-opacity="0.84"/>
<path d="M12 4.5C16.1421 4.5 19.5 7.85786 19.5 12C19.5 16.1421 16.1421 19.5 12 19.5C7.85786 19.5 4.5 16.1421 4.5 12C4.5 7.85786 7.85786 4.5 12 4.5Z" stroke="white" stroke-opacity="0.84"/>
</svg>
