<svg width="24" height="24" viewBox="0 0 24 24" fill="none" xmlns="http://www.w3.org/2000/svg">
<path d="M15.4568 6.86124C14.4336 6.17754 13.2306 5.81261 12 5.81261C10.3497 5.81261 8.76707 6.46816 7.60018 7.63506C6.43329 8.80195 5.77773 10.3846 5.77773 12.0348C5.77773 13.2655 6.14266 14.4685 6.82637 15.4917C7.51007 16.5149 8.48185 17.3125 9.61881 17.7834C10.7558 18.2544 12.0069 18.3776 13.2139 18.1375C14.4208 17.8974 15.5295 17.3048 16.3997 16.4346C17.2699 15.5644 17.8625 14.4557 18.1026 13.2487C18.3427 12.0417 18.2195 10.7907 17.7485 9.65369C17.2776 8.51673 16.4801 7.54495 15.4568 6.86124Z" fill="white" fill-opacity="0.84"/>
<path fill-rule="evenodd" clip-rule="evenodd" d="M12 20C16.4183 20 20 16.4183 20 12C20 7.58172 16.4183 4 12 4C7.58172 4 4 7.58172 4 12C4 16.4183 7.58172 20 12 20ZM18.8 12C18.8 15.7555 15.7555 18.8 12 18.8C8.24446 18.8 5.2 15.7555 5.2 12C5.2 8.24446 8.24446 5.2 12 5.2C15.7555 5.2 18.8 8.24446 18.8 12Z" fill="white" fill-opacity="0.84"/>
<path d="M12.6667 17C12.0289 17 11.4261 16.8688 10.8583 16.6062C10.2906 16.3438 9.79472 15.9854 9.37083 15.5312C8.94694 15.0771 8.6125 14.5458 8.3675 13.9375C8.1225 13.3292 8 12.6833 8 12C8 11.3083 8.1225 10.6604 8.3675 10.0563C8.6125 9.45208 8.94694 8.92292 9.37083 8.46875C9.79472 8.01458 10.2906 7.65625 10.8583 7.39375C11.4261 7.13125 12.0289 7 12.6667 7C13.0867 7 13.495 7.05833 13.8917 7.175C14.2883 7.29167 14.6578 7.45833 15 7.675C14.2922 8.11667 13.7264 8.71458 13.3025 9.46875C12.8786 10.2229 12.6667 11.0667 12.6667 12C12.6667 12.9333 12.8786 13.7771 13.3025 14.5312C13.7264 15.2854 14.2922 15.8833 15 16.325C14.6578 16.5417 14.2883 16.7083 13.8917 16.825C13.495 16.9417 13.0867 17 12.6667 17Z" fill="#2C2C2C"/>
</svg>
