<svg width="24" height="24" viewBox="0 0 24 24" fill="none" xmlns="http://www.w3.org/2000/svg">
<path d="M11.9994 19.9999C9.95474 20.0054 7.9858 19.2269 6.49776 17.8247C5.00973 16.4225 4.11581 14.5032 4 12.4619H7.01575C7.10353 12.4621 7.18989 12.4398 7.26658 12.3971C7.34327 12.3543 7.40774 12.2926 7.45374 12.2179L8.76561 9.98206L10.9054 17.2755C10.9375 17.3779 11.0025 17.4668 11.0905 17.5283C11.1784 17.5898 11.2842 17.6205 11.3914 17.6154C11.5059 17.62 11.6182 17.5831 11.7078 17.5116C11.7974 17.4401 11.8583 17.3388 11.8794 17.2261L13.2879 11.4899L13.4819 12.0739C13.5144 12.1763 13.5798 12.2651 13.6679 12.3265C13.7557 12.3885 13.8618 12.4192 13.9692 12.4139H19.9987C19.9102 14.3958 19.077 16.2713 17.6656 17.6654C16.9223 18.4098 16.0388 18.9994 15.0662 19.4001C14.0937 19.8008 13.0512 20.0047 11.9994 19.9999ZM11.3421 15.1863L9.39955 8.57217C9.37252 8.47623 9.31549 8.39147 9.2368 8.33029C9.15811 8.26911 9.06189 8.23474 8.96225 8.2322C8.92968 8.22328 8.89604 8.21901 8.86228 8.21954C8.78061 8.22149 8.70116 8.2464 8.63301 8.29144C8.56486 8.33648 8.51078 8.39982 8.47697 8.47419L6.77643 11.4399H4.05C4.15371 9.51435 4.96709 7.69544 6.33314 6.33436C7.83989 4.83908 9.87659 4 11.9994 4C14.1221 4 16.1588 4.83908 17.6656 6.33436C19.0252 7.70497 19.8523 9.51493 19.9987 11.4399H14.3098L13.6779 9.50144C13.6505 9.40778 13.5954 9.32459 13.5199 9.26279C13.444 9.20041 13.3511 9.16231 13.2532 9.15346C13.2308 9.15322 13.2084 9.15591 13.1866 9.16146C13.0724 9.15655 12.9603 9.19312 12.8709 9.26444C12.7816 9.33575 12.7211 9.43698 12.7006 9.54943L11.3394 15.1796L11.3421 15.1863Z" fill="white" fill-opacity="0.84"/>
</svg>
