<svg width="24" height="24" viewBox="0 0 24 24" fill="none" xmlns="http://www.w3.org/2000/svg">
<path d="M13.6408 4.56544L16.484 7.53688H14.7903C14.4857 7.53588 14.1938 7.40885 13.9784 7.18357C13.7631 6.95815 13.6417 6.65269 13.6408 6.33387L13.6408 4.56544Z" fill="white" fill-opacity="0.84"/>
<path fill-rule="evenodd" clip-rule="evenodd" d="M17.0205 18.797C17.0195 19.1158 16.8981 19.4212 16.6829 19.6467C16.4675 19.872 16.1756 19.999 15.8709 20H7.14956C6.84493 19.999 6.55304 19.872 6.33761 19.6467C6.12235 19.4213 6.00096 19.1158 6 18.797V5.20302C6.00096 4.88422 6.12235 4.57875 6.33761 4.35331C6.55302 4.12804 6.84491 4.001 7.14956 4H12.8745V6.33383C12.8746 6.86559 13.0766 7.37543 13.4358 7.75137C13.7951 8.12732 14.2822 8.33872 14.7904 8.33883H17.0205V12.4612L14.1121 15.1239C14.0486 15.1808 14.0054 15.2585 13.9895 15.3444L13.5872 17.3294C13.5643 17.4517 13.5952 17.5785 13.6715 17.6743C13.7447 17.7629 13.8507 17.8141 13.9627 17.8146H13.9857L15.9553 17.6983C16.0407 17.6933 16.1217 17.658 16.1852 17.5981L17.0243 16.8322V18.7971L17.0205 18.797ZM7.44056 7.63608C7.44056 7.23442 7.76292 6.90881 8.16056 6.90881H10.3206C10.7182 6.90881 11.0406 7.23442 11.0406 7.63608C11.0406 8.03774 10.7182 8.36335 10.3206 8.36335H8.16056C7.76292 8.36335 7.44056 8.03774 7.44056 7.63608ZM8.16056 9.8179C7.76292 9.8179 7.44056 10.1435 7.44056 10.5452C7.44056 10.9468 7.76292 11.2724 8.16056 11.2724H13.9206C14.3182 11.2724 14.6406 10.9468 14.6406 10.5452C14.6406 10.1435 14.3182 9.8179 13.9206 9.8179H8.16056ZM7.44056 13.4543C7.44056 13.0526 7.76292 12.727 8.16056 12.727H12.4806C12.8782 12.727 13.2006 13.0526 13.2006 13.4543C13.2006 13.8559 12.8782 14.1815 12.4806 14.1815H8.16056C7.76292 14.1815 7.44056 13.8559 7.44056 13.4543ZM8.16056 15.6361C7.76292 15.6361 7.44056 15.9617 7.44056 16.3634C7.44056 16.765 7.76292 17.0906 8.16056 17.0906H10.3206C10.7182 17.0906 11.0406 16.765 11.0406 16.3634C11.0406 15.9617 10.7182 15.6361 10.3206 15.6361H8.16056Z" fill="white" fill-opacity="0.84"/>
<path d="M15.7751 16.9042L14.4378 16.9844L14.7099 15.6371L19.3386 11.3944L20.4 12.6616L15.7751 16.9042Z" fill="white" fill-opacity="0.84"/>
</svg>
