<svg width="24" height="24" viewBox="0 0 24 24" fill="none" xmlns="http://www.w3.org/2000/svg">
<path d="M17.8138 15.2082L15.0665 13.9438H15.0281L13.8848 13.084C13.8554 12.9451 13.7878 12.8176 13.6897 12.715H13.6749V11.297C13.9481 10.8869 14.1836 10.4527 14.3782 9.99997C14.8183 9.71105 15.0963 9.23155 15.1285 8.70606C15.1522 8.03239 14.9276 7.87001 14.7267 7.86716C14.7769 7.39752 15.0222 4 11.5566 4C7.83725 4 8.36606 7.92028 8.36606 7.92028C8.17111 7.94398 7.96422 8.08864 7.99678 8.70606C8.03366 9.2301 8.31083 9.70755 8.74731 9.99997C8.94143 10.4504 9.17573 10.8825 9.44752 11.291V12.709C9.35561 12.8096 9.29235 12.933 9.26432 13.0665L8.12699 13.9203V13.9706L5.46827 15.1965C4.94918 15.436 4.57699 15.9112 4.46964 16.4727L4 18.8567C4 18.8567 4.45191 20 11.6399 20C18.8277 20 19.2824 18.8567 19.2824 18.8567L18.8097 16.4727C18.6992 15.9161 18.329 15.4461 17.8138 15.2082Z" fill="white" fill-opacity="0.84"/>
</svg>
