<svg width="24" height="24" viewBox="0 0 24 24" fill="none" xmlns="http://www.w3.org/2000/svg">
<path d="M19.6235 17.8613H4.37647C4.16941 17.8613 4 18.0307 4 18.2378C4 18.4448 4.16941 18.6142 4.37647 18.6142H19.6235C19.8306 18.6142 20 18.4448 20 18.2378C20 18.0307 19.8306 17.8613 19.6235 17.8613Z" fill="white" fill-opacity="0.84"/>
<path d="M4.97853 11.6119L5.93853 12.4025L5.33618 13.1367C5.035 13.5131 5.09148 14.059 5.46795 14.379L7.06795 15.6778C7.44442 15.979 7.9903 15.9225 8.3103 15.5461L8.59265 15.2072C8.6303 15.2261 8.64912 15.2449 8.68677 15.2637L11.3974 16.299C11.5479 16.3555 11.6985 16.3931 11.8679 16.3931C12.2632 16.3931 12.6397 16.2237 12.8844 15.9037L15.9527 12.1578C16.3103 11.7249 16.3479 11.1037 16.0468 10.6143L14.4844 8.16724C14.4656 8.1296 14.4279 8.11077 14.4091 8.07312L14.6915 7.7343C14.9927 7.35783 14.9362 6.81195 14.5597 6.49195L12.9409 5.19312C12.5644 4.89195 12.0185 4.94842 11.6985 5.32489L11.0962 6.05901L10.1362 5.26842C9.94795 5.11783 9.68442 5.13665 9.53383 5.32489L8.49853 6.58607C8.34795 6.7743 8.36677 7.03783 8.555 7.18842L9.515 7.97901L7.51971 10.4637L6.55971 9.67312C6.37148 9.52254 6.10795 9.54136 5.95736 9.7296L4.92206 10.9908C4.77148 11.179 4.7903 11.4614 4.97853 11.6119ZM15.4068 11.0096C15.5385 11.2167 15.5197 11.4802 15.3691 11.6684L12.3009 15.4331C12.1503 15.6214 11.8868 15.6967 11.6609 15.6025L9.43971 14.7555L14.1079 9.0143L15.4068 11.0096ZM11.9621 7.43312C12.1127 7.30136 12.3574 7.30136 12.4891 7.43312C12.5644 7.50842 12.6021 7.60254 12.6021 7.69665C12.6021 7.79077 12.5644 7.88489 12.4891 7.96018C12.4138 8.03548 12.3197 8.07312 12.2256 8.07312C12.1315 8.07312 12.0374 8.03548 11.9621 7.96018C11.8868 7.88489 11.8491 7.79077 11.8491 7.69665C11.8491 7.60254 11.8868 7.50842 11.9621 7.43312ZM8.78089 11.3296L10.6444 9.05195C10.7762 8.88254 11.0209 8.86371 11.1715 8.99548C11.3409 9.12724 11.3597 9.37195 11.2279 9.52254L9.36442 11.8002C9.28912 11.8943 9.17618 11.9319 9.06324 11.9319C8.98795 11.9319 8.89383 11.9131 8.81853 11.8378C8.68677 11.7249 8.64912 11.499 8.78089 11.3296ZM8.15971 13.1555C8.15971 13.2496 8.12206 13.3437 8.04677 13.419C7.97147 13.4943 7.87736 13.5319 7.78324 13.5319C7.68912 13.5319 7.595 13.4943 7.51971 13.419C7.44442 13.3437 7.40677 13.2496 7.40677 13.1555C7.40677 13.0614 7.44442 12.9672 7.51971 12.8919C7.6703 12.7414 7.915 12.7414 8.04677 12.8919C8.12206 12.9672 8.15971 13.0614 8.15971 13.1555Z" fill="white" fill-opacity="0.84"/>
<path d="M15.859 14.0591C15.6519 14.0591 15.4825 14.2285 15.4825 14.4355V15.9038C15.4825 16.0544 15.5766 16.205 15.7272 16.2614C15.8778 16.3179 16.0472 16.2802 16.1413 16.1485L16.7437 15.4332L18.0425 16.3744C18.1178 16.4308 18.1931 16.4497 18.2684 16.4497C18.3437 16.4497 18.4001 16.4308 18.4566 16.3932C18.5884 16.3179 18.6637 16.1673 18.626 16.0167L18.419 14.6803L19.3037 14.3226C19.4166 14.2661 19.5107 14.172 19.5296 14.0402C19.5484 13.9085 19.5107 13.7767 19.4166 13.7014L18.6825 13.005L19.266 11.8191C19.3413 11.6685 19.3037 11.4991 19.1907 11.3861C19.0778 11.2732 18.9084 11.2355 18.7578 11.3108L17.346 12.0073C17.1578 12.1014 17.0825 12.3273 17.1766 12.5155C17.2707 12.7038 17.4966 12.7791 17.6849 12.685L18.099 12.4779L17.9107 12.9297C17.8354 13.0802 17.8731 13.2497 17.986 13.3626L18.4943 13.8332L17.8731 14.0779C17.7037 14.1344 17.6096 14.3038 17.6472 14.492L17.7601 15.2261L16.9131 14.6238C16.7625 14.5108 16.5366 14.5297 16.4049 14.6803L16.2354 14.8873V14.4355C16.2354 14.2285 16.066 14.0591 15.859 14.0591Z" fill="white" fill-opacity="0.84"/>
</svg>
