<svg width="24" height="24" viewBox="0 0 24 24" fill="none" xmlns="http://www.w3.org/2000/svg">
<path d="M11.9499 20C14.1955 20 16.0986 19.2254 17.6592 17.6761C19.2197 16.1268 20 14.2353 20 12.0017C20 9.76799 19.2204 7.87596 17.6612 6.32556C16.102 4.77519 14.1972 4 11.9467 4C10.691 4 9.51621 4.27819 8.42232 4.83457C7.32842 5.39097 6.40266 6.17161 5.64502 7.17648V4.81667C5.64502 4.60821 5.56154 4.41998 5.39459 4.252C5.22762 4.084 5.03769 4 4.82479 4C4.61189 4 4.4212 4.084 4.25273 4.252C4.08424 4.41998 4 4.60954 4 4.82066V9.62574C4 9.8921 4.09807 10.1221 4.29422 10.3157C4.49036 10.5094 4.72038 10.6062 4.98427 10.6062H9.80803C10.0235 10.6062 10.2147 10.5222 10.3816 10.3541C10.5484 10.186 10.6319 9.99593 10.6319 9.78386C10.6319 9.57529 10.5484 9.38709 10.3816 9.21927C10.2147 9.05145 10.0262 8.96754 9.81615 8.96754H6.38051C6.95372 7.95365 7.73308 7.14536 8.71857 6.54267C9.70408 5.93999 10.7798 5.63865 11.9456 5.63865C13.7245 5.63865 15.2374 6.25739 16.4844 7.49486C17.7314 8.73232 18.355 10.233 18.355 11.9968C18.355 13.7606 17.7323 15.2623 16.4869 16.5019C15.2416 17.7415 13.7271 18.3614 11.9435 18.3614C10.6724 18.3614 9.52008 18.0304 8.48669 17.3686C7.45329 16.7067 6.68017 15.804 6.16733 14.6604C6.08223 14.5181 5.96791 14.3953 5.82436 14.2919C5.68082 14.1886 5.52742 14.1369 5.36416 14.1369C5.03079 14.1369 4.79079 14.2462 4.64415 14.4649C4.4975 14.6835 4.48996 14.933 4.62152 15.2132C5.25979 16.6575 6.23817 17.8164 7.55666 18.6898C8.87516 19.5633 10.3396 20 11.9499 20Z" fill="white" fill-opacity="0.84"/>
</svg>
