<svg width="24" height="24" viewBox="0 0 24 24" fill="none" xmlns="http://www.w3.org/2000/svg">
<path d="M20.001 12.0007C20.001 16.4196 16.4189 20.0024 12 20.0027C7.58093 20.0027 3.99805 16.4198 3.99805 12.0007C3.99829 7.58187 7.58108 3.99976 12 3.99976C16.4187 4 20.0007 7.58202 20.001 12.0007ZM18.8008 12.0007C18.8005 8.24488 15.7558 5.2002 12 5.19995C8.24394 5.19995 5.19849 8.24473 5.19824 12.0007C5.19824 15.7569 8.24379 18.8025 12 18.8025C15.756 18.8022 18.8008 15.7568 18.8008 12.0007ZM18.1885 12.0007C18.1885 13.2315 17.8234 14.4353 17.1396 15.4587C16.4559 16.4821 15.4837 17.2797 14.3467 17.7507C13.2096 18.2217 11.9581 18.3452 10.751 18.1052C9.54393 17.8651 8.43475 17.2723 7.56445 16.4021C6.6942 15.5318 6.10151 14.4226 5.86133 13.2156C5.62122 12.0085 5.74393 10.7569 6.21484 9.61987C6.68581 8.48285 7.4836 7.51072 8.50684 6.8269C9.53026 6.14308 10.734 5.77808 11.9648 5.77808C13.6153 5.77811 15.1982 6.43336 16.3652 7.60034C17.5322 8.76735 18.1884 10.3503 18.1885 12.0007ZM11.9014 14.3357L9.20508 14.3357C9.41837 14.1757 9.63985 13.9969 9.86914 13.7996C10.1037 13.6023 10.3302 13.3941 10.5488 13.1755C10.7673 12.9517 10.9647 12.72 11.1406 12.4802C11.3219 12.2403 11.4631 11.9945 11.5645 11.7439C11.6711 11.4879 11.7246 11.2313 11.7246 10.9753C11.7246 10.6236 11.6502 10.3225 11.501 10.072C11.3516 9.82135 11.1436 9.63166 10.877 9.50366C10.6103 9.37033 10.2953 9.30347 9.93262 9.30347C9.58623 9.30351 9.27174 9.37297 8.98926 9.51147C8.71192 9.65014 8.49301 9.85321 8.33301 10.1199C8.17307 10.3865 8.09033 10.7116 8.08496 11.0955L8.85254 11.0955C8.85258 10.8929 8.89271 10.7089 8.97266 10.5437C9.05266 10.373 9.17053 10.2368 9.3252 10.1355C9.48514 10.0343 9.68248 9.98413 9.91699 9.98413C10.1622 9.98414 10.357 10.0342 10.501 10.1355C10.6503 10.2315 10.7573 10.3569 10.8213 10.5115C10.8906 10.666 10.9248 10.8342 10.9248 11.0154C10.9248 11.2714 10.848 11.5413 10.6934 11.824C10.544 12.1013 10.3325 12.3861 10.0605 12.6794C9.79388 12.9674 9.48728 13.2582 9.14062 13.5515C8.79397 13.8448 8.43138 14.1356 8.05273 14.4236L8.05273 14.9998L11.9014 14.9998L11.9014 14.3357ZM16.0234 13.7761C16.0288 13.4828 15.9728 13.253 15.8555 13.0876C15.7435 12.9171 15.5729 12.7892 15.3437 12.7039C15.1198 12.6186 14.8397 12.5541 14.5039 12.5115C14.2639 12.4795 14.0742 12.4344 13.9355 12.3757C13.797 12.3118 13.6983 12.2373 13.6396 12.1521C13.581 12.0614 13.5518 11.9594 13.5518 11.8474C13.5519 11.6984 13.6155 11.5786 13.7432 11.488C13.8765 11.3921 14.0687 11.3435 14.3193 11.3435C14.554 11.3435 14.7437 11.3945 14.8877 11.4958C15.0316 11.5918 15.1169 11.7281 15.1436 11.9041L15.9199 11.9041C15.8666 11.5201 15.7036 11.2234 15.4316 11.0154C15.165 10.8021 14.7964 10.696 14.3271 10.696C14.002 10.6961 13.7219 10.7461 13.4873 10.8474C13.2526 10.9487 13.0714 11.0909 12.9434 11.2722C12.8209 11.4534 12.7598 11.6584 12.7598 11.8875C12.7598 12.0901 12.7915 12.264 12.8555 12.408C12.9247 12.5518 13.0235 12.6714 13.1514 12.7673C13.2793 12.8633 13.4366 12.9411 13.623 12.9998C13.8097 13.0584 14.0212 13.106 14.2559 13.1433C14.4637 13.1646 14.6368 13.1998 14.7754 13.2478C14.9194 13.2958 15.0264 13.3651 15.0957 13.4558C15.1703 13.5465 15.207 13.6719 15.207 13.8318C15.207 13.9544 15.1753 14.0639 15.1113 14.1599C15.0527 14.2504 14.9623 14.3224 14.8398 14.3757C14.7225 14.4237 14.5804 14.448 14.415 14.448C14.2072 14.448 14.0341 14.4153 13.8955 14.3513C13.7569 14.282 13.6523 14.1943 13.583 14.0876C13.5138 13.9757 13.4686 13.8527 13.4473 13.7195L12.6396 13.7195C12.6663 13.9915 12.7431 14.2322 12.8711 14.4402C12.9991 14.6428 13.1889 14.8024 13.4395 14.9197C13.6954 15.037 14.0206 15.0954 14.415 15.0955C14.735 15.0955 15.0159 15.0454 15.2559 14.9441C15.4957 14.8374 15.6821 14.6878 15.8154 14.4958C15.954 14.2986 16.0234 14.0586 16.0234 13.7761Z" fill="white" fill-opacity="0.84"/>
</svg>
