<svg width="24" height="24" viewBox="0 0 24 24" fill="none" xmlns="http://www.w3.org/2000/svg">
<path d="M17.4162 17.0311C18.2292 16.7289 18.8 15.9467 18.8 15.0222V6.13326C18.8 4.9599 17.866 4 16.7243 4H10.8432C9.94375 4 9.1654 4.60442 8.88874 5.43997L8.8885 5.44085C8.85396 5.56506 8.81944 5.68917 8.80223 5.81337C8.90599 5.79551 9.00975 5.77778 9.11352 5.77778H9.85724C10.013 5.3512 10.4108 5.06673 10.8432 5.06673L16.7243 5.0666C17.2952 5.0666 17.7622 5.54667 17.7622 6.13334L17.7621 15.04C17.7621 15.4845 17.4854 15.8756 17.0703 16.0356V16.8178C17.0703 16.9237 17.0531 17.0297 17.036 17.1356L17.0356 17.1377C17.0787 17.1251 17.1239 17.1147 17.1698 17.1042C17.2529 17.0851 17.3381 17.0655 17.4162 17.0311Z" fill="white" fill-opacity="0.84"/>
<path fill-rule="evenodd" clip-rule="evenodd" d="M15.8422 18.7378C15.9634 18.4711 16.0325 18.1866 16.0325 17.8667V8.97778C16.0325 7.8044 15.0984 6.84446 13.9568 6.84446H8.07577C7.78174 6.84446 7.48758 6.91552 7.22817 7.04003C6.50156 7.37784 6 8.10663 6 8.97778V17.8667C6 19.0401 6.93399 20 8.07564 20H13.9567C14.7871 20 15.5135 19.4845 15.8422 18.7378ZM13.9567 7.91105C14.5275 7.91105 14.9946 8.39111 14.9946 8.97778V17.8667C14.9946 18.4534 14.5275 18.9334 13.9567 18.9334H8.07562C7.50478 18.9334 7.03772 18.4534 7.03772 17.8667V8.97778C7.03772 8.39108 7.50481 7.91105 8.07562 7.91105H13.9567Z" fill="white" fill-opacity="0.84"/>
</svg>
