<svg width="24" height="24" viewBox="0 0 24 24" fill="none" xmlns="http://www.w3.org/2000/svg">
<path fill-rule="evenodd" clip-rule="evenodd" d="M16.9778 7L7.02169 7.00052C6.96122 7.00173 6.90257 7.02351 6.85379 7.06286C6.80502 7.10221 6.76851 7.15721 6.74927 7.2203L4.33133 11.5923C4.31076 11.6414 4.30166 11.6953 4.30485 11.7493C4.30804 11.8032 4.32343 11.8554 4.34961 11.9011C4.37782 11.9488 4.41527 11.9891 4.45929 12.019C4.50331 12.0489 4.5528 12.0677 4.60421 12.0741L19.3953 12.0741C19.4467 12.0677 19.4962 12.0489 19.5402 12.019C19.5842 11.9891 19.6217 11.9488 19.6499 11.9011C19.6761 11.8554 19.6915 11.8032 19.6946 11.7492C19.6978 11.6953 19.6887 11.6414 19.6682 11.5923L17.2521 7.22028C17.2326 7.15694 17.1957 7.10177 17.1466 7.06234C17.0976 7.0229 17.0386 7.00113 16.9778 7ZM18.3906 11.5978C18.4348 11.5968 18.4778 11.5827 18.5153 11.557C18.5528 11.5314 18.5833 11.4951 18.6036 11.452C18.6263 11.4136 18.6396 11.3695 18.6423 11.3239C18.6449 11.2782 18.6368 11.2326 18.6187 11.1914L16.7072 7.48986C16.6728 7.43104 16.6249 7.38325 16.5683 7.35129C16.5117 7.31933 16.4485 7.30433 16.385 7.3078L11.9673 7.32137L7.61452 7.30781C7.55101 7.30434 7.48778 7.31934 7.43121 7.3513C7.37464 7.38326 7.32673 7.43106 7.29228 7.48987L5.38032 11.192C5.36237 11.2332 5.35432 11.2788 5.35696 11.3244C5.3596 11.37 5.37284 11.4141 5.39541 11.4525C5.41586 11.4957 5.44652 11.5321 5.48416 11.5577C5.52181 11.5834 5.56504 11.5974 5.60932 11.5983L18.3906 11.5978Z" fill="white" fill-opacity="0.84"/>
<path d="M20 13.0216V15.1294C19.9998 15.1691 19.9921 15.2082 19.9773 15.2443C19.9625 15.2805 19.9409 15.3128 19.9141 15.3391C19.857 15.3955 19.7828 15.4264 19.7061 15.4257H4.2939C4.21927 15.4291 4.14646 15.3998 4.09138 15.3443C4.0363 15.2888 4.00344 15.2115 4 15.1294V13.0216C4.00344 12.9395 4.0363 12.8623 4.09138 12.8068C4.14646 12.7513 4.21927 12.722 4.2939 12.7254H9.85974C10.0616 12.7211 10.2621 12.7633 10.4482 12.8493C10.6344 12.9354 10.8021 13.0633 10.9407 13.2248C11.0752 13.386 11.2386 13.5146 11.4207 13.6026C11.6027 13.6906 11.7994 13.736 11.9982 13.736C12.197 13.736 12.3937 13.6906 12.5757 13.6026C12.7577 13.5146 12.9211 13.386 13.0556 13.2248C13.194 13.0632 13.3617 12.9353 13.5478 12.8493C13.7339 12.7634 13.9344 12.7214 14.1361 12.7259H19.7038C19.7783 12.7225 19.851 12.7516 19.906 12.8069C19.9611 12.8622 19.994 12.9392 19.9977 13.0211L20 13.0216Z" fill="white" fill-opacity="0.84"/>
<path d="M4.33275 15.7802H19.6672C19.851 15.7802 20 15.9441 20 16.1464V16.2339C20 16.4361 19.851 16.6 19.6672 16.6H4.33275C4.14898 16.6 4 16.4361 4 16.2339V16.1464C4 15.9441 4.14898 15.7802 4.33275 15.7802Z" fill="white" fill-opacity="0.84"/>
</svg>
