<svg width="24" height="24" viewBox="0 0 24 24" fill="none" xmlns="http://www.w3.org/2000/svg">
<path d="M8 17.5473V7.19727C8 6.91393 8.1 6.67643 8.3 6.48477C8.5 6.2931 8.73333 6.19727 9 6.19727C9.08333 6.19727 9.17083 6.20977 9.2625 6.23477C9.35417 6.25977 9.44167 6.29727 9.525 6.34727L17.675 11.5223C17.825 11.6223 17.9375 11.7473 18.0125 11.8973C18.0875 12.0473 18.125 12.2056 18.125 12.3723C18.125 12.5389 18.0875 12.6973 18.0125 12.8473C17.9375 12.9973 17.825 13.1223 17.675 13.2223L9.525 18.3973C9.44167 18.4473 9.35417 18.4848 9.2625 18.5098C9.17083 18.5348 9.08333 18.5473 9 18.5473C8.73333 18.5473 8.5 18.4514 8.3 18.2598C8.1 18.0681 8 17.8306 8 17.5473Z" fill="white" fill-opacity="0.84"/>
</svg>
