<svg width="24" height="24" viewBox="0 0 24 24" fill="none" xmlns="http://www.w3.org/2000/svg">
<path d="M18.652 11.8345L16.8442 13.657C16.5348 13.9683 16.0293 13.9689 15.7192 13.657C15.4091 13.3445 15.4091 12.8351 15.7192 12.5226L17.527 10.7001C18.0957 10.1276 18.4093 9.36995 18.4098 8.5663C18.4098 7.81278 18.1384 7.09286 17.6458 6.5398C17.1286 5.95903 16.3914 5.62708 15.5706 5.60468C15.5402 5.60409 15.5103 5.6035 15.4799 5.6035C14.5988 5.6035 13.7435 5.95786 13.1222 6.58344L11.4741 8.24438C11.164 8.55687 10.6591 8.55628 10.3484 8.24438C10.1987 8.09284 10.1156 7.8912 10.1156 7.67717C10.1156 7.46314 10.1987 7.26149 10.3484 7.10996L11.9965 5.44902C12.9455 4.49326 14.27 3.96791 15.6121 4.00152C16.8747 4.03631 18.0167 4.55634 18.8287 5.46671C19.584 6.31457 20 7.41597 20 8.56571C20 9.79801 19.5214 10.9578 18.652 11.8345Z" fill="white" fill-opacity="0.84"/>
<path d="M13.6424 16.8834L11.9838 18.5555C11.0377 19.5089 9.73543 20.0337 8.37753 19.9983C7.11792 19.9635 5.97824 19.4429 5.16853 18.532C4.41499 17.6847 4.00019 16.5856 4.00019 15.4353C3.98907 14.2042 4.46472 13.0409 5.33995 12.1594L7.14776 10.3375C7.29811 10.186 7.49761 10.1028 7.70999 10.1028C7.92236 10.1028 8.12245 10.1866 8.2728 10.3375C8.42258 10.489 8.50565 10.6907 8.50565 10.9047C8.50565 11.1187 8.42258 11.3204 8.2728 11.4719L6.465 13.2938C5.89458 13.8687 5.5845 14.6275 5.59152 15.4276C5.59152 16.1865 5.8624 16.9093 6.35384 17.4618C6.86927 18.0414 7.60409 18.3728 8.42141 18.3952C9.31946 18.4099 10.2199 18.065 10.8593 17.4205L12.5179 15.749C12.8268 15.4371 13.3323 15.4365 13.643 15.749C13.9525 16.0621 13.9525 16.5709 13.6424 16.8834Z" fill="white" fill-opacity="0.84"/>
<path d="M8.44475 14.447L14.4275 8.41765C14.5825 8.2614 14.7861 8.18358 14.9897 8.18358C15.1933 8.18358 15.3969 8.26199 15.5519 8.41765C15.862 8.73015 15.862 9.23957 15.5519 9.55207L9.5698 15.5815C9.26908 15.8845 8.74546 15.8845 8.44475 15.5815C8.29497 15.4299 8.2119 15.2283 8.2119 15.0142C8.2119 14.8002 8.29497 14.5986 8.44475 14.447Z" fill="white" fill-opacity="0.84"/>
</svg>
