<svg width="24" height="24" viewBox="0 0 24 24" fill="none" xmlns="http://www.w3.org/2000/svg">
<path d="M12.0664 4.25C15.8298 4.25 18.8838 7.32065 18.8838 11.1113C18.8836 14.9018 15.8296 17.9717 12.0664 17.9717C8.30336 17.9715 5.2502 14.9017 5.25 11.1113C5.25 7.32079 8.30324 4.25021 12.0664 4.25Z" stroke="white" stroke-opacity="0.84" stroke-width="0.5"/>
<path d="M12.0668 4C11.0953 4 10.1342 4.20157 9.2436 4.59211C8.35298 4.98266 7.55196 5.55379 6.89056 6.26984L12.0668 11.111V4Z" fill="url(#paint0_linear_31_1444)"/>
<path fill-rule="evenodd" clip-rule="evenodd" d="M12.0654 18.2219V16.4425C11.0696 16.4425 10.1377 16.1662 9.34179 15.6855C9.19713 15.7896 9.01996 15.8509 8.82857 15.8509C8.34071 15.8509 7.94522 15.4529 7.94522 14.962C7.94522 14.8223 7.97727 14.6901 8.03436 14.5724C7.243 13.6407 6.76512 12.4313 6.76507 11.1095H5V10.7262H6.77853C6.97369 7.95956 9.26602 5.77608 12.0652 5.77608L12.0654 4H12.4463V5.78966C13.9057 5.89402 15.2018 6.59295 16.0968 7.6471C16.2137 7.58963 16.3451 7.55737 16.484 7.55737C16.9718 7.55737 17.3673 7.95533 17.3673 8.44624C17.3673 8.74224 17.2235 9.00445 17.0024 9.166C17.1927 9.65503 17.3132 10.1792 17.3518 10.7262H19.1336V11.1095H17.3653C17.3651 13.9259 15.1955 16.2323 12.4463 16.4289V18.2219H12.0654ZM16.9698 10.7262C16.9323 10.2334 16.8231 9.76079 16.6527 9.31892C16.5981 9.32954 16.5417 9.33511 16.484 9.33511C15.9961 9.33511 15.6006 8.93715 15.6006 8.44624C15.6006 8.23377 15.6747 8.0387 15.7983 7.88578C14.9737 6.91966 13.785 6.27728 12.4463 6.17405V7.57744C14.0939 7.75361 15.4033 9.06923 15.5814 10.7262H16.9698ZM15.602 11.1095H16.9843C16.9842 13.7141 14.9849 15.8488 12.4463 16.0445V14.6483C14.2202 14.4586 15.602 12.9481 15.602 11.1129L15.602 11.1095ZM15.1979 10.7262C15.0234 9.28117 13.8833 8.13588 12.4463 7.96324V9.37452C13.1165 9.52205 13.6443 10.0523 13.7922 10.7262H15.1979ZM13.8337 11.1095H15.2211L15.2211 11.1129C15.2211 12.7362 14.0093 14.0747 12.4463 14.2625V12.8479C13.2398 12.6732 13.8337 11.962 13.8337 11.1112L13.8337 11.1095ZM13.3993 10.7262C13.2677 10.2645 12.9056 9.90091 12.4463 9.76967V10.7262H13.3993ZM12.4463 11.1095H13.4528V11.1112C13.4528 11.749 13.0273 12.2867 12.4463 12.4527L12.4463 11.1095ZM12.0654 10.7262V9.71678C11.4335 9.71752 10.9007 10.1438 10.7348 10.7262H12.0654ZM10.6813 11.1095H12.0654L12.0654 12.5056C11.3008 12.5047 10.6813 11.8808 10.6813 11.1112L10.6813 11.1095ZM10.3419 10.7262C10.5166 9.92998 11.2218 9.33422 12.0654 9.33345V7.94071C10.4559 7.94235 9.12881 9.1577 8.93939 10.7262H10.3419ZM8.9162 11.1095H10.3003L10.3003 11.1112C10.3003 12.0925 11.0904 12.888 12.0654 12.8889V14.285C10.3258 14.2832 8.9162 12.8637 8.9162 11.1129L8.9162 11.1095ZM8.5559 10.7262C8.74728 8.9455 10.2453 7.55903 12.0654 7.55737V6.15941C9.47673 6.15941 7.35487 8.17147 7.16053 10.7262H8.5559ZM7.14602 11.1095H8.53525L8.53525 11.1129C8.53525 13.0754 10.1154 14.6666 12.0654 14.6683V16.0592C11.1674 16.0592 10.3253 15.817 9.60069 15.3941C9.67155 15.2662 9.71192 15.1188 9.71192 14.962C9.71192 14.4711 9.31643 14.0731 8.82857 14.0731C8.62001 14.0731 8.42833 14.1459 8.27722 14.2675C7.57078 13.4105 7.14607 12.3099 7.14602 11.1095Z" fill="white" fill-opacity="0.84"/>
<path d="M20.2381 16.0001C20.2381 18.2092 18.4584 20 16.263 20C14.0676 20 12.2879 18.2092 12.2879 16.0001C12.2879 13.791 14.0676 12.0002 16.263 12.0002C18.4584 12.0002 20.2381 13.791 20.2381 16.0001Z" fill="#111113"/>
<path d="M17.7832 16.197C17.7922 16.1315 17.797 16.0656 17.7975 15.9995C17.797 15.9334 17.7922 15.8675 17.7832 15.802L18.2147 15.4696C18.2336 15.4544 18.2464 15.4331 18.2509 15.4095C18.2553 15.3859 18.2512 15.3615 18.2391 15.3406L17.8308 14.6436C17.8217 14.6281 17.8086 14.6152 17.7928 14.6063C17.777 14.5975 17.7591 14.5929 17.7409 14.5932C17.729 14.5931 17.7172 14.5951 17.706 14.5993L17.197 14.8007C17.0913 14.7199 16.9751 14.6535 16.8515 14.6032L16.7726 14.0694C16.7692 14.0457 16.7573 14.0241 16.7389 14.0085C16.7206 13.9929 16.6971 13.9844 16.6729 13.9847H15.8552C15.8309 13.9843 15.8073 13.9928 15.7889 14.0084C15.7704 14.024 15.7584 14.0457 15.7551 14.0694L15.6773 14.6032C15.554 14.6543 15.4379 14.7206 15.3318 14.8007L14.8225 14.5993C14.8107 14.5952 14.7982 14.5931 14.7857 14.593C14.7678 14.5929 14.7502 14.5976 14.7347 14.6064C14.7192 14.6153 14.7064 14.628 14.6975 14.6434L14.289 15.3408C14.2764 15.3615 14.272 15.3861 14.2765 15.4099C14.281 15.4336 14.2941 15.4549 14.3134 15.4698L14.7442 15.802C14.7353 15.8675 14.7305 15.9334 14.7299 15.9995C14.7305 16.0656 14.7353 16.1315 14.7442 16.197L14.3128 16.5294C14.2939 16.5446 14.281 16.5659 14.2766 16.5895C14.2721 16.6131 14.2762 16.6376 14.2883 16.6584L14.6979 17.3556C14.707 17.3712 14.7201 17.384 14.7359 17.3929C14.7518 17.4018 14.7697 17.4063 14.7879 17.406C14.7998 17.4062 14.8116 17.4041 14.8227 17.3999L15.3318 17.1985C15.4375 17.2793 15.5537 17.3457 15.6773 17.396L15.7549 17.9301C15.7582 17.9538 15.7702 17.9755 15.7886 17.9911C15.8071 18.0067 15.8307 18.0151 15.855 18.0148H16.6729C16.6972 18.0151 16.7208 18.0067 16.7392 17.9911C16.7577 17.9755 16.7697 17.9538 16.773 17.9301L16.8506 17.396C16.9738 17.345 17.0899 17.2786 17.1961 17.1985L17.7051 17.3999C17.717 17.4039 17.7294 17.406 17.742 17.406C17.7599 17.4061 17.7775 17.4014 17.793 17.3926C17.8085 17.3837 17.8213 17.371 17.8302 17.3556L18.2391 16.6584C18.2512 16.6376 18.2553 16.6131 18.2509 16.5895C18.2464 16.5659 18.2336 16.5446 18.2147 16.5294L17.7832 16.197ZM17.3784 15.8531C17.3852 15.9018 17.3886 15.951 17.3886 16.0002C17.3886 16.0425 17.3844 16.0871 17.3784 16.1472L17.3498 16.3745L17.5316 16.5155L17.7521 16.6847L17.6103 16.9285L17.3506 16.8257L17.1381 16.741L16.954 16.8781C16.8753 16.9373 16.7895 16.9867 16.6985 17.0252L16.4818 17.1121L16.4491 17.3398L16.4083 17.6118H16.1217L16.0503 17.1121L15.8336 17.0252C15.744 16.988 15.6595 16.9399 15.582 16.882L15.3959 16.741L15.1792 16.8279L14.9195 16.9307L14.7764 16.6869L14.9969 16.5177L15.1788 16.3767L15.1501 16.149C15.1439 16.0864 15.14 16.0403 15.14 15.9999C15.14 15.9595 15.1442 15.913 15.1501 15.8529L15.1788 15.6252L14.9965 15.4837L14.776 15.3145L14.9186 15.0709L15.1783 15.1737L15.3909 15.2584L15.575 15.1214C15.6536 15.0621 15.7395 15.0127 15.8305 14.9743L16.0472 14.8874L16.0798 14.6597L16.1206 14.3877H16.4048L16.4762 14.8874L16.693 14.9743C16.7826 15.0113 16.8671 15.0594 16.9445 15.1172L17.1306 15.2582L17.3473 15.1713L17.607 15.0686L17.7501 15.3123L17.5314 15.4835L17.3495 15.6245L17.3784 15.8531Z" fill="white" fill-opacity="0.84"/>
<defs>
<linearGradient id="paint0_linear_31_1444" x1="8.49206" y1="8.33333" x2="12.6875" y2="6.48917" gradientUnits="userSpaceOnUse">
<stop stop-color="#D9D9D9"/>
<stop offset="1" stop-color="#D9D9D9" stop-opacity="0"/>
</linearGradient>
</defs>
</svg>
