<svg width="24" height="24" viewBox="0 0 24 24" fill="none" xmlns="http://www.w3.org/2000/svg">
<path d="M11.4128 9.5069V5.19298C11.4128 5.03631 11.442 4.88118 11.4987 4.73644C11.5554 4.59171 11.6385 4.46019 11.7432 4.34941C11.8479 4.23864 11.9723 4.15076 12.1091 4.09081C12.246 4.03086 12.3927 4 12.5408 4C12.6889 4 12.8356 4.03086 12.9724 4.09081C13.1093 4.15076 13.2336 4.23864 13.3384 4.34941C13.4431 4.46019 13.5262 4.59171 13.5829 4.73644C13.6396 4.88118 13.6688 5.03631 13.6688 5.19298V9.50789H16.3076C16.3805 9.50783 16.4521 9.5287 16.5146 9.56826C16.5772 9.60783 16.6284 9.66462 16.6629 9.73257C16.6973 9.80052 16.7137 9.87708 16.7103 9.9541C16.7068 10.0311 16.6836 10.1057 16.6433 10.1699L12.8783 16.1428C12.8415 16.2011 12.7917 16.249 12.7332 16.2821C12.6748 16.3152 12.6095 16.3325 12.5432 16.3325C12.4768 16.3325 12.4115 16.3152 12.3531 16.2821C12.2946 16.249 12.2448 16.2011 12.208 16.1428L8.44211 10.1689C8.40176 10.1048 8.37861 10.0303 8.37511 9.95335C8.37162 9.87642 8.3879 9.79992 8.42224 9.73201C8.45658 9.66409 8.50769 9.60729 8.57012 9.56765C8.63256 9.52801 8.70399 9.50701 8.77681 9.5069H11.4128Z" fill="white" fill-opacity="0.84"/>
<path d="M6.87274 18.154H17.9274C18.4093 18.154 18.8 18.5673 18.8 19.077C18.8 19.5868 18.4093 20 17.9274 20H6.87274C6.39077 20 6.00006 19.5868 6.00006 19.077C6.00006 18.5673 6.39077 18.154 6.87274 18.154Z" fill="white" fill-opacity="0.84"/>
</svg>
