<svg width="24" height="24" viewBox="0 0 24 24" fill="none" xmlns="http://www.w3.org/2000/svg">
<path d="M5.82053 6.2625C4.63694 7.7994 3.99766 9.67352 4.00001 11.5997C4.00212 13.5212 4.64142 15.3899 5.8214 16.9237C5.88347 17.0055 5.96419 17.0718 6.05714 17.1174C6.15008 17.163 6.25265 17.1865 6.35656 17.1862C6.48099 17.1861 6.60351 17.156 6.71337 17.0987L6.81148 17.0383C6.89672 16.9902 6.9706 16.9249 7.02826 16.8468C7.08593 16.7686 7.12611 16.6794 7.14608 16.5849C7.16605 16.4904 7.16535 16.3929 7.14412 16.2987C7.12288 16.2044 7.08153 16.1157 7.02282 16.0383C6.04241 14.7571 5.51239 13.1985 5.51239 11.5966C5.51239 9.9947 6.04241 8.43608 7.02282 7.15496C7.08155 7.07789 7.12305 6.98955 7.14466 6.89569C7.16627 6.80183 7.16752 6.70455 7.14825 6.6102C7.12898 6.51585 7.08964 6.42655 7.03284 6.3481C6.97604 6.26965 6.90302 6.20382 6.81855 6.15489L6.7125 6.0954C6.60479 6.032 6.4813 5.99899 6.35569 6.00002C6.25179 5.99975 6.1492 6.02333 6.05626 6.06891C5.96333 6.11449 5.88265 6.1808 5.82053 6.2625Z" fill="white" fill-opacity="0.84"/>
<path d="M16.9839 7.15214C16.9247 7.07527 16.8827 6.98694 16.8608 6.89298C16.8389 6.79901 16.8376 6.70157 16.8569 6.60706C16.8762 6.51255 16.9156 6.42312 16.9727 6.34469C17.0299 6.26627 17.1033 6.20061 17.1882 6.15207L17.2935 6.10048C17.4367 6.01585 17.6066 5.98563 17.7709 6.01563C17.9353 6.04562 18.0828 6.13371 18.1855 6.2632C19.3632 7.80273 20 9.67555 20 11.6004C20 13.5252 19.3632 15.398 18.1855 16.9376C18.1234 17.0194 18.0427 17.0857 17.9497 17.1313C17.8568 17.1769 17.7542 17.2005 17.6503 17.2C17.5259 17.1999 17.4033 17.1699 17.2935 17.1126L17.1882 17.0522C17.1033 17.0036 17.0299 16.938 16.9727 16.8595C16.9156 16.7811 16.8762 16.6917 16.8569 16.5972C16.8376 16.5027 16.8389 16.4052 16.8608 16.3113C16.8827 16.2173 16.9247 16.129 16.9839 16.0521C17.9602 14.7678 18.4876 13.2086 18.4876 11.6065C18.4876 10.0044 17.9602 8.44522 16.9839 7.1609V7.15214Z" fill="white" fill-opacity="0.84"/>
<path d="M14.389 8.70417C14.3187 8.62841 14.2664 8.5383 14.2358 8.4403C14.2053 8.34231 14.1974 8.23889 14.2125 8.13751C14.2277 8.03614 14.2657 7.93934 14.3237 7.8541C14.3817 7.76887 14.4582 7.6973 14.5478 7.64461L14.6459 7.59302C14.7551 7.533 14.8776 7.50024 15.0027 7.49764C15.1053 7.49785 15.2066 7.52048 15.2992 7.56391C15.3918 7.60735 15.4733 7.6705 15.5379 7.74874C16.4691 8.82177 16.9806 10.185 16.9806 11.5942C16.9806 13.0033 16.4691 14.3665 15.5379 15.4395C15.4714 15.5178 15.3882 15.581 15.2942 15.6245C15.2002 15.6681 15.0977 15.6909 14.9938 15.6915C14.8681 15.6923 14.7446 15.659 14.637 15.5953L14.5389 15.5358C14.4511 15.4867 14.3753 15.4193 14.317 15.3385C14.2586 15.2576 14.219 15.1652 14.201 15.0677C14.183 14.9702 14.1869 14.8699 14.2127 14.7741C14.2384 14.6783 14.2851 14.5892 14.3497 14.513C15.0717 13.7057 15.4691 12.668 15.4674 11.5942C15.4681 10.5368 15.0859 9.51355 14.389 8.70684V8.70417Z" fill="white" fill-opacity="0.84"/>
<path d="M7.02628 11.5977C7.02394 10.1868 7.5355 8.8216 8.46865 7.74797C8.53525 7.66979 8.61836 7.60678 8.71233 7.56341C8.80631 7.52004 8.90889 7.49731 9.01274 7.49682C9.13836 7.49574 9.26186 7.52875 9.36955 7.59219L9.46766 7.65259C9.55541 7.70157 9.63108 7.76879 9.68945 7.84959C9.74783 7.93039 9.78749 8.0228 9.80552 8.12024C9.82355 8.21768 9.81957 8.31781 9.79387 8.41358C9.76817 8.50935 9.72128 8.5984 9.65668 8.6745C8.93471 9.48177 8.53744 10.5194 8.5391 11.5933C8.53896 12.6509 8.92172 13.6742 9.61922 14.4807C9.68956 14.5564 9.74191 14.6466 9.77242 14.7446C9.80293 14.8426 9.81091 14.946 9.79572 15.0473C9.78053 15.1487 9.74252 15.2455 9.68455 15.3308C9.62659 15.416 9.55005 15.4876 9.46047 15.5403L9.36237 15.5918C9.25476 15.6556 9.13126 15.6889 9.00556 15.6881C8.90287 15.6877 8.80153 15.6649 8.70896 15.6213C8.61639 15.5777 8.53492 15.5145 8.4704 15.4361C7.53896 14.3658 7.02697 13.0049 7.02628 11.5977Z" fill="white" fill-opacity="0.84"/>
<path d="M9.82694 11.5989C9.82694 10.4571 10.7706 9.53143 11.9347 9.53143C13.0987 9.53143 14.0424 10.4571 14.0424 11.5989C14.0424 12.7408 13.0987 13.6664 11.9347 13.6664C10.7706 13.6664 9.82694 12.7408 9.82694 11.5989Z" fill="white" fill-opacity="0.84"/>
</svg>
