<svg width="24" height="24" viewBox="0 0 24 24" fill="none" xmlns="http://www.w3.org/2000/svg">
<path d="M11.7328 11.1354C11.4014 11.1354 11.1328 11.4021 11.1328 11.7311V19.0836C11.1328 19.5897 11.546 20 12.0558 20C12.5656 20 12.9789 19.5897 12.9789 19.0836V11.777C12.9789 11.4227 12.6896 11.1354 12.3327 11.1354C12.0328 11.1372 12.0328 11.134 11.7328 11.1354Z" fill="white" fill-opacity="0.84"/>
<path d="M10.8 15.8474C9.29999 15.541 7.82023 14.4643 7.016 13.2731C6.21177 12.0819 5.8674 10.6427 6.04612 9.21966C6.22484 7.79665 6.91465 6.48541 7.98889 5.52673C9.06313 4.56805 10.4497 4.02629 11.8939 4.00093C13.3381 3.97557 14.7431 4.46832 15.8508 5.38869C16.9585 6.30906 17.6946 7.59527 17.9239 9.01112C18.1532 10.427 17.8603 11.8774 17.099 13.0961C16.3377 14.3148 14.729 15.422 13.3495 15.8474V14.8466C14.5232 14.4847 15.6905 13.6645 16.3382 12.6277C16.9859 11.5908 17.2351 10.3568 17.04 9.1522C16.8449 7.94761 16.2187 6.85331 15.2763 6.07027C14.3338 5.28722 13.1385 4.868 11.9097 4.88957C10.681 4.91114 9.50133 5.37207 8.58737 6.18771C7.67342 7.00334 7.08653 8.11894 6.93448 9.32963C6.78242 10.5403 7.07542 11.7648 7.75965 12.7783C8.44388 13.7918 9.6142 14.5262 10.8 14.8466V15.8474Z" fill="white" fill-opacity="0.84"/>
<path d="M10.8008 12.7092C10.2107 12.398 9.53457 11.7759 9.26191 11.1703C8.98925 10.5647 8.92806 9.88598 9.08806 9.24189C9.24805 8.5978 9.62006 8.02518 10.1451 7.61483C10.6701 7.20448 11.3181 6.9799 11.9863 6.97671C12.6545 6.97351 13.3047 7.19188 13.8337 7.59718C14.3627 8.00249 14.7402 8.57152 14.9065 9.21405C15.0727 9.85658 15.0181 10.5358 14.7513 11.144C14.4846 11.7523 13.9374 12.2547 13.3503 12.5716V11.6469C13.5008 11.5466 13.7857 11.2465 13.9774 10.8095C14.1691 10.3724 14.2083 9.88427 14.0888 9.42255C13.9694 8.96082 13.6981 8.5519 13.3179 8.26064C12.9378 7.96939 12.4706 7.81246 11.9904 7.81476C11.5102 7.81706 11.0446 7.97844 10.6673 8.27332C10.29 8.5682 10.0226 8.9797 9.90766 9.44255C9.79269 9.9054 9.83665 10.3931 10.0326 10.8283C10.2285 11.2636 10.3767 11.5117 10.8008 11.7354V12.7092Z" fill="white" fill-opacity="0.84"/>
<path d="M10.7991 14.2446C9.83099 13.9197 8.64095 13.1096 8.11191 12.209C7.58286 11.3084 7.38773 10.2525 7.56032 9.2241C7.73291 8.19572 8.26234 7.25965 9.05693 6.578C9.85152 5.89635 10.8612 5.51206 11.9112 5.49169C12.9611 5.47131 13.9852 5.81612 14.806 6.46642C15.6268 7.11671 16.1927 8.03153 16.4056 9.05243C16.6186 10.0733 16.4652 11.136 15.972 12.0564C15.4788 12.9769 14.3204 13.8493 13.3487 14.2446V13.2285C14.1174 12.9159 14.7517 12.3461 15.1418 11.618C15.532 10.8899 15.6533 10.0493 15.4849 9.24172C15.3164 8.43413 14.8688 7.71047 14.2195 7.19606C13.5702 6.68164 12.7601 6.40888 11.9295 6.425C11.099 6.44112 10.3003 6.74511 9.67171 7.28432C9.04315 7.82354 8.62434 8.56402 8.48781 9.37752C8.35128 10.191 8.50564 11.0263 8.92414 11.7387C9.34265 12.4511 10.0187 12.9922 10.7991 13.2748V14.2446Z" fill="white" fill-opacity="0.84"/>
<path d="M13.1618 9.76387C13.1618 10.3807 12.6581 10.8807 12.0368 10.8807C11.4155 10.8807 10.9118 10.3807 10.9118 9.76387C10.9118 9.14704 11.4155 8.647 12.0368 8.647C12.6581 8.647 13.1618 9.14704 13.1618 9.76387Z" fill="white" fill-opacity="0.84"/>
</svg>
