<svg width="24" height="24" viewBox="0 0 24 24" fill="none" xmlns="http://www.w3.org/2000/svg">
<path d="M19.9999 6.86844C18.6763 5.50935 17.3713 5.11222 15.8822 5.6167C15.2532 5.82766 14.7145 6.20481 14.3404 6.69605C13.9664 7.18729 13.7755 7.76836 13.7942 8.3589H15.3788L12.1041 13.3112L8.83816 8.38342H10.3773C10.8591 5.70204 12.5911 4.12572 15.1277 4.00969C16.1858 3.94659 17.2379 4.19294 18.1194 4.71019C19.001 5.22743 19.6623 5.98641 19.9999 6.86844Z" fill="white" fill-opacity="0.84"/>
<path d="M4.60364 16.3921C4.55225 16.3871 4.50277 16.3722 4.45874 16.3484C4.41472 16.3247 4.37725 16.2926 4.34905 16.2546C4.32267 16.2183 4.30718 16.1767 4.30402 16.1337C4.30086 16.0907 4.31014 16.0478 4.33099 16.0088L6.75047 12.5224C6.76939 12.4721 6.80561 12.4283 6.85413 12.3969C6.90265 12.3655 6.96109 12.3481 7.02137 12.347H10.6759L10.8728 12.6L7.61386 12.5924C7.55036 12.5896 7.48714 12.6016 7.43058 12.627C7.37402 12.6525 7.32612 12.6906 7.29169 12.7375L5.37964 15.6888C5.36323 15.7232 5.3564 15.7605 5.35973 15.7976C5.36306 15.8348 5.37645 15.8707 5.39878 15.9024C5.42112 15.9341 5.45176 15.9606 5.48815 15.9798C5.52454 15.9991 5.56564 16.0104 5.60801 16.0129L18.3881 16.0121C18.4324 16.0114 18.4756 16.0003 18.5132 15.9799C18.5509 15.9595 18.5815 15.9305 18.602 15.8961C18.6245 15.8655 18.6378 15.8304 18.6404 15.7941C18.6431 15.7577 18.635 15.7214 18.6171 15.6886L16.7056 12.7368C16.6712 12.6899 16.6233 12.6519 16.5667 12.6265C16.5102 12.601 16.4469 12.5892 16.3835 12.5921L13.4641 12.5993L13.6389 12.3473L13.6412 12.3463H16.976C17.0363 12.3472 17.0949 12.3646 17.1435 12.396C17.1922 12.4274 17.2285 12.4713 17.2474 12.5216L19.6663 16.0075C19.6875 16.0465 19.697 16.0895 19.694 16.1326C19.6911 16.1757 19.6757 16.2174 19.6494 16.2539C19.6212 16.2921 19.5836 16.3243 19.5393 16.3482C19.4951 16.3721 19.4453 16.387 19.3937 16.3919L4.60364 16.3921Z" fill="white" fill-opacity="0.84"/>
<path d="M19.9996 17.1464V18.827C19.9993 18.8586 19.9915 18.8898 19.9767 18.9186C19.9618 18.9473 19.9403 18.9731 19.9134 18.9941C19.8563 19.0391 19.7821 19.0637 19.7054 19.0631H4.29422C4.22005 19.0652 4.14791 19.0416 4.09341 18.9974C4.0389 18.9532 4.00641 18.892 4.00293 18.827V17.1464C4.00641 17.0813 4.0389 17.0201 4.09341 16.9759C4.14791 16.9317 4.22005 16.9081 4.29422 16.9102H9.86201C10.0638 16.9068 10.2642 16.9405 10.4503 17.0091C10.6364 17.0776 10.8042 17.1796 10.9427 17.3084C11.0772 17.4369 11.2406 17.5395 11.4226 17.6096C11.6046 17.6798 11.8013 17.716 12.0001 17.716C12.1989 17.716 12.3956 17.6798 12.5776 17.6096C12.7596 17.5395 12.923 17.4369 13.0575 17.3084C13.1959 17.1795 13.3636 17.0775 13.5498 17.009C13.7359 16.9405 13.9364 16.907 14.1382 16.9107H19.706C19.78 16.9086 19.8521 16.9322 19.9066 16.9763C19.9611 17.0203 19.9936 17.0814 19.9973 17.1464H19.9996Z" fill="white" fill-opacity="0.84"/>
<path d="M4.37227 19.3468H19.6273C19.8329 19.3468 19.9996 19.493 19.9996 19.6734C19.9996 19.8538 19.8329 20 19.6273 20H4.37227C4.16667 20 4 19.8538 4 19.6734C4 19.493 4.16667 19.3468 4.37227 19.3468Z" fill="white" fill-opacity="0.84"/>
</svg>
