<svg width="24" height="24" viewBox="0 0 24 24" fill="none" xmlns="http://www.w3.org/2000/svg">
<path d="M13.0727 5C11.3767 5.00187 9.74035 5.65034 8.4737 6.82252C7.20704 7.99469 6.39813 9.60912 6.20028 11.3598L5.26519 10.3879C5.19655 10.3163 5.11502 10.2595 5.02524 10.2206C4.93546 10.1817 4.8392 10.1616 4.74195 10.1614C4.6447 10.1613 4.54836 10.181 4.45844 10.2195C4.36853 10.258 4.28678 10.3145 4.21789 10.3859C4.14899 10.4572 4.09429 10.542 4.05691 10.6353C4.01952 10.7286 4.00018 10.8286 4 10.9297C3.99982 11.0308 4.01879 11.1309 4.05584 11.2244C4.09289 11.3178 4.14728 11.4028 4.21592 11.4744L6.45768 13.7855C6.52605 13.8577 6.60756 13.915 6.69746 13.9541C6.78736 13.9933 6.88386 14.0134 6.98133 14.0134C7.0788 14.0134 7.17529 13.9933 7.26519 13.9541C7.35509 13.915 7.4366 13.8577 7.50498 13.7855L9.74772 11.4744C9.8866 11.3301 9.96462 11.1343 9.96462 10.9301C9.96462 10.726 9.8866 10.5302 9.74772 10.3859C9.60884 10.2415 9.42047 10.1604 9.22407 10.1604C9.02766 10.1604 8.8393 10.2415 8.70042 10.3859L7.67133 11.4555C7.80899 10.3744 8.24357 9.35747 8.92301 8.5265C9.60244 7.69553 10.4979 7.08574 11.5022 6.77015C12.5066 6.45456 13.5771 6.44656 14.5857 6.74709C15.5942 7.04763 16.4981 7.64397 17.189 8.46469C17.8798 9.28542 18.3284 10.2957 18.4811 11.3746C18.6337 12.4535 18.4838 13.5553 18.0495 14.548C17.6151 15.5407 16.9147 16.3822 16.032 16.9717C15.1494 17.5612 14.1219 17.8739 13.0727 17.8721C12.8778 17.8721 12.6908 17.9526 12.553 18.0958C12.4151 18.2391 12.3377 18.4334 12.3377 18.636C12.3377 18.8387 12.4151 19.033 12.553 19.1762C12.6908 19.3195 12.8778 19.4 13.0727 19.4C14.9099 19.4 16.6719 18.6414 17.971 17.2912C19.2702 15.9409 20 14.1096 20 12.2C20 10.2904 19.2702 8.45909 17.971 7.10883C16.6719 5.75857 14.9099 5 13.0727 5Z" fill="white" fill-opacity="0.84"/>
<path d="M12.8699 8.705C12.6751 8.705 12.4882 8.78546 12.3504 8.92868C12.2126 9.07191 12.1352 9.26616 12.1352 9.46871V12.7727C12.1352 12.873 12.1542 12.9723 12.1911 13.0649C12.228 13.1576 12.2821 13.2418 12.3504 13.3127C12.4186 13.3836 12.4996 13.4399 12.5888 13.4782C12.6779 13.5166 12.7735 13.5364 12.8699 13.5364H15.3873C15.5823 13.5364 15.7692 13.4559 15.9071 13.3126C16.0449 13.1693 16.1223 12.975 16.1223 12.7724C16.1223 12.5698 16.0449 12.3755 15.9071 12.2322C15.7692 12.0889 15.5823 12.0084 15.3873 12.0084H13.6052V9.46871C13.6052 9.36837 13.5862 9.26902 13.5492 9.17633C13.5123 9.08364 13.4581 8.99943 13.3898 8.9285C13.3216 8.85758 13.2405 8.80133 13.1513 8.76298C13.0621 8.72463 12.9665 8.70493 12.8699 8.705Z" fill="white" fill-opacity="0.84"/>
</svg>
