<svg width="24" height="24" viewBox="0 0 24 24" fill="none" xmlns="http://www.w3.org/2000/svg">
<path d="M4.04093 12.3834C4.01742 12.3177 4.00364 12.2489 4 12.1793C4.00321 12.0978 4.02318 12.0178 4.05868 11.9441C4.09419 11.8705 4.14449 11.8048 4.20652 11.7509L11.7214 5.12226C11.8017 5.05132 11.9033 5.00837 12.0107 5L12.3 5.12226L19.7934 11.7509C19.8587 11.802 19.9112 11.8672 19.947 11.9415C19.9828 12.0157 20.0009 12.0971 20 12.1793C19.9963 12.2489 19.9825 12.3177 19.959 12.3834C19.9143 12.4956 19.8336 12.5903 19.7293 12.6529C19.625 12.7155 19.5027 12.7425 19.3813 12.7299H18.1813V19.4H13.7019V15.382C13.7021 15.331 13.692 15.2805 13.6723 15.2334C13.6526 15.1863 13.6237 15.1434 13.5872 15.1074C13.5507 15.0714 13.5074 15.0428 13.4597 15.0233C13.4121 15.0039 13.3609 14.9939 13.3094 14.9941H10.7297C10.6781 14.9939 10.627 15.0039 10.5793 15.0233C10.5316 15.0428 10.4883 15.0714 10.4518 15.1074C10.4153 15.1434 10.3864 15.1863 10.3667 15.2334C10.347 15.2805 10.337 15.331 10.3371 15.382V19.4H5.81685V12.7309H4.61957C4.49841 12.7403 4.37731 12.7119 4.27345 12.6495C4.16958 12.5871 4.08823 12.494 4.04093 12.3834Z" fill="white" fill-opacity="0.84"/>
</svg>
