<svg width="24" height="24" viewBox="0 0 24 24" fill="none" xmlns="http://www.w3.org/2000/svg">
<path d="M18.921 10.4014C19.4182 10.4014 19.7914 9.97468 19.7914 9.50539C19.7914 9.0361 19.3768 8.60937 18.921 8.60937H5.07666C4.57938 8.60937 4.20625 9.0361 4.20625 9.50539C4.20625 9.97468 4.62079 10.4014 5.07666 10.4014H18.921Z" fill="white" fill-opacity="0.84"/>
<path d="M18.9221 10.6113H5.07786C4.49757 10.6113 4 10.0994 4 9.50175C4 8.90439 4.49728 8.39219 5.07786 8.39219H18.9221C19.5024 8.39219 20 8.90409 20 9.50175C20 10.0991 19.5025 10.6113 18.9221 10.6113ZM5.07786 8.77635C4.7047 8.77635 4.41456 9.07503 4.41456 9.45916C4.41456 9.84329 4.7047 10.142 5.07786 10.142H18.9221C19.2953 10.142 19.5854 9.84329 19.5854 9.45916C19.5854 9.07503 19.2953 8.77635 18.9221 8.77635H5.07786Z" fill="white" fill-opacity="0.84"/>
<path d="M8.22581 4.38626C8.22581 4.30081 8.1428 4.21562 8.06005 4.21562H7.72852C7.64551 4.21562 7.56276 4.30108 7.56276 4.38626L7.5625 7.7146H8.2258L8.22581 4.38626Z" fill="white" fill-opacity="0.84"/>
<path d="M8.43723 7.92574H7.35938V4.38414C7.35938 4.17091 7.52514 4 7.73253 4H8.06406C8.2712 4 8.43722 4.17064 8.43722 4.38414L8.43723 7.92574ZM7.77419 7.49901H8.0227V4.42674H7.77393L7.77419 7.49901Z" fill="white" fill-opacity="0.84"/>
<path d="M16.3946 4.38626C16.3946 4.30081 16.3115 4.21562 16.2288 4.21562H15.897C15.814 4.21562 15.7312 4.30108 15.7312 4.38626V7.7146H16.3946L16.3946 4.38626Z" fill="white" fill-opacity="0.84"/>
<path d="M16.6029 7.92574H15.525V4.38414C15.525 4.17091 15.6908 4 15.8982 4H16.2297C16.4368 4 16.6028 4.17064 16.6028 4.38414L16.6029 7.92574ZM15.9398 7.49901H16.1886V4.42674H15.9398V7.49901Z" fill="white" fill-opacity="0.84"/>
<path d="M11.2531 19.5781H12.6625V19.7914H11.2531V19.5781Z" fill="white" fill-opacity="0.84"/>
<path d="M11.0469 19.3594H12.8708V19.9993H11.0469V19.3594Z" fill="white" fill-opacity="0.84"/>
<path d="M13.7432 18.7193C15.9816 18.7193 17.8469 16.8417 17.8469 14.4948V11.2094L13.3287 11.2096C13.37 11.3377 13.4117 11.4657 13.37 11.5938L12.9555 13.7271L13.7016 14.1112C13.8673 14.1967 13.9917 14.3673 14.0331 14.538C14.0745 14.7086 14.0331 14.9221 13.9087 15.0499L11.5875 17.8234C11.4631 17.9515 11.2973 18.0367 11.1316 18.0367C10.9658 18.0367 10.7584 17.9512 10.6757 17.8234C10.5513 17.6954 10.5099 17.4822 10.5513 17.3115L10.9658 15.1782L10.2198 14.7941C10.054 14.7086 9.92964 14.538 9.88826 14.3673C9.84688 14.1967 9.88826 13.9832 10.0126 13.8554L12.2095 11.2099L6.075 11.2096V14.4525C6.075 16.7994 7.8989 18.6769 10.1787 18.6769L13.7432 18.6767L13.7432 18.7193Z" fill="white" fill-opacity="0.84"/>
<path d="M13.7413 18.9392H10.1765C7.8139 18.9392 5.86563 16.9337 5.86563 14.5016V11.0455H12.6632L10.1763 14.0324C10.0935 14.1175 10.0521 14.2456 10.0935 14.3736C10.1349 14.5017 10.1765 14.5869 10.3006 14.6723L11.2125 15.1416L10.7566 17.4031C10.7152 17.5311 10.7566 17.6592 10.8396 17.7443C11.0054 17.915 11.2955 17.9576 11.4613 17.7443L13.7825 14.9708C13.8655 14.8853 13.9068 14.7576 13.8655 14.6295C13.8241 14.5015 13.7825 14.4163 13.6583 14.3308L12.7465 13.8615L13.2024 11.6001C13.2024 11.5146 13.2024 11.4294 13.161 11.344L13.0366 11.0453H18.0935V14.5443C18.0519 16.9766 16.1455 18.9392 13.7413 18.9392ZM6.28018 11.472V14.5017C6.28018 16.7205 8.02107 18.5126 10.1765 18.5126H13.7413C15.8966 18.5126 17.6375 16.7205 17.6375 14.5017V11.4294H13.5754V11.6427L13.1609 13.6054L13.7826 13.9041C13.9897 14.0321 14.1557 14.2453 14.2385 14.5014C14.2799 14.7575 14.2385 15.0133 14.0727 15.2268L11.7515 18.0006C11.42 18.3848 10.7981 18.3848 10.5079 18.0006C10.3422 17.7874 10.3008 17.5739 10.3422 17.3178L10.7567 15.3551L10.135 15.0564C9.9279 14.9284 9.76188 14.7152 9.67913 14.4591C9.63775 14.203 9.67912 13.9472 9.84489 13.7337L11.7515 11.4294H6.28009L6.28018 11.472Z" fill="white" fill-opacity="0.84"/>
</svg>
