<svg width="24" height="24" viewBox="0 0 24 24" fill="none" xmlns="http://www.w3.org/2000/svg">
<path d="M17.5618 15.5022V14.2933C17.5618 12.7111 16.3964 11.2889 14.9102 11.2889H8.39111C7.496 11.2889 6.75289 10.6667 6.75289 9.70667V8.49778C7.59733 8.24889 8.39111 7.34222 8.39111 6.29333C8.39111 5.03111 7.41156 4 6.22933 4C5.04711 4 4 5.03111 4 6.29333C4 7.36 4.55733 8.24889 5.57067 8.49778V9.70667C5.57067 11.2889 6.90489 12.7111 8.39111 12.7111H8.77956V15.5022C7.93511 15.7511 7.22578 16.6578 7.22578 17.7067C7.22578 18.9689 8.23911 20 9.43822 20C10.6373 20 11.6 18.9689 11.6 17.7067C11.6 16.64 10.9751 15.7511 9.96178 15.5022V12.7111H14.9102C15.8053 12.7111 16.3796 13.3333 16.3796 14.2933V15.5022C15.5351 15.7511 14.8258 16.6578 14.8258 17.7067C14.8258 18.9689 15.8391 20 17.0382 20C18.2373 20 19.2 18.9689 19.2 17.7067C19.2 16.6578 18.5751 15.7511 17.5618 15.5022ZM5.14844 6.29333C5.14844 5.67111 5.63822 5.15556 6.22933 5.15556C6.82044 5.15556 7.31022 5.67111 7.31022 6.29333C7.31022 6.91556 6.82044 7.43111 6.22933 7.43111C5.63822 7.43111 5.14844 6.91556 5.14844 6.29333ZM10.5698 17.7067C10.5698 18.3289 10.08 18.8444 9.48889 18.8444C8.89778 18.8444 8.408 18.3289 8.408 17.7067C8.408 17.0844 8.89778 16.5689 9.48889 16.5689C10.08 16.5689 10.5698 17.0844 10.5698 17.7067ZM17.072 18.8444C16.4809 18.8444 15.9911 18.3289 15.9911 17.7067C15.9911 17.0844 16.4809 16.5689 17.072 16.5689C17.6631 16.5689 18.1529 17.0844 18.1529 17.7067C18.1529 18.3467 17.68 18.8444 17.072 18.8444Z" fill="white" fill-opacity="0.84"/>
</svg>
