<svg width="24" height="24" viewBox="0 0 24 24" fill="none" xmlns="http://www.w3.org/2000/svg">
<path d="M9.63366 18.1982H6.70271C6.46378 18.1982 6.23463 18.1033 6.06568 17.9343C5.89673 17.7654 5.80181 17.5362 5.80181 17.2973V14.3663C5.80181 14.1274 5.70689 13.8983 5.53794 13.7293C5.36899 13.5604 5.13984 13.4654 4.9009 13.4654C4.66197 13.4654 4.43282 13.5604 4.26387 13.7293C4.09492 13.8983 4 14.1274 4 14.3663V17.2973C4 18.0141 4.28475 18.7015 4.79161 19.2084C5.29846 19.7153 5.98591 20 6.70271 20H9.63366C9.87259 20 10.1017 19.9051 10.2707 19.7361C10.4396 19.5672 10.5346 19.338 10.5346 19.0991C10.5346 18.8602 10.4396 18.631 10.2707 18.4621C10.1017 18.2931 9.87259 18.1982 9.63366 18.1982Z" fill="white" fill-opacity="0.84"/>
<path d="M19.099 13.4654C18.8601 13.4654 18.6309 13.5604 18.462 13.7293C18.293 13.8983 18.1981 14.1274 18.1981 14.3663V17.2973C18.1981 17.5362 18.1032 17.7654 17.9342 17.9343C17.7653 18.1033 17.5361 18.1982 17.2972 18.1982H14.3663C14.1273 18.1982 13.8982 18.2931 13.7292 18.4621C13.5603 18.631 13.4654 18.8602 13.4654 19.0991C13.4654 19.338 13.5603 19.5672 13.7292 19.7361C13.8982 19.9051 14.1273 20 14.3663 20H17.2972C18.014 20 18.7015 19.7153 19.2083 19.2084C19.7152 18.7015 19.9999 18.0141 19.9999 17.2973V14.3663C19.9999 14.1274 19.905 13.8983 19.7361 13.7293C19.5671 13.5604 19.338 13.4654 19.099 13.4654Z" fill="white" fill-opacity="0.84"/>
<path d="M9.63366 4H6.70271C5.98591 4 5.29846 4.28475 4.79161 4.79161C4.28475 5.29846 4 5.98591 4 6.70271V9.63366C4 9.87259 4.09492 10.1017 4.26387 10.2707C4.43282 10.4396 4.66197 10.5346 4.9009 10.5346C5.13984 10.5346 5.36899 10.4396 5.53794 10.2707C5.70689 10.1017 5.80181 9.87259 5.80181 9.63366V6.70271C5.80181 6.46378 5.89673 6.23463 6.06568 6.06568C6.23463 5.89673 6.46378 5.80181 6.70271 5.80181H9.63366C9.87259 5.80181 10.1017 5.70689 10.2707 5.53794C10.4396 5.36899 10.5346 5.13984 10.5346 4.9009C10.5346 4.66197 10.4396 4.43282 10.2707 4.26387C10.1017 4.09492 9.87259 4 9.63366 4Z" fill="white" fill-opacity="0.84"/>
<path d="M17.2972 4H14.3663C14.1273 4 13.8982 4.09492 13.7292 4.26387C13.5603 4.43282 13.4654 4.66197 13.4654 4.9009C13.4654 5.13984 13.5603 5.36899 13.7292 5.53794C13.8982 5.70689 14.1273 5.80181 14.3663 5.80181H17.2972C17.5361 5.80181 17.7653 5.89673 17.9342 6.06568C18.1032 6.23463 18.1981 6.46378 18.1981 6.70271V9.63366C18.1981 9.87259 18.293 10.1017 18.462 10.2707C18.6309 10.4396 18.8601 10.5346 19.099 10.5346C19.338 10.5346 19.5671 10.4396 19.7361 10.2707C19.905 10.1017 19.9999 9.87259 19.9999 9.63366V6.70271C19.9999 5.98591 19.7152 5.29846 19.2083 4.79161C18.7015 4.28475 18.014 4 17.2972 4Z" fill="white" fill-opacity="0.84"/>
</svg>
