<svg width="24" height="24" viewBox="0 0 24 24" fill="none" xmlns="http://www.w3.org/2000/svg">
<path d="M7.7059 8.59783C6.81887 8.45386 5.95575 8.18545 5.14151 7.80042C4.44706 8.96751 4.05432 10.2942 4 11.6569H7.30831C7.3284 10.6254 7.46186 9.59928 7.7059 8.59783Z" fill="white" fill-opacity="0.84"/>
<path d="M8.41383 15.284C9.48503 15.1324 10.5648 15.0512 11.6463 15.0409V12.379H8.02176C8.04545 13.3591 8.17696 14.3335 8.41383 15.284Z" fill="white" fill-opacity="0.84"/>
<path d="M7.31108 12.379H4.00309C4.06249 13.7297 4.45449 15.0438 5.14285 16.201C5.95747 15.8156 6.82072 15.547 7.70813 15.4031C7.46656 14.4129 7.3334 13.3988 7.31108 12.379Z" fill="white" fill-opacity="0.84"/>
<path d="M11.6458 19.6482V15.7575C10.6312 15.7676 9.61815 15.8414 8.61255 15.9785C9.26212 17.9934 10.3792 19.4202 11.6458 19.6482Z" fill="white" fill-opacity="0.84"/>
<path d="M12.3573 4.35322V8.24417C13.372 8.23397 14.385 8.16028 15.3908 8.02324C14.7411 6.00821 13.624 4.58118 12.3573 4.35322Z" fill="white" fill-opacity="0.84"/>
<path d="M15.5901 8.71614C14.5188 8.86767 13.439 8.94891 12.3573 8.95924V11.6562H15.9825C15.9612 10.6643 15.8296 9.67806 15.5901 8.71614Z" fill="white" fill-opacity="0.84"/>
<path d="M8.02176 11.6562H11.6469V8.95924C10.5653 8.94891 9.48553 8.86767 8.41447 8.71614C8.175 9.67806 8.0431 10.6643 8.02176 11.6562Z" fill="white" fill-opacity="0.84"/>
<path d="M8.61255 8.02319C9.61815 8.16011 10.6312 8.23392 11.6458 8.24412V4.35316C10.3792 4.58127 9.26212 6.00803 8.61255 8.02319Z" fill="white" fill-opacity="0.84"/>
<path d="M15.3908 15.9785C14.385 15.8414 13.372 15.7676 12.3573 15.7575V19.6482C13.624 19.4202 14.7411 17.9933 15.3908 15.9785Z" fill="white" fill-opacity="0.84"/>
<path d="M10.558 4C8.54428 4.37397 6.74806 5.51701 5.53851 7.19447C6.29015 7.53681 7.08343 7.77588 7.89731 7.9055C8.47148 6.06794 9.41966 4.65618 10.558 4Z" fill="white" fill-opacity="0.84"/>
<path d="M15.9822 12.379H12.3573V15.0409C13.439 15.0512 14.5187 15.1324 15.5901 15.284C15.827 14.3335 15.9585 13.3591 15.9822 12.379Z" fill="white" fill-opacity="0.84"/>
<path d="M13.4405 19.9995C15.4557 19.6258 17.2532 18.4817 18.4631 16.8027C17.7114 16.4605 16.9184 16.2214 16.1047 16.092C15.5299 17.9314 14.5803 19.3443 13.4405 19.9995Z" fill="white" fill-opacity="0.84"/>
<path d="M7.8983 16.092C7.08406 16.2215 6.29049 16.4608 5.53851 16.8034C6.74885 18.4827 8.54723 19.6268 10.5634 20C9.42309 19.3448 8.4732 17.9318 7.8983 16.092Z" fill="white" fill-opacity="0.84"/>
<path d="M16.296 15.4028C17.1828 15.5467 18.0456 15.815 18.8597 16.2C19.548 15.043 19.9398 13.7293 19.9992 12.379H16.6931C16.6706 13.3988 16.5374 14.4127 16.296 15.4028Z" fill="white" fill-opacity="0.84"/>
<path d="M16.1033 7.90498C16.9167 7.77538 17.7095 7.53656 18.4607 7.1946C17.2518 5.51762 15.4565 4.37446 13.4435 4C14.5814 4.65647 15.5293 6.06765 16.1033 7.90498Z" fill="white" fill-opacity="0.84"/>
<path d="M16.6936 11.6559H20C19.9457 10.2936 19.5532 8.96725 18.859 7.80042C18.045 8.1851 17.1825 8.45311 16.296 8.59709C16.54 9.59857 16.6734 10.6245 16.6936 11.6559Z" fill="white" fill-opacity="0.84"/>
</svg>
