<svg width="24" height="24" viewBox="0 0 24 24" fill="none" xmlns="http://www.w3.org/2000/svg">
<path d="M15.9545 14.8493C16.8838 13.6803 17.3941 12.2009 17.3941 10.7032C17.3941 7.01369 14.3873 4 10.6879 4C6.9886 4 4 7.01375 4 10.7032C4 14.3927 7.00676 17.4063 10.6879 17.4063C12.164 17.4063 13.64 16.8949 14.8246 15.9635L18.2785 19.4253C18.595 19.7425 19.1088 19.7425 19.4253 19.4253C19.7423 19.1076 19.7405 18.5927 19.4214 18.2772L15.9545 14.8493ZM10.688 15.8173C7.89983 15.8173 5.62193 13.5342 5.62193 10.7397C5.62193 7.94519 7.89983 5.66209 10.688 5.66209C13.4761 5.66209 15.754 7.94519 15.754 10.7397C15.754 13.5342 13.4761 15.8173 10.688 15.8173Z" fill="white" fill-opacity="0.84"/>
</svg>
