<svg width="24" height="24" viewBox="0 0 24 24" fill="none" xmlns="http://www.w3.org/2000/svg">
<path fill-rule="evenodd" clip-rule="evenodd" d="M18.5064 11.7199L18.8529 11.5245C19.2523 11.2528 19.5 10.8907 19.5 10.5038C19.5 9.56832 19.3093 8.64265 18.9396 7.78333L18.0236 5.6546C17.8587 5.27161 17.5415 5 17.1075 5H5.89321C5.4585 5 5.142 5.27161 4.97706 5.6546L4.06066 7.78342C3.69077 8.64267 3.5 9.56833 3.5 10.5038C3.5 11.8156 6.10416 12.5706 7.6835 11.4951C8.03741 11.2542 8.28647 10.9239 8.28647 10.5038H9.10714C9.10714 11.811 11.7174 12.5646 13.2465 11.5245C13.6458 11.2528 13.8936 10.8907 13.8936 10.5038H14.7143C14.7143 11.7407 16.9812 12.4285 18.5064 11.7199ZM9.88502 18.9999H13.1155V15.1935C13.1155 14.9909 12.9446 14.8242 12.7369 14.8242H10.2635C10.0559 14.8242 9.88492 14.9909 9.88492 15.1935L9.88502 18.9999ZM11.5003 12.8122C12.5787 12.8122 13.6885 12.4123 14.2961 11.6456C15.1528 12.723 16.985 13.0278 18.308 12.6448V18.1363C18.308 18.617 17.8986 19 17.4058 19H13.9362V15.1936C13.9362 14.5494 13.3973 14.0238 12.7369 14.0238H10.2635C9.60313 14.0238 9.06427 14.5494 9.06427 15.1936V19H5.59394C5.10114 19 4.69182 18.617 4.69182 18.1363L4.69249 12.6448C6.01597 13.0278 7.84828 12.723 8.70436 11.6456C9.31202 12.4123 10.422 12.8122 11.5003 12.8122Z" fill="white" fill-opacity="0.84"/>
</svg>
