<svg width="24" height="24" viewBox="0 0 24 24" fill="none" xmlns="http://www.w3.org/2000/svg">
<path d="M17.0144 4H6V20H18.8V5.81718L17.0144 4ZM8.39334 17.2435C8.2398 17.2379 8.09124 17.1847 7.96616 17.0906C7.84108 16.9966 7.74503 16.8657 7.68998 16.7145C7.63493 16.5632 7.62331 16.3982 7.65658 16.24C7.68985 16.0818 7.76653 15.9375 7.87706 15.8249C7.9876 15.7124 8.12709 15.6367 8.27815 15.6072C8.42921 15.5778 8.58516 15.5958 8.72655 15.6592C8.86793 15.7226 8.9885 15.8285 9.07322 15.9636C9.15794 16.0988 9.20306 16.2572 9.20296 16.4193C9.19894 16.6417 9.11145 16.8534 8.95968 17.0079C8.80791 17.1624 8.60424 17.2471 8.39334 17.2435ZM8.39334 14.2975C8.23982 14.2919 8.09128 14.2387 7.96621 14.1447C7.84114 14.0506 7.74509 13.9198 7.69002 13.7686C7.63496 13.6173 7.62331 13.4524 7.65654 13.2942C7.68977 13.136 7.7664 12.9917 7.87689 12.8791C7.98737 12.7666 8.12682 12.6908 8.27785 12.6613C8.42888 12.6317 8.58481 12.6497 8.7262 12.713C8.8676 12.7763 8.9882 12.8821 9.07298 13.0172C9.15776 13.1523 9.20297 13.3107 9.20296 13.4727C9.19907 13.6953 9.11164 13.9071 8.95985 14.0617C8.80807 14.2163 8.60433 14.3011 8.39334 14.2975ZM8.39334 11.3515C8.23982 11.3459 8.09128 11.2927 7.96621 11.1987C7.84114 11.1046 7.74509 10.9738 7.69002 10.8226C7.63496 10.6713 7.62331 10.5063 7.65654 10.3482C7.68977 10.19 7.7664 10.0457 7.87689 9.9331C7.98737 9.82055 8.12682 9.74479 8.27785 9.71526C8.42888 9.68573 8.58481 9.70373 8.7262 9.76703C8.8676 9.83032 8.9882 9.93611 9.07298 10.0712C9.15776 10.2063 9.20297 10.3647 9.20296 10.5267C9.19907 10.7493 9.11164 10.9611 8.95985 11.1157C8.80807 11.2703 8.60433 11.3551 8.39334 11.3515ZM8.39334 8.40548C8.23982 8.39986 8.09128 8.34671 7.96621 8.25265C7.84114 8.1586 7.74509 8.0278 7.69002 7.87656C7.63496 7.72532 7.62331 7.56034 7.65654 7.40217C7.68977 7.244 7.7664 7.09964 7.87689 6.98709C7.98737 6.87454 8.12682 6.79878 8.27785 6.76925C8.42888 6.73971 8.58481 6.75772 8.7262 6.82102C8.8676 6.88431 8.9882 6.9901 9.07298 7.1252C9.15776 7.26029 9.20297 7.41872 9.20296 7.58072C9.19907 7.80325 9.11164 8.01506 8.95985 8.16968C8.80807 8.3243 8.60433 8.4091 8.39334 8.40548ZM16.9867 16.5177H9.69269V16.3203H16.9872L16.9867 16.5177ZM16.9867 13.5717H9.69269V13.3723H16.9872L16.9867 13.5717ZM16.9867 10.6257H9.69269V10.4283H16.9872L16.9867 10.6257ZM16.9867 7.67965H9.69269V7.48231H16.9872L16.9867 7.67965Z" fill="white" fill-opacity="0.84"/>
</svg>
