<svg width="24" height="24" viewBox="0 0 24 24" fill="none" xmlns="http://www.w3.org/2000/svg">
<path d="M12.6896 11.8722L13.3324 12.1705C12.1239 13.0138 11.3333 14.4146 11.3333 16C11.3333 16.2194 11.3485 16.4353 11.3778 16.6466C10.9574 16.6596 10.4989 16.6667 9.99896 16.6667C4.35485 16.6667 4 15.7616 4 15.7616L4.36877 13.8742C4.45306 13.4297 4.74515 13.0535 5.15275 12.8639L7.24058 11.8934V11.8536L8.13363 11.1777C8.15564 11.072 8.20531 10.9742 8.27748 10.8946V9.77206C8.06407 9.44868 7.88009 9.1066 7.72766 8.74997C7.38493 8.51848 7.16746 8.1405 7.1385 7.72563C7.11293 7.23684 7.27523 7.12232 7.4283 7.10356C7.4283 7.10356 7.01307 4 9.9336 4C12.6548 4 12.4622 6.68971 12.4227 7.0615C12.5805 7.06376 12.7569 7.19231 12.7383 7.72563C12.713 8.14164 12.4947 8.52125 12.1491 8.74997C11.9964 9.10839 11.8116 9.45196 11.597 9.77661L11.5969 10.8993H11.6085C11.6855 10.9806 11.7384 11.0817 11.7616 11.1917L12.6595 11.8722H12.6896Z" fill="white" fill-opacity="0.84"/>
<path fill-rule="evenodd" clip-rule="evenodd" d="M17.3333 14.6667V15.3333H17.8333C17.9254 15.3333 18 15.4079 18 15.5V17.8333C18 17.9254 17.9254 18 17.8333 18H14.1667C14.0746 18 14 17.9254 14 17.8333V15.5C14 15.4079 14.0746 15.3333 14.1667 15.3333H14.6667V14.6667C14.6667 13.9303 15.2636 13.3333 16 13.3333C16.7364 13.3333 17.3333 13.9303 17.3333 14.6667ZM16.6667 15.3333V14.6667C16.6667 14.2985 16.3682 14 16 14C15.6318 14 15.3333 14.2985 15.3333 14.6667V15.3333H16.6667Z" fill="white" fill-opacity="0.84"/>
<path fill-rule="evenodd" clip-rule="evenodd" d="M16 20C18.2091 20 20 18.2091 20 16C20 13.7909 18.2091 12 16 12C13.7909 12 12 13.7909 12 16C12 18.2091 13.7909 20 16 20ZM16.0002 19.4288C17.8937 19.4288 19.4288 17.8937 19.4288 16.0002C19.4288 14.1066 17.8937 12.5716 16.0002 12.5716C14.1066 12.5716 12.5716 14.1066 12.5716 16.0002C12.5716 17.8937 14.1066 19.4288 16.0002 19.4288Z" fill="white" fill-opacity="0.84"/>
</svg>
