<svg width="24" height="24" viewBox="0 0 24 24" fill="none" xmlns="http://www.w3.org/2000/svg">
<path fill-rule="evenodd" clip-rule="evenodd" d="M5.1718 6.37305H18.8282C19.4732 6.37305 20 6.89912 20 7.54485V11.2261C20 11.8714 19.4732 12.3979 18.8282 12.3979H17.4959V11.2733C17.4959 10.7713 17.0868 10.3627 16.5853 10.3627H7.41374C6.91174 10.3627 6.5029 10.7713 6.5029 11.2733V12.3979H5.1718C4.52656 12.3979 4 11.8714 4 11.2261V7.54485C4 6.89912 4.52656 6.37305 5.1718 6.37305ZM14.392 16.5768C14.8478 17.0326 14.1551 17.7255 13.6996 17.2695C13.1151 16.685 12.995 15.7516 13.6264 15.1209C13.8448 14.7666 14.0688 14.3974 13.6273 13.9555C13.1716 13.4999 13.8642 12.8072 14.3203 13.263C15.3062 14.2493 14.876 14.9534 14.4591 15.6317C14.2648 15.9496 14.0756 16.2604 14.392 16.5768ZM18.521 16.5768C18.9768 17.0326 18.2841 17.7255 17.8281 17.2695C17.2442 16.685 17.1243 15.7516 17.7549 15.1209C17.9738 14.7666 18.198 14.3974 17.7564 13.9555C17.3006 13.4999 17.9932 12.8072 18.4493 13.263C19.4353 14.2493 19.005 14.9534 18.5881 15.6317C18.3938 15.9496 18.2046 16.2604 18.521 16.5768ZM6.13687 16.5768C6.59265 17.0326 5.89998 17.7255 5.44395 17.2695C4.85951 16.685 4.73985 15.7516 5.37075 15.1209C5.58964 14.7666 5.81388 14.3974 5.37172 13.9555C4.91643 13.4999 5.60861 12.8072 6.06463 13.263C7.05062 14.2493 6.62086 14.9534 6.20351 15.6317C6.00918 15.9496 5.81996 16.2604 6.13687 16.5768ZM10.2644 16.5768C10.7202 17.0326 10.0275 17.7255 9.57152 17.2695C8.98708 16.685 8.86742 15.7516 9.49831 15.1209C9.7172 14.7666 9.9412 14.3974 9.49977 13.9555C9.04399 13.4999 9.73666 12.8072 10.1922 13.263C11.1787 14.2493 10.7484 14.9534 10.3316 15.6317C10.1367 15.9496 9.94753 16.2604 10.2644 16.5768ZM7.36388 12.3984H16.6349V11.6702C16.6349 11.3453 16.3698 11.0799 16.0446 11.0799H7.95415C7.62898 11.0799 7.36388 11.3453 7.36388 11.6702V12.3984Z" fill="white" fill-opacity="0.84"/>
</svg>
