<svg width="24" height="24" viewBox="0 0 24 24" fill="none" xmlns="http://www.w3.org/2000/svg">
<path d="M12 4C9.87833 4 7.84331 4.8429 6.34315 6.34315C4.8429 7.84353 4 9.87833 4 12C4 14.1217 4.8429 16.1567 6.34315 17.6568C7.84353 19.1571 9.87833 20 12 20C14.1217 20 16.1567 19.1571 17.6568 17.6568C19.1571 16.1565 20 14.1217 20 12C20 9.87833 19.1571 7.84331 17.6568 6.34316C16.1565 4.8429 14.1217 4 12 4ZM11.2728 7.63648C11.2728 7.37666 11.4113 7.13656 11.6363 7.00665C11.8613 6.87673 12.1387 6.87673 12.3637 7.00665C12.5887 7.13656 12.7272 7.37665 12.7272 7.63648V12.7273C12.7272 12.9871 12.5887 13.2272 12.3637 13.3571C12.1387 13.487 11.8613 13.487 11.6363 13.3571C11.4113 13.2272 11.2728 12.9871 11.2728 12.7273V7.63648ZM12 17.0909C11.7107 17.0909 11.4332 16.976 11.2286 16.7715C11.024 16.5669 10.9091 16.2894 10.9091 16C10.9091 15.7107 11.024 15.4333 11.2286 15.2287C11.4332 15.0241 11.7107 14.9091 12 14.9091C12.2893 14.9091 12.5668 15.0241 12.7714 15.2287C12.976 15.4333 13.0909 15.7108 13.0909 16C13.0909 16.2894 12.976 16.5669 12.7714 16.7715C12.5668 16.976 12.2893 17.0909 12 17.0909Z" fill="white" fill-opacity="0.84"/>
</svg>
