<svg width="24" height="24" viewBox="0 0 24 24" fill="none" xmlns="http://www.w3.org/2000/svg">
<path d="M18.7121 8.07395L15.9181 5.2781L16.8349 4.36071C17.0823 4.11317 17.3915 3.99303 17.7626 4.00031C18.1337 4.00759 18.4429 4.13501 18.6903 4.38256L19.6289 5.32179C19.8763 5.56934 20 5.87513 20 6.23918C20 6.60322 19.8763 6.90902 19.6289 7.15656L18.7121 8.07395ZM4.65484 20C4.46567 20 4.30923 19.9381 4.18554 19.8143C4.06185 19.6906 4 19.534 4 19.3447V17.4663C4 17.3789 4.01455 17.2988 4.04366 17.226C4.07276 17.1532 4.12369 17.0804 4.19645 17.0076L15.0014 6.19549L17.7954 8.99134L6.99045 19.8034C6.91769 19.8762 6.84493 19.9272 6.77217 19.9563C6.69941 19.9854 6.61937 20 6.53206 20H4.65484Z" fill="white" fill-opacity="0.84"/>
</svg>
