<svg width="24" height="24" viewBox="0 0 24 24" fill="none" xmlns="http://www.w3.org/2000/svg">
<path d="M17.776 19.9984H5.37736C5.01206 19.9984 4.66172 19.8533 4.40342 19.5949C4.14511 19.3366 4 18.9863 4 18.621V6.22234C4 5.85705 4.14511 5.50671 4.40342 5.24841C4.66172 4.9901 5.01206 4.84499 5.37736 4.84499H10.8884C10.9789 4.84499 11.0684 4.8628 11.152 4.89741C11.2355 4.93202 11.3114 4.98275 11.3754 5.0467C11.4393 5.11065 11.4901 5.18657 11.5247 5.27012C11.5593 5.35367 11.5771 5.44323 11.5771 5.53367C11.5771 5.6241 11.5593 5.71366 11.5247 5.79721C11.4901 5.88077 11.4393 5.95669 11.3754 6.02064C11.3114 6.08458 11.2355 6.13531 11.152 6.16992C11.0684 6.20453 10.9789 6.22234 10.8884 6.22234H5.37736V18.621H17.776V13.1108C17.776 12.9281 17.8486 12.7529 17.9777 12.6238C18.1069 12.4946 18.2821 12.4221 18.4647 12.4221C18.6473 12.4221 18.8225 12.4946 18.9517 12.6238C19.0808 12.7529 19.1534 12.9281 19.1534 13.1108V18.621C19.1534 18.9863 19.0083 19.3366 18.75 19.5949C18.4917 19.8533 18.1413 19.9984 17.776 19.9984Z" fill="white" fill-opacity="0.84"/>
<path d="M19.3052 9.51313C19.1225 9.51313 18.9474 9.44057 18.8182 9.31142C18.689 9.18227 18.6165 9.0071 18.6165 8.82445V5.38024H15.1739C15.0835 5.38024 14.9939 5.36243 14.9104 5.32782C14.8268 5.29321 14.7509 5.24248 14.6869 5.17853C14.623 5.11458 14.5723 5.03866 14.5377 4.95511C14.5031 4.87155 14.4852 4.782 14.4852 4.69156C14.4852 4.60112 14.5031 4.51157 14.5377 4.42801C14.5723 4.34446 14.623 4.26854 14.6869 4.20459C14.7509 4.14064 14.8268 4.08991 14.9104 4.0553C14.9939 4.0207 15.0835 4.00288 15.1739 4.00288H19.3052C19.4878 4.00288 19.663 4.07544 19.7921 4.20459C19.9213 4.33374 19.9938 4.50891 19.9938 4.69156V8.82282C19.9941 8.91339 19.9764 9.00312 19.9419 9.08686C19.9074 9.17061 19.8567 9.24672 19.7927 9.31084C19.7287 9.37496 19.6528 9.42584 19.5691 9.46055C19.4854 9.49526 19.3957 9.51313 19.3052 9.51313Z" fill="white" fill-opacity="0.84"/>
<path d="M13.1079 11.58C12.9709 11.5811 12.8367 11.5413 12.7225 11.4658C12.6082 11.3903 12.5191 11.2824 12.4664 11.1559C12.4138 11.0294 12.4001 10.8901 12.4271 10.7558C12.454 10.6215 12.5204 10.4983 12.6177 10.402L18.8166 4.20303C18.9466 4.07303 19.123 4 19.3068 4C19.4907 4 19.667 4.07303 19.797 4.20303C19.927 4.33303 20 4.50935 20 4.69319C20 4.87704 19.927 5.05336 19.797 5.18336L13.5972 11.3806C13.5328 11.4445 13.4564 11.4949 13.3724 11.5291C13.2885 11.5633 13.1986 11.5806 13.1079 11.58Z" fill="white" fill-opacity="0.84"/>
</svg>
