<svg width="24" height="24" viewBox="0 0 24 24" fill="none" xmlns="http://www.w3.org/2000/svg">
<path d="M14.7142 17.108L12.3008 15.2256C11.9865 14.98 11.7286 15.1352 11.7286 15.5698V16.5718C8.62511 16.0616 6.58212 14.5833 6.09106 14.0835C2.77988 10.7167 7.99814 7.55563 7.99814 7.55563C7.99814 7.55563 1.25717 10.1405 5.28113 15.0356C6.92195 17.0314 9.64972 17.8829 11.7288 18.2465V19.5393C11.7288 19.9752 11.9868 20.1289 12.301 19.8841L14.7145 18.001C15.0297 17.7552 15.0295 17.3535 14.7142 17.108Z" fill="white" fill-opacity="0.84"/>
<path d="M12.6861 12.8885C11.9875 12.8885 11.3896 12.7043 10.8927 12.336C10.3957 11.9594 10.0103 11.4397 9.73663 10.7767C9.47013 10.1055 9.33688 9.32788 9.33688 8.44387C9.33688 7.56804 9.47013 6.79454 9.73663 6.12334C10.0103 5.45215 10.3957 4.93239 10.8927 4.56405C11.3896 4.18753 11.9875 3.99927 12.6861 3.99927C13.3848 3.99927 13.9826 4.18753 14.4796 4.56405C14.9766 4.93239 15.3583 5.45215 15.6248 6.12334C15.8985 6.79454 16.0354 7.56804 16.0354 8.44387C16.0354 9.32788 15.8985 10.1055 15.6248 10.7767C15.3583 11.4397 14.9766 11.9594 14.4796 12.336C13.9826 12.7043 13.3848 12.8885 12.6861 12.8885ZM12.6861 11.4765C13.2551 11.4765 13.7197 11.2064 14.0798 10.6662C14.44 10.1259 14.62 9.38517 14.62 8.44387C14.62 7.50256 14.44 6.76179 14.0798 6.22157C13.7197 5.68134 13.2551 5.41123 12.6861 5.41123C12.1099 5.41123 11.6417 5.68134 11.2816 6.22157C10.9287 6.76179 10.7522 7.50256 10.7522 8.44387C10.7522 9.38517 10.9287 10.1259 11.2816 10.6662C11.6417 11.2064 12.1099 11.4765 12.6861 11.4765Z" fill="white" fill-opacity="0.84"/>
<path d="M18.455 7.51075C18.1813 7.51075 17.9292 7.44117 17.6987 7.30202C17.4683 7.15469 17.281 6.95006 17.1369 6.68813C17.0001 6.4262 16.9317 6.11925 16.9317 5.76728C16.9317 5.40713 17.0001 5.09609 17.1369 4.83416C17.281 4.56405 17.4683 4.35942 17.6987 4.22027C17.9364 4.07294 18.1921 3.99927 18.4658 3.99927C18.7467 3.99927 19.0024 4.07294 19.2329 4.22027C19.4634 4.35942 19.6471 4.56405 19.7839 4.83416C19.928 5.09609 20 5.40713 20 5.76728C20 6.11925 19.928 6.4262 19.7839 6.68813C19.6471 6.95006 19.4598 7.15469 19.2221 7.30202C18.9916 7.44117 18.7359 7.51075 18.455 7.51075ZM18.455 6.50396C18.6063 6.50396 18.7467 6.44257 18.8764 6.31979C19.0132 6.19701 19.0817 6.00875 19.0817 5.75501C19.0817 5.50126 19.0168 5.313 18.8872 5.19022C18.7575 5.06744 18.6171 5.00605 18.4658 5.00605C18.3218 5.00605 18.1813 5.06744 18.0445 5.19022C17.9148 5.313 17.85 5.50126 17.85 5.75501C17.85 6.00875 17.9148 6.19701 18.0445 6.31979C18.1741 6.44257 18.311 6.50396 18.455 6.50396Z" fill="white" fill-opacity="0.84"/>
</svg>
