<svg width="24" height="24" viewBox="0 0 24 24" fill="none" xmlns="http://www.w3.org/2000/svg">
<path d="M18.5739 14.1236C18.6385 14.1236 18.7023 14.1382 18.7604 14.1662C18.8186 14.1942 18.8695 14.2349 18.9094 14.2852C18.9492 14.3355 18.977 14.3942 18.9905 14.4567C19.0041 14.5192 19.0031 14.5839 18.9876 14.646C18.676 15.9062 18.0171 17.0563 17.0842 17.9684C16.1513 18.8806 14.9809 19.5192 13.7031 19.8131C12.4252 20.1071 11.0899 20.0449 9.84564 19.6336C8.60135 19.2223 7.49677 18.4779 6.65463 17.4831C5.81249 16.4883 5.26577 15.2821 5.07523 13.9985C4.88469 12.715 5.05777 11.4043 5.57528 10.2122C6.09278 9.02002 6.93442 7.99312 8.00667 7.24555C9.07893 6.49798 10.3398 6.05902 11.6492 5.97745C11.7571 5.9708 11.8584 5.92376 11.9325 5.84591C12.0066 5.76807 12.0479 5.66525 12.0481 5.55835V4.41662C12.048 4.33574 12.0715 4.25654 12.1158 4.18854C12.1601 4.12053 12.2233 4.06659 12.2977 4.03318C12.3722 3.99976 12.4549 3.9883 12.5358 4.00014C12.6167 4.01199 12.6925 4.04665 12.754 4.09998L16.482 7.32795C16.5275 7.3675 16.564 7.4162 16.589 7.4708C16.614 7.52541 16.6269 7.58465 16.6269 7.64458C16.6269 7.70452 16.614 7.76377 16.589 7.81838C16.564 7.87298 16.5275 7.92168 16.482 7.96123L12.754 11.1884C12.6925 11.2418 12.6167 11.2764 12.5358 11.2883C12.4549 11.3001 12.3722 11.2886 12.2977 11.2552C12.2233 11.2218 12.1601 11.1679 12.1158 11.0999C12.0715 11.0319 12.048 10.9527 12.0481 10.8718V9.5729C12.048 9.51265 12.0349 9.45312 12.0096 9.39833C11.9843 9.34353 11.9473 9.29474 11.9013 9.25524C11.8553 9.21574 11.8013 9.18646 11.7429 9.16936C11.6845 9.15226 11.6231 9.14774 11.5627 9.15611C10.882 9.24887 10.2381 9.51773 9.69613 9.93549C9.15418 10.3533 8.7334 10.9051 8.47633 11.5353C8.21926 12.1654 8.135 12.8515 8.2321 13.5242C8.3292 14.1969 8.6042 14.8323 9.0293 15.3661C9.4544 15.9 10.0145 16.3134 10.653 16.5646C11.2915 16.8157 11.9858 16.8957 12.6656 16.7964C13.3454 16.6972 13.9866 16.4222 14.5245 15.9992C15.0623 15.5763 15.4777 15.0205 15.7286 14.3879C15.76 14.3097 15.8145 14.2427 15.8849 14.1956C15.9554 14.1485 16.0386 14.1234 16.1236 14.1236H18.5739Z" fill="white" fill-opacity="0.84"/>
</svg>
