<svg width="24" height="24" viewBox="0 0 24 24" fill="none" xmlns="http://www.w3.org/2000/svg">
<path d="M6.77778 20C6.28889 20 5.87037 19.8259 5.52222 19.4778C5.17407 19.1296 5 18.7111 5 18.2222V5.77778C5 5.28889 5.17407 4.87037 5.52222 4.52222C5.87037 4.17407 6.28889 4 6.77778 4H14.7111C14.9481 4 15.1741 4.04444 15.3889 4.13333C15.6037 4.22222 15.7926 4.34815 15.9556 4.51111L18.4889 7.04444C18.6519 7.20741 18.7778 7.3963 18.8667 7.61111C18.9556 7.82593 19 8.05185 19 8.28889V18.2222C19 18.7111 18.8259 19.1296 18.4778 19.4778C18.1296 19.8259 17.7111 20 17.2222 20H6.77778ZM12 17.3333C12.7407 17.3333 13.3704 17.0741 13.8889 16.5556C14.4074 16.037 14.6667 15.4074 14.6667 14.6667C14.6667 13.9259 14.4074 13.2963 13.8889 12.7778C13.3704 12.2593 12.7407 12 12 12C11.2593 12 10.6296 12.2593 10.1111 12.7778C9.59259 13.2963 9.33333 13.9259 9.33333 14.6667C9.33333 15.4074 9.59259 16.037 10.1111 16.5556C10.6296 17.0741 11.2593 17.3333 12 17.3333ZM7.55556 10.2222H13.7778C14.0296 10.2222 14.2407 10.137 14.4111 9.96667C14.5815 9.7963 14.6667 9.58519 14.6667 9.33333V7.55556C14.6667 7.3037 14.5815 7.09259 14.4111 6.92222C14.2407 6.75185 14.0296 6.66667 13.7778 6.66667H7.55556C7.3037 6.66667 7.09259 6.75185 6.92222 6.92222C6.75185 7.09259 6.66667 7.3037 6.66667 7.55556V9.33333C6.66667 9.58519 6.75185 9.7963 6.92222 9.96667C7.09259 10.137 7.3037 10.2222 7.55556 10.2222Z" fill="white" fill-opacity="0.84"/>
</svg>
