<svg width="24" height="24" viewBox="0 0 24 24" fill="none" xmlns="http://www.w3.org/2000/svg">
<path d="M9.33314 4C8.84226 4 8.44428 4.39798 8.44428 4.8889V7.55557C8.44428 8.0465 8.04633 8.44448 7.55543 8.44448H4.88885C4.39796 8.44448 4 8.84245 4 9.33336C4 9.82428 4.39796 10.2222 4.88885 10.2222H7.55543C9.02814 10.2222 10.222 9.02835 10.222 7.55557V4.8889C10.222 4.39798 9.82405 4 9.33314 4Z" fill="white" fill-opacity="0.84"/>
<path d="M19.1111 13.7777H16.4446C14.9718 13.7777 13.778 14.9717 13.778 16.4444V19.1111C13.778 19.602 14.1759 20 14.6668 20C15.1578 20 15.5557 19.602 15.5557 19.1111V16.4444C15.5557 15.9535 15.9536 15.5555 16.4446 15.5555H19.1111C19.6021 15.5555 20 15.1576 20 14.6666C20 14.1757 19.6021 13.7777 19.1111 13.7777Z" fill="white" fill-opacity="0.84"/>
<path d="M16.4446 10.2222H19.1111C19.6021 10.2222 20 9.82428 20 9.33336C20 8.84245 19.6021 8.44448 19.1111 8.44448H16.4446C15.9536 8.44448 15.5557 8.0465 15.5557 7.55557V4.8889C15.5557 4.39798 15.1578 4 14.6668 4C14.1759 4 13.778 4.39798 13.778 4.8889V7.55557C13.778 9.02835 14.9718 10.2222 16.4446 10.2222Z" fill="white" fill-opacity="0.84"/>
<path d="M7.55543 13.7777H4.88885C4.39796 13.7777 4 14.1757 4 14.6666C4 15.1576 4.39796 15.5555 4.88885 15.5555H7.55543C8.04633 15.5555 8.44428 15.9535 8.44428 16.4444V19.1111C8.44428 19.602 8.84224 20 9.33314 20C9.82405 20 10.222 19.602 10.222 19.1111V16.4444C10.222 14.9717 9.02814 13.7777 7.55543 13.7777Z" fill="white" fill-opacity="0.84"/>
</svg>
