<svg width="24" height="24" viewBox="0 0 24 24" fill="none" xmlns="http://www.w3.org/2000/svg">
<path fill-rule="evenodd" clip-rule="evenodd" d="M19 9.63342C19 9.5376 18.9484 9.45009 18.8666 9.40725L16.9356 8.39585C16.902 8.37832 16.8651 8.36915 16.8276 8.36915H14.7551C14.4726 8.36915 14.2016 8.48676 14.0018 8.69605C13.8924 8.8105 13.7442 8.87488 13.5897 8.87488C12.8574 8.87488 11.1426 8.87488 10.4103 8.87488C10.2557 8.87488 10.1076 8.81056 9.99825 8.69611C9.79844 8.48682 9.52744 8.36915 9.24485 8.36915C8.57922 8.36915 7.17242 8.36915 7.17242 8.36915C7.13494 8.36915 7.09798 8.37832 7.06444 8.39585L5.13342 9.40725C5.05162 9.45009 5 9.5376 5 9.63342V18.9276C5 19.5199 5.45835 20 6.02376 20H17.9762C18.5416 20 19 19.5199 19 18.9276C19 16.5194 19 9.63342 19 9.63342ZM17.5517 12.9203V18.4829H6.44828V12.9203H17.5517ZM10.7931 15.3224V16.0809C10.7931 16.2204 10.9013 16.3337 11.0345 16.3337C11.1677 16.3337 11.2759 16.2204 11.2759 16.0809V15.3224C11.2759 15.1828 11.1677 15.0695 11.0345 15.0695C10.9013 15.0695 10.7931 15.1828 10.7931 15.3224ZM12.7241 15.3224V16.0809C12.7241 16.2204 12.8323 16.3337 12.9655 16.3337C13.0987 16.3337 13.2069 16.2204 13.2069 16.0809V15.3224C13.2069 15.1828 13.0987 15.0695 12.9655 15.0695C12.8323 15.0695 12.7241 15.1828 12.7241 15.3224ZM11.7586 15.5752V15.8281C11.7586 15.9676 11.8668 16.0809 12 16.0809C12.1332 16.0809 12.2414 15.9676 12.2414 15.8281V15.5752C12.2414 15.4357 12.1332 15.3224 12 15.3224C11.8668 15.3224 11.7586 15.4357 11.7586 15.5752ZM12.9655 11.151V11.1499C12.9655 10.7313 12.6415 10.3919 12.2419 10.3919H11.7581C11.3585 10.3919 11.0345 10.7313 11.0345 11.1499V11.151C11.0345 11.5696 11.3585 11.909 11.7581 11.909H12.2419C12.6415 11.909 12.9655 11.5696 12.9655 11.151ZM15.8621 9.38055C15.1959 9.38055 14.6552 9.94702 14.6552 10.6448C14.6552 11.3425 15.1959 11.909 15.8621 11.909C16.5282 11.909 17.069 11.3425 17.069 10.6448C17.069 9.94702 16.5282 9.38055 15.8621 9.38055ZM8.1379 9.38055C7.47181 9.38055 6.93102 9.94702 6.93102 10.6448C6.93102 11.3425 7.47181 11.909 8.1379 11.909C8.80405 11.909 9.34484 11.3425 9.34484 10.6448C9.34484 9.94702 8.80405 9.38055 8.1379 9.38055ZM10.069 11.4033H10.3103C10.4436 11.4033 10.5517 11.29 10.5517 11.1505C10.5517 11.0109 10.4436 10.8976 10.3103 10.8976H10.069C9.93574 10.8976 9.82758 11.0109 9.82758 11.1505C9.82758 11.29 9.93574 11.4033 10.069 11.4033ZM13.6897 11.4033H13.931C14.0643 11.4033 14.1724 11.29 14.1724 11.1505C14.1724 11.0109 14.0643 10.8976 13.931 10.8976H13.6897C13.5564 10.8976 13.4483 11.0109 13.4483 11.1505C13.4483 11.29 13.5564 11.4033 13.6897 11.4033ZM12.4827 11.1499V11.151C12.4827 11.2904 12.3749 11.4033 12.2419 11.4033H11.7581C11.6251 11.4033 11.5173 11.2904 11.5173 11.151V11.1499C11.5173 11.0106 11.6251 10.8976 11.7581 10.8976H12.2419C12.3749 10.8976 12.4827 11.0106 12.4827 11.1499ZM15.8621 9.88622C16.2618 9.88622 16.5862 10.2261 16.5862 10.6448C16.5862 11.0634 16.2618 11.4033 15.8621 11.4033C15.4624 11.4033 15.138 11.0634 15.138 10.6448C15.138 10.2261 15.4624 9.88622 15.8621 9.88622ZM8.1379 9.88622C8.53757 9.88622 8.86204 10.2261 8.86204 10.6448C8.86204 11.0634 8.53757 11.4033 8.1379 11.4033C7.73823 11.4033 7.41376 11.0634 7.41376 10.6448C7.41376 10.2261 7.73823 9.88622 8.1379 9.88622ZM8.1379 10.3919C8.27114 10.3919 8.3793 10.5052 8.3793 10.6448C8.3793 10.7843 8.27114 10.8976 8.1379 10.8976C8.00472 10.8976 7.89656 10.7843 7.89656 10.6448C7.89656 10.5052 8.00472 10.3919 8.1379 10.3919ZM15.8621 10.3919C15.9953 10.3919 16.1034 10.5052 16.1034 10.6448C16.1034 10.7843 15.9953 10.8976 15.8621 10.8976C15.7289 10.8976 15.6207 10.7843 15.6207 10.6448C15.6207 10.5052 15.7289 10.3919 15.8621 10.3919Z" fill="white" fill-opacity="0.84"/>
<path d="M7.51561 4H8.21079V8.1871H7.51561V4Z" fill="white" fill-opacity="0.84"/>
<path d="M15.2205 4H15.9156V8.1871H15.2205V4Z" fill="white" fill-opacity="0.84"/>
</svg>
