<svg width="24" height="24" viewBox="0 0 24 24" fill="none" xmlns="http://www.w3.org/2000/svg">
<path d="M10.9484 13.5495V19.518C10.9484 19.7852 10.7167 19.999 10.4673 19.999H4.48104C4.23161 20.0169 4 19.7852 4 19.5358V13.5495C4 13.2823 4.23161 13.0685 4.48104 13.0685H10.4495C10.7167 13.0685 10.9484 13.3001 10.9484 13.5495ZM10.4673 4H4.48104C4.23161 4 4 4.23161 4 4.48104V10.4495C4 10.7167 4.23161 10.9305 4.48104 10.9305H10.4495C10.7167 10.9305 10.9305 10.6989 10.9305 10.4495V4.48104C10.9484 4.23161 10.7167 4 10.4673 4ZM19.5358 13.0685H13.5495C13.2823 13.0685 13.0685 13.3001 13.0685 13.5495V19.518C13.0685 19.7852 13.3001 19.999 13.5495 19.999H19.5002C19.7674 19.999 19.9812 19.7674 19.9812 19.518V13.5495C20.0169 13.3001 19.7852 13.0685 19.5358 13.0685ZM19.5199 7.0644H16.9524V4.42759C16.9524 4.19598 16.7565 4 16.5249 4C16.2932 4 16.0973 4.19598 16.0973 4.42759V7.0644H13.4961C13.2645 7.0644 13.0685 7.26038 13.0685 7.49199C13.0685 7.72361 13.2645 7.91959 13.4961 7.91959H16.1329V10.5208C16.1329 10.7524 16.3289 10.9484 16.5605 10.9484C16.7921 10.9484 16.9881 10.7524 16.9881 10.5208V7.88395H19.5556C19.7872 7.88395 19.9831 7.68797 19.9831 7.45636C19.9653 7.24257 19.7337 7.0644 19.5199 7.0644Z" fill="white" fill-opacity="0.84"/>
</svg>
