<svg width="24" height="24" viewBox="0 0 24 24" fill="none" xmlns="http://www.w3.org/2000/svg">
<path fill-rule="evenodd" clip-rule="evenodd" d="M13.132 7.96498C13.4563 8.05575 13.7648 8.18468 14.0521 8.34651C14.1508 8.40206 14.2653 8.39678 14.3584 8.33224L14.8662 7.98049C14.9821 7.90028 15.1354 7.91409 15.235 8.0137L15.9863 8.76497C16.0859 8.86458 16.0997 9.01788 16.0195 9.13378L15.6676 9.64176C15.6031 9.73486 15.5978 9.84921 15.6533 9.94805C15.8152 10.2354 15.9441 10.5437 16.0349 10.868C16.0654 10.977 16.15 11.0542 16.2616 11.0743L16.869 11.1846C17.0077 11.2098 17.1064 11.328 17.1064 11.4689V12.5313C17.1064 12.6721 17.0077 12.7904 16.869 12.8155L16.2617 12.9257C16.1503 12.9458 16.0656 13.023 16.035 13.132C15.9443 13.4563 15.8153 13.7648 15.6535 14.0523C15.5979 14.1509 15.6032 14.2655 15.6678 14.3585L16.0195 14.8662C16.0997 14.9821 16.0859 15.1354 15.9863 15.235L15.235 15.9863C15.1354 16.0859 14.9821 16.0997 14.8662 16.0195L14.3584 15.6676C14.2653 15.6031 14.1508 15.5978 14.0521 15.6533C13.7648 15.8152 13.4563 15.9441 13.132 16.0349C13.023 16.0654 12.9458 16.15 12.9257 16.2616L12.8154 16.869C12.7902 17.0077 12.672 17.1064 12.5311 17.1064H11.4687C11.3279 17.1064 11.2096 17.0077 11.1845 16.869L11.0743 16.2617C11.0542 16.1503 10.977 16.0656 10.868 16.035C10.5437 15.9443 10.2352 15.8153 9.94773 15.6535C9.84905 15.5979 9.73455 15.6032 9.64145 15.6678L9.13378 16.0195C9.01788 16.0997 8.86458 16.0859 8.76497 15.9863L8.0137 15.235C7.91409 15.1354 7.90028 14.9821 7.98049 14.8662L8.33239 14.3584C8.39694 14.2653 8.40221 14.1508 8.34667 14.0521C8.18484 13.7648 8.0559 13.4563 7.96513 13.132C7.93457 13.023 7.85001 12.9458 7.73845 12.9257L7.13101 12.8154C6.9923 12.7902 6.89362 12.672 6.89362 12.5311V11.4687C6.89362 11.3279 6.9923 11.2096 7.13101 11.1845L7.73829 11.0743C7.8497 11.0542 7.93441 10.977 7.96498 10.868C8.05575 10.5437 8.18468 10.2351 8.34651 9.94773C8.40206 9.84905 8.39678 9.73455 8.33224 9.64145L7.98049 9.13378C7.90028 9.01788 7.91409 8.86458 8.0137 8.76497L8.76497 8.0137C8.86458 7.91409 9.01788 7.90028 9.13378 7.98049L9.64161 8.33239C9.7347 8.39694 9.84921 8.40221 9.94789 8.34667C10.2352 8.18484 10.5437 8.0559 10.868 7.96513C10.977 7.93457 11.0542 7.85001 11.0743 7.73845L11.1846 7.13101C11.2098 6.9923 11.328 6.89362 11.4689 6.89362H12.5313C12.6721 6.89362 12.7904 6.9923 12.8155 7.13101L12.9258 7.73845C12.946 7.84985 13.023 7.93441 13.132 7.96498ZM10.171 12.1018L11.0878 13.1184C11.2149 13.2596 11.4318 13.272 11.5741 13.1468L13.5873 11.3729C13.7309 11.2464 13.7447 11.0275 13.6184 10.884C13.492 10.7403 13.2731 10.7265 13.1295 10.8528L11.373 12.4006L10.6858 11.6386C10.558 11.4965 10.339 11.485 10.1969 11.6129C10.0548 11.7407 10.0432 11.9597 10.171 12.1018ZM11.9998 9.38094C10.5535 9.38094 9.38094 10.5535 9.38094 11.9998C9.38094 13.4462 10.5535 14.6187 11.9998 14.6187C13.4462 14.6187 14.6187 13.4462 14.6187 11.9998C14.6187 10.5535 13.4462 9.38094 11.9998 9.38094Z" fill="white" fill-opacity="0.84"/>
<path d="M6.78776 6.75854C9.4309 4.11362 13.9192 4.02938 16.6802 6.48899L16.293 7.14601C16.192 7.24709 16.1583 7.39871 16.192 7.53348C16.2257 7.66826 16.3435 7.76934 16.4782 7.78618L18.2964 8.10627C18.3132 8.10627 18.3469 8.10627 18.3637 8.10627C18.4647 8.10627 18.5658 8.07257 18.6331 7.98834C18.7173 7.90411 18.7509 7.76934 18.7341 7.65141L18.4142 5.83197C18.3974 5.6972 18.2964 5.57927 18.1617 5.54558C18.027 5.51189 17.8755 5.54558 17.7745 5.64666L17.3705 6.05098C14.2223 3.23759 9.37369 3.30498 6.34334 6.33737C4.47463 8.20735 3.6497 10.886 4.13792 13.4803C4.18843 13.7162 4.24039 13.9128 4.45925 13.9128C4.49292 13.9128 4.52659 13.9128 4.54343 13.896C4.81279 13.8454 4.74399 13.5336 4.69349 13.2641C4.2726 10.9898 5.1379 8.39266 6.78776 6.75854Z" fill="white" fill-opacity="0.84"/>
<path d="M19.8621 10.4985C19.8116 10.229 19.4763 10.0068 19.2897 10.111C19.14 10.1946 19.0895 10.4143 19.14 10.6838C19.5777 12.975 18.8538 15.5862 17.204 17.2372C14.5608 19.8821 10.0808 19.9663 7.3198 17.5067L7.70701 16.8497C7.80802 16.7486 7.84169 16.597 7.80802 16.4622C7.75751 16.3274 7.6565 16.2264 7.52182 16.2095L5.72045 15.8894C5.6026 15.8726 5.46792 15.9063 5.38374 15.9905C5.29956 16.0747 5.24906 16.2095 5.28273 16.3274L5.6026 18.1469C5.63627 18.2816 5.72045 18.3996 5.85513 18.4333C5.8888 18.4501 5.92247 18.4501 5.97297 18.4501C6.07399 18.4501 6.175 18.4164 6.24234 18.3322L6.64639 17.9279C8.16156 19.3093 10.0808 20 12 20C14.0539 20 16.091 19.2251 17.6567 17.6583C19.5254 15.7883 20.3503 13.1097 19.8621 10.4985Z" fill="white" fill-opacity="0.84"/>
</svg>
