<svg width="24" height="24" viewBox="0 0 24 24" fill="none" xmlns="http://www.w3.org/2000/svg">
<path d="M8.60237 7.52206C8.76767 7.19382 8.86076 6.82297 8.86076 6.43038C8.86076 5.08812 7.77264 4 6.43038 4C5.08812 4 4 5.08812 4 6.43038C4 7.77264 5.08812 8.86076 6.43038 8.86076C7.01191 8.86076 7.54574 8.65652 7.96404 8.31585L15.6841 16.036C15.3435 16.4543 15.1392 16.9881 15.1392 17.5696C15.1392 18.9119 16.2274 20 17.5696 20C18.9119 20 20 18.9119 20 17.5696C20 16.2274 18.9119 15.1392 17.5696 15.1392C17.177 15.1392 16.8062 15.2323 16.4779 15.3976L8.60237 7.52206Z" fill="white" fill-opacity="0.84"/>
</svg>
