<svg width="24" height="24" viewBox="0 0 24 24" fill="none" xmlns="http://www.w3.org/2000/svg">
<path d="M8.00051 12C8.00051 10.8954 7.10496 10 6.00025 10C4.89554 10 4 10.8954 4 12C4 13.1046 4.89554 14 6.00025 14C7.10496 14 8.00051 13.1046 8.00051 12Z" fill="white" fill-opacity="0.84"/>
<path d="M20 12C20 10.8954 19.1045 10 17.9997 10C16.895 10 15.9995 10.8954 15.9995 12C15.9995 13.1046 16.895 14 17.9997 14C19.1045 14 20 13.1046 20 12Z" fill="white" fill-opacity="0.84"/>
<path d="M12 10C13.1047 10 14.0003 10.8954 14.0003 12C14.0003 13.1046 13.1047 14 12 14C10.8953 14 9.99975 13.1046 9.99975 12C9.99975 10.8954 10.8953 10 12 10Z" fill="white" fill-opacity="0.84"/>
</svg>
