<svg width="24" height="24" viewBox="0 0 24 24" fill="none" xmlns="http://www.w3.org/2000/svg">
<path d="M4 8.7644V14.6666C4 15.5555 4.7111 16.2666 5.59999 16.2666H14.3821L5.29777 7.19997C4.55111 7.34219 4 7.99997 4 8.7644Z" fill="white" fill-opacity="0.84"/>
<path d="M19.7689 7.99997C19.6267 7.8933 19.4311 7.87552 19.2711 7.94663L16.1423 9.2444V8.7644C16.1423 7.87552 15.4312 7.16442 14.5423 7.16442H8.19566L5.38679 4.35555C5.19043 4.15919 4.87205 4.15919 4.67569 4.35555C4.47932 4.55192 4.47932 4.87029 4.67569 5.06666L18.6667 19.0576C18.863 19.254 19.1814 19.254 19.3778 19.0576C19.5741 18.8613 19.5741 18.5429 19.3778 18.3465L16.0889 15.0577C16.1245 14.9332 16.1423 14.8088 16.1423 14.6844V14.1866L19.2711 15.4843C19.5378 15.591 19.8578 15.4666 19.9644 15.1999C19.9822 15.1288 20 15.0755 20 15.0043V8.44441C20 8.26663 19.9111 8.10663 19.7689 7.99997Z" fill="white" fill-opacity="0.84"/>
</svg>
