<svg width="24" height="24" viewBox="0 0 24 24" fill="none" xmlns="http://www.w3.org/2000/svg">
<path d="M8.64394 16.2013V14.4817C8.64184 14.1105 8.77701 13.7516 9.02347 13.4741L9.25522 13.2087V14.8545C9.25522 14.9881 9.3083 15.1163 9.40278 15.2107C9.49726 15.3052 9.62541 15.3583 9.75902 15.3583C9.89264 15.3583 10.0208 15.3052 10.1153 15.2107C10.2097 15.1163 10.2628 14.9881 10.2628 14.8545V7.69715C10.2628 7.56353 10.3159 7.43539 10.4104 7.3409C10.5049 7.24642 10.633 7.19334 10.7666 7.19334C10.8334 7.19219 10.8998 7.20471 10.9616 7.23012C11.0234 7.25553 11.0793 7.29331 11.126 7.34113C11.2205 7.43552 11.2737 7.56357 11.2738 7.69715C11.2721 7.71053 11.2721 7.72407 11.2738 7.73745L11.5861 11.385C11.5877 11.395 11.5877 11.4052 11.5861 11.4152V11.4656C11.5897 11.4819 11.5953 11.4977 11.6029 11.5126C11.6065 11.5279 11.6121 11.5426 11.6197 11.5563C11.6197 11.5731 11.6365 11.5865 11.6432 11.6033L11.6701 11.6402L11.7003 11.6772L11.7339 11.7141L11.7709 11.741L11.8145 11.7712L11.8515 11.7914L11.9019 11.8149H11.9455C11.9578 11.8168 11.9702 11.8168 11.9825 11.8149L15.6367 12.4866C15.8669 12.5664 16.0664 12.7162 16.2073 12.9149C16.3482 13.1136 16.4235 13.3514 16.4227 13.595V16.3491C16.4224 16.9674 16.3525 17.5837 16.2144 18.1863L15.9995 20H10.2628L8.92943 17.0578C8.74806 16.8087 8.64833 16.5095 8.64394 16.2013ZM7.9722 9.85006C7.8838 9.85139 7.7966 9.82944 7.71937 9.7864C7.64214 9.74336 7.57759 9.68076 7.53222 9.60488C7.19615 9.04855 7.01279 8.41341 7.00064 7.76357C6.9885 7.11372 7.14801 6.47218 7.46307 5.90368C7.77812 5.33519 8.23757 4.85987 8.79505 4.5257C9.35252 4.19154 9.98829 4.01035 10.6382 4.00043C11.288 3.99051 11.929 4.15221 12.4965 4.46921C13.0639 4.78621 13.5376 5.24728 13.8699 5.80589C14.2021 6.36451 14.3811 7.00089 14.3888 7.6508C14.3965 8.30071 14.2326 8.94115 13.9137 9.50748C13.8487 9.62461 13.7398 9.71112 13.611 9.74797C13.4822 9.78482 13.344 9.76899 13.2269 9.70396C13.1097 9.63893 13.0232 9.53004 12.9864 9.40123C12.9495 9.27242 12.9654 9.13425 13.0304 9.01711C13.2622 8.60524 13.3814 8.13951 13.3757 7.66689C13.3701 7.19428 13.2399 6.73152 12.9982 6.32531C12.7566 5.9191 12.4121 5.58382 11.9995 5.35329C11.5869 5.12277 11.1207 5.00517 10.6481 5.01235C10.1756 5.01953 9.71322 5.15124 9.30779 5.3942C8.90237 5.63715 8.56821 5.98275 8.33903 6.39611C8.10985 6.80947 7.99376 7.27598 8.00248 7.74854C8.01119 8.22111 8.14441 8.68301 8.38868 9.08764C8.45658 9.20272 8.47633 9.33994 8.44362 9.4695C8.41092 9.59905 8.32841 9.71046 8.21403 9.77953C8.14047 9.82261 8.05739 9.84684 7.9722 9.85006Z" fill="white" fill-opacity="0.84"/>
</svg>
