<svg width="24" height="24" viewBox="0 0 24 24" fill="none" xmlns="http://www.w3.org/2000/svg">
<path d="M11.4834 4.95092V11.2809C11.4834 11.6 11.2247 11.8588 10.9054 11.8588H4.57803C4.25874 11.8588 4 11.6 4 11.2809V4.95092C4 4.63189 4.25874 4.37305 4.57803 4.37305H10.9054C11.2247 4.37305 11.4834 4.63189 11.4834 4.95092ZM10.9054 12.8911L4.57803 12.8912C4.25874 12.8912 4 13.1499 4 13.4691V19.7952C4 20.1142 4.25874 20.373 4.57803 20.373H10.9054C11.2247 20.373 11.4834 20.1142 11.4834 19.7952V13.4691C11.4834 13.1499 11.2247 12.8911 10.9054 12.8911ZM19.422 12.8911L13.0946 12.8912C12.7753 12.8912 12.5166 13.1499 12.5166 13.4691V19.7952C12.5166 20.1142 12.7753 20.373 13.0946 20.373H19.422C19.7413 20.373 20 20.1142 20 19.7952V13.4691C20 13.1499 19.7413 12.8911 19.422 12.8911ZM13.0484 7.00046L13.5879 6.01431C13.8076 5.9603 14.3046 5.91025 14.455 6.06831L15.268 5.57127C15.1947 5.36712 15.4722 4.94712 15.6186 4.77774L16.7439 4.75074C16.9018 4.91636 17.1948 5.32087 17.1292 5.52899L17.9693 5.98751C18.1079 5.82188 18.6089 5.84889 18.8326 5.89498L19.4183 6.85432C19.3528 7.06999 19.1486 7.52849 18.9366 7.57855L18.9559 8.53014C19.1716 8.56867 19.399 9.01547 19.4724 9.23134L18.9329 10.2175C18.7094 10.2715 18.2122 10.3216 18.0658 10.1635L17.2488 10.6605C17.3221 10.8647 17.0484 11.2847 16.8982 11.4541L15.7769 11.4811C15.6189 11.3154 15.326 10.9109 15.3877 10.7028L14.5515 10.2443C14.4089 10.4099 13.9119 10.3829 13.6844 10.3406L13.1026 9.38127C13.1681 9.16164 13.3723 8.70331 13.5843 8.65308L13.5613 7.70148C13.349 7.66313 13.1215 7.21629 13.0484 7.00046ZM15.7806 8.99224C16.0136 9.11847 16.2868 9.14719 16.5409 9.07204C16.7948 8.99688 17.0086 8.82386 17.1351 8.59116C17.2615 8.35845 17.2904 8.08518 17.2154 7.83113C17.1404 7.57711 16.9675 7.36333 16.7347 7.23674C16.5022 7.11016 16.2286 7.08109 15.9745 7.15608C15.7204 7.2309 15.5066 7.40357 15.3798 7.63608C15.2525 7.86896 15.2232 8.14294 15.2984 8.3973C15.3736 8.65184 15.5472 8.866 15.7806 8.99224Z" fill="white" fill-opacity="0.84"/>
</svg>
