<svg width="24" height="24" viewBox="0 0 24 24" fill="none" xmlns="http://www.w3.org/2000/svg">
<path d="M19.1912 15.1007L18.1065 16.1942C17.9209 16.381 17.6176 16.3814 17.4315 16.1942C17.2455 16.0067 17.2455 15.7011 17.4315 15.5136L18.5162 14.4201C18.8574 14.0766 19.0456 13.622 19.0459 13.1398C19.0459 12.6877 18.883 12.2557 18.5875 11.9239C18.2771 11.5754 17.8349 11.3762 17.3424 11.3628C17.3241 11.3625 17.3062 11.3621 17.2879 11.3621C16.7593 11.3621 16.2461 11.5747 15.8733 11.9501L14.8844 12.9466C14.6984 13.1341 14.3955 13.1338 14.2091 12.9466C14.1192 12.8557 14.0694 12.7347 14.0694 12.6063C14.0694 12.4779 14.1192 12.3569 14.2091 12.266L15.1979 11.2694C15.7673 10.696 16.562 10.3807 17.3673 10.4009C18.1248 10.4218 18.81 10.7338 19.2972 11.28C19.7504 11.7887 20 12.4496 20 13.1394C20 13.8788 19.7129 14.5747 19.1912 15.1007Z" fill="white" fill-opacity="0.84"/>
<path d="M16.1854 18.13L15.1903 19.1333C14.6226 19.7054 13.8413 20.0202 13.0265 19.999C12.2708 19.9781 11.5869 19.6657 11.1011 19.1192C10.649 18.6108 10.4001 17.9514 10.4001 17.2612C10.3934 16.5225 10.6788 15.8245 11.204 15.2956L12.2887 14.2025C12.3789 14.1116 12.4986 14.0617 12.626 14.0617C12.7534 14.0617 12.8735 14.1119 12.9637 14.2025C13.0535 14.2934 13.1034 14.4144 13.1034 14.5428C13.1034 14.6712 13.0535 14.7922 12.9637 14.8832L11.879 15.9763C11.5367 16.3212 11.3507 16.7765 11.3549 17.2566C11.3549 17.7119 11.5174 18.1456 11.8123 18.4771C12.1216 18.8248 12.5625 19.0237 13.0528 19.0371C13.5917 19.0459 14.1319 18.839 14.5156 18.4523L15.5108 17.4494C15.6961 17.2622 15.9994 17.2619 16.1858 17.4494C16.3715 17.6372 16.3715 17.9425 16.1854 18.13Z" fill="white" fill-opacity="0.84"/>
<path d="M13.0668 16.6682L16.6565 13.0506C16.7495 12.9568 16.8717 12.9101 16.9938 12.9101C17.116 12.9101 17.2381 12.9572 17.3312 13.0506C17.5172 13.2381 17.5172 13.5437 17.3312 13.7312L13.7419 17.3489C13.5614 17.5307 13.2473 17.5307 13.0668 17.3489C12.977 17.258 12.9271 17.137 12.9271 17.0085C12.9271 16.8801 12.977 16.7591 13.0668 16.6682Z" fill="white" fill-opacity="0.84"/>
<path d="M13.0855 12.1999L12.1897 11.5262C12.1653 11.4112 12.1093 11.3055 12.028 11.2205H12.0157V10.0456C12.2421 9.70589 12.4373 9.34615 12.5985 8.97105C12.9631 8.73168 13.1934 8.33441 13.2201 7.89903C13.2397 7.34089 13.0536 7.20635 12.8872 7.20399C12.9288 6.8149 13.132 4 10.2608 4C7.17921 4 7.61734 7.24801 7.61734 7.24801C7.45583 7.26764 7.28441 7.3875 7.31138 7.89903C7.34195 8.33321 7.57158 8.72878 7.93321 8.97105C8.09404 9.34428 8.28817 9.70228 8.51334 10.0407V11.2155C8.4372 11.2988 8.38478 11.4011 8.36156 11.5118L7.41926 12.2191V12.2608L5.21648 13.2765C4.78641 13.4748 4.47804 13.8686 4.3891 14.3338L4 16.309C4 16.309 4.33122 17.1469 9.32572 17.2466C9.33542 16.4406 9.64777 15.6376 10.2627 15.0226L13.0855 12.1999Z" fill="white" fill-opacity="0.84"/>
</svg>
