<svg width="24" height="24" viewBox="0 0 24 24" fill="none" xmlns="http://www.w3.org/2000/svg">
<path d="M4 16.7888C4 16.2365 4.44772 15.7888 5 15.7888H5.31149C5.86377 15.7888 6.31149 16.2365 6.31149 16.7888V18.9992C6.31149 19.5515 5.86377 19.9992 5.31149 19.9992H5C4.44772 19.9992 4 19.5515 4 18.9992V16.7888Z" fill="white" fill-opacity="0.84"/>
<path d="M8.56239 12.9998C8.56239 12.4475 9.0101 11.9998 9.56239 11.9998H9.87388C10.4262 11.9998 10.8739 12.4475 10.8739 12.9998V18.9996C10.8739 19.5519 10.4262 19.9996 9.87388 19.9996H9.56239C9.0101 19.9996 8.56239 19.5519 8.56239 18.9996V12.9998Z" fill="white" fill-opacity="0.84"/>
<path d="M13.1248 9.21084C13.1248 8.65855 13.5725 8.21083 14.1248 8.21083H14.4363C14.9885 8.21083 15.4363 8.65855 15.4363 9.21083V19C15.4363 19.5523 14.9886 20 14.4363 20H14.1248C13.5725 20 13.1248 19.5523 13.1248 19V9.21084Z" fill="white" fill-opacity="0.84"/>
<path d="M17.6887 5C17.6887 4.44772 18.1364 4 18.6887 4H19.0002C19.5525 4 20.0002 4.44772 20.0002 5V18.9996C20.0002 19.5519 19.5525 19.9996 19.0002 19.9996H18.6887C18.1364 19.9996 17.6887 19.5519 17.6887 18.9996V5Z" fill="white" fill-opacity="0.84"/>
</svg>
