<svg width="24" height="24" viewBox="0 0 24 24" fill="none" xmlns="http://www.w3.org/2000/svg">
<path d="M19.9996 12.2955C19.9792 10.1873 19.1274 8.17242 17.6294 6.68886C16.1314 5.2053 14.1083 4.37305 12 4.37305C9.89169 4.37305 7.86861 5.2053 6.37061 6.68886C4.87261 8.17242 4.0208 10.1873 4.00038 12.2955C3.99013 13.3526 4.18949 14.4012 4.58691 15.3807C4.98434 16.3603 5.57196 17.2513 6.31581 18.0024C7.05966 18.7535 7.94499 19.3498 8.92064 19.7566C9.89629 20.1635 10.9429 20.373 12 20.373C13.0571 20.373 14.1037 20.1635 15.0794 19.7566C16.055 19.3498 16.9403 18.7535 17.6842 18.0024C18.428 17.2513 19.0157 16.3603 19.4131 15.3807C19.8105 14.4012 20.0099 13.3526 19.9996 12.2955ZM19.4102 12.0297H4.58983C5.02159 10.9635 7.94181 9.89644 12.0004 9.89644C16.0589 9.89644 18.9784 10.962 19.4102 12.0297ZM4.58907 12.5629H19.4102C18.9784 13.6291 16.0582 14.6961 11.9996 14.6961C7.94105 14.6961 5.02159 13.6284 4.58983 12.5621L4.58907 12.5629ZM11.9996 9.36181C9.11169 9.36181 6.15168 9.95351 4.78355 10.9965C5.62906 8.82867 8.53276 7.22852 11.9996 7.22852C15.4665 7.22852 18.3702 8.82867 19.2157 10.9965C17.8476 9.95426 14.8876 9.36181 11.9996 9.36181ZM11.9996 15.2285C14.8876 15.2285 17.8476 14.6368 19.2157 13.5938C18.3702 15.7617 15.4665 17.3611 11.9996 17.3611C8.53276 17.3611 5.62906 15.7609 4.78355 13.5931C6.15243 14.6368 9.11169 15.2285 11.9996 15.2285ZM11.9996 4.82868C13.4848 4.82876 14.9362 5.27178 16.1682 6.10108C17.4003 6.93039 18.357 8.10829 18.9161 9.4842C17.5277 7.81797 14.9491 6.6984 11.9996 6.6984C9.05012 6.6984 6.47156 7.82473 5.08241 9.49021C5.64154 8.11418 6.59838 6.93619 7.83058 6.10688C9.06278 5.27757 10.5143 4.83462 11.9996 4.83468V4.82868ZM5.08241 15.1031C6.47156 16.7724 9.05012 17.8949 11.9996 17.8949C14.9491 17.8949 17.5277 16.7686 18.9168 15.1031C18.3578 16.4793 17.401 17.6575 16.1688 18.4869C14.9366 19.3164 13.485 19.7594 11.9996 19.7594C10.5142 19.7594 9.06263 19.3164 7.83042 18.4869C6.59821 17.6575 5.64142 16.4793 5.08241 15.1031Z" fill="white" fill-opacity="0.84"/>
</svg>
