<svg width="24" height="24" viewBox="0 0 24 24" fill="none" xmlns="http://www.w3.org/2000/svg">
<path d="M7.87839 17C6.81923 17 5.90805 16.6419 5.14483 15.9257C4.38161 15.2096 4 14.3542 4 13.3598C4 12.4652 4.29773 11.6728 4.89318 10.9826C5.48863 10.2923 6.26041 9.87696 7.20851 9.73644C7.45939 8.63602 8.03375 7.73818 8.93159 7.04291C9.82942 6.34764 10.8646 6 12.0372 6C13.4006 6 14.5473 6.46025 15.4775 7.38075C16.4076 8.30124 16.8841 9.40742 16.907 10.6993V11.1047C17.7776 11.1064 18.5107 11.3874 19.1064 11.9476C19.7021 12.5077 20 13.2093 20 14.0523C20 14.8588 19.69 15.5517 19.0699 16.131C18.4499 16.7103 17.7125 17 16.8579 17H12.6633C12.3331 17 12.0459 16.8852 11.8018 16.6556C11.5576 16.426 11.4355 16.1572 11.4355 15.8491V11.6809L10.3179 12.7362C10.2044 12.843 10.0723 12.8935 9.92144 12.8879C9.77062 12.8823 9.63848 12.8261 9.52501 12.7193C9.41154 12.6126 9.35481 12.4855 9.35481 12.338C9.35481 12.1905 9.41154 12.0634 9.52501 11.9566L11.5714 10.0357C11.6358 9.97453 11.7039 9.93053 11.7755 9.90372C11.8472 9.87691 11.9228 9.8635 12.0024 9.8635C12.082 9.8635 12.1568 9.87691 12.2269 9.90372C12.2969 9.93053 12.3642 9.97453 12.4286 10.0357L14.4929 11.9735C14.6064 12.0803 14.6631 12.2046 14.6631 12.3464C14.6631 12.4883 14.6064 12.6126 14.4929 12.7193C14.3795 12.8261 14.2443 12.8795 14.0875 12.8795C13.9307 12.8795 13.797 12.8261 13.6864 12.7193L12.5645 11.6809V15.8491H16.859C17.3826 15.8491 17.8331 15.6718 18.2105 15.3172C18.5879 14.9626 18.7766 14.5383 18.7766 14.0443C18.7766 13.5483 18.5881 13.1235 18.2111 12.7698C17.8341 12.4162 17.383 12.2394 16.8579 12.2394H15.6879V10.776C15.6879 9.78607 15.3306 8.93506 14.6159 8.223C13.9012 7.51094 13.0179 7.15491 11.9661 7.15491C10.9079 7.15491 10.0194 7.51594 9.30054 8.23802C8.58172 8.96009 8.22231 9.8209 8.22231 10.8205H7.84248C7.11092 10.8205 6.49152 11.0618 5.98429 11.5444C5.47705 12.027 5.22343 12.6236 5.22343 13.334C5.22343 14.022 5.48261 14.6131 6.00097 15.1076C6.51931 15.602 7.14512 15.8491 7.87839 15.8491H9.74635C9.91903 15.8491 10.0642 15.9047 10.1817 16.0159C10.2993 16.1271 10.3581 16.2643 10.3581 16.4275C10.3581 16.5908 10.2993 16.727 10.1817 16.8362C10.0642 16.9454 9.91903 17 9.74635 17H7.87839Z" fill="white" fill-opacity="0.84"/>
</svg>
