<svg width="24" height="24" viewBox="0 0 24 24" fill="none" xmlns="http://www.w3.org/2000/svg">
<path d="M12 20C14.1217 20 16.1567 19.1571 17.6568 17.6568C19.1571 16.1565 20 14.1217 20 12C20 9.87833 19.1571 7.84331 17.6568 6.34315C16.1565 4.8429 14.1217 4 12 4C9.87833 4 7.84331 4.8429 6.34315 6.34315C4.8429 7.84353 4 9.87833 4 12C4 14.1217 4.8429 16.1567 6.34316 17.6568C7.84353 19.1571 9.87833 20 12 20ZM12.7272 16.3635C12.7272 16.6233 12.5887 16.8634 12.3637 16.9934C12.1387 17.1233 11.8613 17.1233 11.6363 16.9934C11.4113 16.8634 11.2728 16.6233 11.2728 16.3635V11.2727C11.2728 11.0129 11.4113 10.7728 11.6363 10.6429C11.8613 10.513 12.1387 10.513 12.3637 10.6429C12.5887 10.7728 12.7272 11.0129 12.7272 11.2727V16.3635ZM12 6.90906C12.2893 6.90906 12.5668 7.024 12.7714 7.22854C12.976 7.43309 13.0909 7.71057 13.0909 7.99997C13.0909 8.28926 12.976 8.56675 12.7714 8.77128C12.5668 8.97594 12.2893 9.09088 12 9.09088C11.7107 9.09088 11.4332 8.97595 11.2286 8.77128C11.024 8.56673 10.9091 8.28925 10.9091 7.99997C10.9091 7.71056 11.024 7.43307 11.2286 7.22854C11.4332 7.024 11.7107 6.90906 12 6.90906Z" fill="white" fill-opacity="0.84"/>
</svg>
