<svg width="24" height="24" viewBox="0 0 24 24" fill="none" xmlns="http://www.w3.org/2000/svg">
<path fill-rule="evenodd" clip-rule="evenodd" d="M10.5515 5.03864C9.94757 4.38605 9.12276 4.01259 8.25793 4C7.39025 4.00384 6.55961 4.37086 5.9486 5.01995C5.33762 5.66907 4.9965 6.54741 5.00003 7.46172C5.05965 8.11863 5.24295 8.75658 5.53924 9.33806C5.70684 9.67721 7.11144 12.2791 7.8047 13.3438C7.90552 13.5037 8.07563 13.6 8.2579 13.6C8.44007 13.6 8.61018 13.5037 8.71098 13.3438C9.45863 12.1977 10.9085 9.45718 11.0535 9.10866C11.2907 8.59876 11.4352 8.04654 11.4794 7.48062C11.4891 6.5692 11.1553 5.69111 10.5515 5.03864ZM8.24701 8.52848C7.96211 8.52838 7.68893 8.40896 7.48765 8.19663C7.28649 7.98454 7.17351 7.69678 7.17351 7.39693C7.17351 7.09706 7.28649 6.80932 7.48765 6.59722C7.68892 6.38491 7.96211 6.26549 8.24701 6.26537C8.53179 6.26525 8.80509 6.38443 9.00648 6.59664C9.208 6.80885 9.32121 7.09672 9.32121 7.39693C9.32121 7.69713 9.20799 7.985 9.00648 8.19721C8.8051 8.40942 8.5318 8.5286 8.24701 8.52848Z" fill="white" fill-opacity="0.84"/>
<path d="M18.679 13.6006H10.0396C10.7167 12.5771 11.3272 11.5079 11.8671 10.4006H16.4618C16.9647 10.3966 17.4515 10.5835 17.8299 10.9259C18.2083 11.2683 18.4519 11.7423 18.5145 12.258L18.562 12.6483C18.6 12.9613 18.6395 13.2864 18.679 13.6006Z" fill="white" fill-opacity="0.84"/>
<path d="M13.6404 15.2491H19.1303L19.1352 15.1989C19.1716 15.5077 19.207 15.8184 19.242 16.1248C19.2894 16.5397 19.3359 16.9467 19.3824 17.3304C19.4631 18.0074 19.2636 18.6882 18.835 19.199C18.4063 19.7098 17.7901 20.0012 17.1436 19.9988H14.6385L13.6404 15.2491Z" fill="white" fill-opacity="0.84"/>
<path d="M5.54429 19.2142C5.94221 19.7137 6.514 19.9999 7.11466 20H13.6399L12.7066 15.3446L8.40663 15.3444C7.8703 15.3555 7.36751 15.056 7.07945 14.5538C6.59721 13.7729 6.08409 12.8889 5.61519 12L5.57702 12.3403C5.4274 13.6739 5.19624 15.7343 5.01354 17.4021C4.94655 18.0629 5.13993 18.7235 5.54429 19.2142Z" fill="white" fill-opacity="0.84"/>
</svg>
