<svg width="24" height="24" viewBox="0 0 24 24" fill="none" xmlns="http://www.w3.org/2000/svg">
<path fill-rule="evenodd" clip-rule="evenodd" d="M4 7.6C4 6.71634 4.71634 6 5.6 6H18.4C19.2837 6 20 6.71634 20 7.6V17.2C20 18.0837 19.2837 18.8 18.4 18.8H12C11.5582 18.8 11.2047 18.4404 11.1562 18.0013C10.7878 14.663 8.13704 12.0122 4.79872 11.6438C4.35956 11.5953 4 11.2418 4 10.8V7.6ZM14.8 13.2C15.44 12.8305 15.44 11.9067 14.8 11.5372L11.68 9.7359C11.04 9.36639 10.24 9.82828 10.24 10.5673V14.1699C10.24 14.909 11.04 15.3708 11.68 15.0013L14.8 13.2Z" fill="white" fill-opacity="0.84"/>
<path d="M5.2 18.8C4.86667 18.8 4.58333 18.6833 4.35 18.45C4.11667 18.2167 4 17.9333 4 17.6C4 17.2667 4.11667 16.9833 4.35 16.75C4.58333 16.5167 4.86667 16.4 5.2 16.4C5.53333 16.4 5.81667 16.5167 6.05 16.75C6.28333 16.9833 6.4 17.2667 6.4 17.6C6.4 17.9333 6.28333 18.2167 6.05 18.45C5.81667 18.6833 5.53333 18.8 5.2 18.8ZM8.8 18.8C8.58667 18.8 8.4 18.7367 8.24 18.61C8.08 18.4833 7.98 18.3133 7.94 18.1C7.79333 17.26 7.41667 16.5467 6.81 15.96C6.20333 15.3733 5.48 15.0067 4.64 14.86C4.44 14.8333 4.28333 14.7367 4.17 14.57C4.05667 14.4033 4 14.2133 4 14C4 13.7733 4.07 13.5833 4.21 13.43C4.35 13.2767 4.52 13.2133 4.72 13.24C5.97333 13.4 7.04667 13.9267 7.94 14.82C8.83333 15.7133 9.36667 16.7867 9.54 18.04C9.56667 18.2533 9.50667 18.4333 9.36 18.58C9.21333 18.7267 9.02667 18.8 8.8 18.8Z" fill="white" fill-opacity="0.84"/>
</svg>
