<svg width="24" height="24" viewBox="0 0 24 24" fill="none" xmlns="http://www.w3.org/2000/svg">
<path fill-rule="evenodd" clip-rule="evenodd" d="M12.0005 7C8.70996 7.00013 5.67352 8.77652 4.06043 11.6443C3.97981 11.7874 3.97994 11.9623 4.0603 12.1056C5.67188 14.9758 8.70865 16.7543 12.0004 16.7556C15.2909 16.7544 18.3276 14.9769 19.9396 12.1081C20.0201 11.965 20.0201 11.7901 19.9396 11.647C18.3275 8.77834 15.2909 7.00168 12.0005 7ZM12.0004 7.94117C14.8635 7.94222 17.5082 9.43997 18.9842 11.8779C17.5079 14.3156 14.8635 15.813 12.0007 15.8144C9.13664 15.8133 6.4912 14.3145 5.01525 11.8752C6.49237 9.43829 9.13755 7.94117 12.0004 7.94117ZM12 9.02478C10.4299 9.02478 9.14694 10.3077 9.14694 11.8778C9.14694 13.4478 10.4299 14.7307 12 14.7307C13.5699 14.7307 14.8529 13.4478 14.8529 11.8778C14.8529 10.3077 13.5699 9.02478 12 9.02478ZM12 9.96595C13.0613 9.96595 13.9116 10.8163 13.9116 11.8777C13.9116 12.939 13.0613 13.7893 12 13.7893C10.9385 13.7893 10.0882 12.939 10.0882 11.8777C10.0882 10.8163 10.9385 9.96595 12 9.96595Z" fill="white" fill-opacity="0.84"/>
</svg>
