<svg width="24" height="24" viewBox="0 0 24 24" fill="none" xmlns="http://www.w3.org/2000/svg">
<path fill-rule="evenodd" clip-rule="evenodd" d="M4 7.81818C4 7.60119 4.09365 7.39308 4.26035 7.23964C4.42705 7.0862 4.65314 7 4.88889 7H19.1111C19.3469 7 19.573 7.0862 19.7397 7.23964C19.9064 7.39308 20 7.60119 20 7.81818C20 8.03518 19.9064 8.24328 19.7397 8.39672C19.573 8.55016 19.3469 8.63636 19.1111 8.63636H4.88889C4.65314 8.63636 4.42705 8.55016 4.26035 8.39672C4.09365 8.24328 4 8.03518 4 7.81818ZM5.77778 11.5C5.77778 11.283 5.87143 11.0749 6.03813 10.9215C6.20483 10.768 6.43092 10.6818 6.66667 10.6818H17.3333C17.5691 10.6818 17.7952 10.768 17.9619 10.9215C18.1286 11.0749 18.2222 11.283 18.2222 11.5C18.2222 11.717 18.1286 11.9251 17.9619 12.0785C17.7952 12.232 17.5691 12.3182 17.3333 12.3182H6.66667C6.43092 12.3182 6.20483 12.232 6.03813 12.0785C5.87143 11.9251 5.77778 11.717 5.77778 11.5ZM8.44444 15.1818C8.44444 14.9648 8.53809 14.7567 8.70479 14.6033C8.87149 14.4498 9.09759 14.3636 9.33333 14.3636H14.6667C14.9024 14.3636 15.1285 14.4498 15.2952 14.6033C15.4619 14.7567 15.5556 14.9648 15.5556 15.1818C15.5556 15.3988 15.4619 15.6069 15.2952 15.7604C15.1285 15.9138 14.9024 16 14.6667 16H9.33333C9.09759 16 8.87149 15.9138 8.70479 15.7604C8.53809 15.6069 8.44444 15.3988 8.44444 15.1818Z" fill="white" fill-opacity="0.84"/>
</svg>
