<svg width="24" height="24" viewBox="0 0 24 24" fill="none" xmlns="http://www.w3.org/2000/svg">
<path d="M11.3545 5.1543C11.494 5.15433 11.6339 5.17455 11.7734 5.21484C11.8873 5.24779 11.9924 5.30689 12.0908 5.38965C12.031 5.68629 12 5.99333 12 6.30762C12 8.85657 14.0663 10.9228 16.6152 10.9229H16.7178C17.0194 10.9229 17.3141 10.8922 17.5996 10.8369L18.668 11.8955C18.8891 12.1144 19 12.3712 19 12.665C19 12.9589 18.8891 13.2156 18.668 13.4346L13.3613 18.6895C13.152 18.8967 12.8991 18.9999 12.6025 19C12.3058 19 12.0522 18.8969 11.8428 18.6895L5.29688 12.207C5.1805 12.0918 5.10225 11.9705 5.06152 11.8438C5.02082 11.717 5 11.5845 5 11.4463V6.19141C5.00001 5.89181 5.09905 5.64414 5.29688 5.44824C5.49471 5.25235 5.74528 5.1543 6.04785 5.1543H11.3545ZM7.87988 7.09082C7.63567 7.09092 7.42344 7.17988 7.24316 7.3584C7.06282 7.53701 6.97266 7.74728 6.97266 7.98926C6.97267 8.23124 7.0628 8.44151 7.24316 8.62012C7.42344 8.79864 7.63567 8.88759 7.87988 8.8877C8.12427 8.8877 8.3372 8.79874 8.51758 8.62012C8.6979 8.44152 8.78808 8.23121 8.78809 7.98926C8.78809 7.74731 8.69788 7.53699 8.51758 7.3584C8.3372 7.17978 8.12427 7.09082 7.87988 7.09082Z" fill="white" fill-opacity="0.84"/>
<path d="M16.0832 4C15.8415 4 15.6457 4.19372 15.6457 4.43269V6.45198H13.604C13.3624 6.45198 13.1665 6.6457 13.1665 6.88467C13.1665 7.12364 13.3624 7.31737 13.604 7.31737H15.6457V9.33654C15.6457 9.57551 15.8415 9.76923 16.0832 9.76923C16.3248 9.76923 16.5207 9.57551 16.5207 9.33654V7.31737H18.5623C18.804 7.31737 18.9998 7.12364 18.9998 6.88467C18.9998 6.6457 18.804 6.45198 18.5623 6.45198H16.5207V4.43269C16.5207 4.19372 16.3248 4 16.0832 4Z" fill="white" fill-opacity="0.84"/>
</svg>
