<svg width="24" height="24" viewBox="0 0 24 24" fill="none" xmlns="http://www.w3.org/2000/svg">
<path d="M15.4453 18.1999H17.5315C17.6646 18.1999 17.7729 18.0917 17.7729 17.9587V16.4241H15.2042V17.9587C15.2042 18.0917 15.3125 18.1999 15.4453 18.1999Z" fill="white" fill-opacity="0.84"/>
<path d="M16.4344 14.1503C16.8722 14.1503 17.2282 13.7942 17.2282 13.3566C17.2282 12.9189 16.8722 12.5628 16.4344 12.5628C15.9967 12.5628 15.6406 12.9189 15.6406 13.3566C15.6406 13.7942 15.9967 14.1503 16.4344 14.1503Z" fill="white" fill-opacity="0.84"/>
<path d="M19.6451 10.535C19.8574 10.4365 20 10.1882 20 9.91685C20 9.54981 19.7578 9.25112 19.4601 9.25112H18.2444L18.3956 10.3864C18.6438 10.4765 18.8632 10.6256 19.0375 10.8174L19.6451 10.535Z" fill="white" fill-opacity="0.84"/>
<path d="M7.56557 14.1503C8.00335 14.1503 8.35938 13.7942 8.35938 13.3566C8.35938 12.9189 8.00335 12.5628 7.56557 12.5628C7.12779 12.5628 6.77176 12.9189 6.77176 13.3566C6.77176 13.7942 7.12779 14.1503 7.56557 14.1503Z" fill="white" fill-opacity="0.84"/>
<path d="M6.22712 17.9587C6.22712 18.0917 6.33538 18.1999 6.46847 18.1999H8.55469C8.6875 18.1999 8.79576 18.0917 8.79576 17.9587V16.4241H6.22712V17.9587Z" fill="white" fill-opacity="0.84"/>
<path d="M16.3471 5H7.65067C7.22405 5 6.85659 5.32352 6.79576 5.75237L6.19165 10.2891H17.8061L17.2017 5.75C17.1462 5.32199 16.7787 5 16.3471 5Z" fill="white" fill-opacity="0.84"/>
<path d="M4 9.91685C4 10.1882 4.14258 10.4365 4.35463 10.5349L4.96251 10.8174C5.13623 10.6262 5.35484 10.4774 5.60209 10.3872L5.75335 9.25112H4.5399C4.24219 9.25112 4 9.54981 4 9.91685Z" fill="white" fill-opacity="0.84"/>
<path d="M5.94322 10.8815C5.9389 10.8828 5.93485 10.8841 5.93042 10.8852C5.46491 10.9867 5.11468 11.4011 5.11468 11.8966V15.2234C5.11468 15.5705 5.39704 15.8528 5.74414 15.8528H18.2559C18.603 15.8528 18.8853 15.5705 18.8853 15.2234V11.8966C18.8853 11.3253 18.4205 10.8605 17.8493 10.8605H6.15067C6.07966 10.8605 6.01029 10.8678 5.94322 10.8815ZM16.4344 11.9915C17.1872 11.9915 17.7997 12.6039 17.7997 13.3567C17.7997 14.1094 17.1872 14.7218 16.4344 14.7218C15.6816 14.7218 15.0692 14.1094 15.0692 13.3567C15.0692 12.6039 15.6816 11.9915 16.4344 11.9915ZM10.2059 13.071H13.7941C13.952 13.071 14.0798 13.1989 14.0798 13.3567C14.0798 13.5145 13.952 13.6424 13.7941 13.6424H10.2059C10.048 13.6424 9.9202 13.5145 9.9202 13.3567C9.9202 13.1989 10.048 13.071 10.2059 13.071ZM7.56557 11.9915C8.31836 11.9915 8.9308 12.6039 8.9308 13.3567C8.9308 14.1094 8.31836 14.7218 7.56557 14.7218C6.81278 14.7218 6.20034 14.1094 6.20034 13.3567C6.20034 12.6039 6.81278 11.9915 7.56557 11.9915Z" fill="white" fill-opacity="0.84"/>
</svg>
