<svg width="24" height="24" viewBox="0 0 24 24" fill="none" xmlns="http://www.w3.org/2000/svg">
<path d="M10.2045 6.64567C10.4218 5.83735 10.6656 5.54284 11.4761 5.32553C10.6665 5.1085 10.4221 4.80923 10.2045 4C9.98708 4.80832 9.71845 5.10821 8.90792 5.32553C9.71753 5.54255 9.98679 5.83644 10.2045 6.64567ZM10.441 8.31405C10.441 8.23789 10.4014 8.14595 10.2903 8.11499C9.38214 7.86144 8.81314 7.57197 8.38828 7.14817C7.96347 6.72403 7.67292 6.1559 7.41991 5.24915C7.3889 5.13832 7.2968 5.0987 7.22052 5.0987C7.14424 5.0987 7.05215 5.13832 7.02114 5.24915C6.76718 6.1559 6.47725 6.724 6.05276 7.14817C5.62732 7.57292 5.0589 7.86238 4.1507 8.11499C4.03969 8.14595 4 8.2379 4 8.31405C4 8.39021 4.03969 8.48216 4.1507 8.51312C5.0589 8.76667 5.62791 9.05614 6.05276 9.47994C6.4782 9.9047 6.76813 10.4722 7.02114 11.379C7.05215 11.4898 7.14425 11.5294 7.22052 11.5294C7.29681 11.5294 7.3889 11.4898 7.41991 11.379C7.67387 10.4722 7.9638 9.90411 8.38828 9.47994C8.81372 9.05518 9.38214 8.76572 10.2903 8.51312C10.4014 8.48216 10.441 8.39021 10.441 8.31405Z" fill="white" fill-opacity="0.84"/>
<path d="M11.0588 10.5882C11.0588 10.5659 11.0472 10.539 11.0148 10.53C10.7494 10.4557 10.5831 10.371 10.4589 10.247C10.3348 10.1228 10.2499 9.95652 10.1759 9.6911C10.1669 9.65866 10.1399 9.64706 10.1176 9.64706C10.0954 9.64706 10.0684 9.65866 10.0594 9.6911C9.98516 9.95652 9.90043 10.1228 9.77638 10.247C9.65205 10.3713 9.48593 10.456 9.22051 10.53C9.18807 10.539 9.17647 10.5659 9.17647 10.5882C9.17647 10.6105 9.18807 10.6374 9.22051 10.6465C9.48593 10.7207 9.65222 10.8055 9.77638 10.9295C9.90071 11.0538 9.98544 11.22 10.0594 11.4854C10.0684 11.5178 10.0954 11.5294 10.1176 11.5294C10.1399 11.5294 10.1669 11.5178 10.1759 11.4854C10.2501 11.22 10.3349 11.0537 10.4589 10.9295C10.5832 10.8052 10.7494 10.7204 11.0148 10.6465C11.0472 10.6374 11.0588 10.6105 11.0588 10.5882Z" fill="white" fill-opacity="0.84"/>
<path d="M11.2353 4.94118C14.717 4.94118 17.5478 7.77756 17.5478 11.25C17.5478 12.6596 17.0668 14.0524 16.1921 15.1526L20 18.9173L18.9191 20L15.1287 16.2013C14.0139 17.0777 12.6244 17.5588 11.2353 17.5588C7.77086 17.5586 4.94118 14.7223 4.94118 11.25C4.94118 10.6556 5.02423 10.0801 5.17831 9.53401C5.34151 9.64945 5.48937 9.77371 5.625 9.90901C5.96555 10.2491 6.23476 10.6631 6.46875 11.2142C6.46841 11.2374 6.46783 11.2607 6.46783 11.284C6.46783 13.914 8.61136 16.0632 11.2353 16.0634C13.8594 16.0634 16.0037 13.9141 16.0037 11.284C16.0035 8.65407 13.8593 6.50551 11.2353 6.50551C10.8951 6.50555 10.7001 6.56824 10.4083 6.60643C10.6473 5.9033 11.0217 5.5399 11.8212 5.32553C11.4072 5.18462 11.0482 5.07937 10.8419 4.94945C10.9704 4.9446 11.1014 4.94118 11.2353 4.94118Z" fill="white" fill-opacity="0.84"/>
<path d="M8.70588 5.39136C9.44047 5.60843 9.7812 5.93098 10.0211 6.60643C9.61274 6.67848 9.32091 6.78898 8.93107 7.02665C8.85274 6.96134 8.77713 6.89459 8.70588 6.82353C8.4224 6.5405 8.18875 6.20479 7.98254 5.78217C8.23679 5.61698 8.44421 5.5022 8.70588 5.39136Z" fill="white" fill-opacity="0.84"/>
</svg>
