<svg width="24" height="24" viewBox="0 0 24 24" fill="none" xmlns="http://www.w3.org/2000/svg">
<path fill-rule="evenodd" clip-rule="evenodd" d="M11.949 4L12 4.02501L12.051 4.00001V4.05001L14.18 5.09418C15.282 5.63465 16.4327 6.0737 17.6174 6.40571L19 6.79318L18.8497 9.74214C18.6686 13.2947 16.8425 16.5715 13.8917 18.6389L12.051 19.9286V20L12 19.9643L11.949 20V19.9286L10.1084 18.6389C7.15749 16.5715 5.33142 13.2947 5.15032 9.74215L5 6.79317L6.3826 6.40571C7.56727 6.0737 8.71801 5.63464 9.82001 5.09418L11.949 4.05002V4ZM10.4172 14.1603C10.9189 14.5377 11.5563 14.7264 12.3295 14.7264C13.0862 14.7264 13.6825 14.5418 14.1184 14.1726C14.5626 13.8035 14.7806 13.34 14.7723 12.7821C14.7723 12.3391 14.6653 12.0027 14.4515 11.773C14.2376 11.5433 13.9539 11.371 13.6002 11.2562C13.2548 11.1331 12.8764 11.0265 12.4652 10.9362C12.0539 10.8378 11.7208 10.727 11.4658 10.604C11.2191 10.4809 11.0957 10.3128 11.0957 10.0995C11.0957 9.88616 11.1862 9.71388 11.3672 9.58262C11.5481 9.44315 11.8031 9.37342 12.1321 9.37342C12.4693 9.37342 12.7366 9.44726 12.934 9.59492C13.1396 9.74259 13.263 9.94769 13.3041 10.2102H14.5626C14.4885 9.61134 14.2376 9.14782 13.81 8.81966C13.3905 8.49151 12.8394 8.32744 12.1567 8.32744C11.4165 8.32744 10.8408 8.50793 10.4295 8.86888C10.0183 9.22165 9.81263 9.66466 9.81263 10.1979C9.81263 10.5835 9.92367 10.8911 10.1457 11.1208C10.376 11.3423 10.6598 11.5146 10.997 11.6377C11.3425 11.7607 11.6879 11.8592 12.0334 11.933C12.4775 12.0233 12.823 12.1258 13.0697 12.2407C13.3247 12.3473 13.4522 12.5565 13.4522 12.8682C13.4522 13.0816 13.3617 13.2703 13.1808 13.4343C12.9998 13.5984 12.7119 13.6804 12.3171 13.6804C11.9141 13.6804 11.5892 13.582 11.3425 13.3851C11.0957 13.18 10.9395 12.9379 10.8737 12.659H9.55354C9.62757 13.2825 9.91545 13.783 10.4172 14.1603Z" fill="white" fill-opacity="0.84"/>
</svg>
