<svg width="24" height="24" viewBox="0 0 24 24" fill="none" xmlns="http://www.w3.org/2000/svg">
<path d="M4.5 16C4.77614 16 5 16.2239 5 16.5V19H7.5C7.77614 19 8 19.2239 8 19.5C8 19.7761 7.77614 20 7.5 20H5C4.44772 20 4 19.5523 4 19V16.5C4 16.2239 4.22386 16 4.5 16Z" fill="white" fill-opacity="0.84"/>
<path d="M19.5 16C19.7761 16 20 16.2239 20 16.5V19C20 19.5523 19.5523 20 19 20H16.5C16.2239 20 16 19.7761 16 19.5C16 19.2239 16.2239 19 16.5 19H19V16.5C19 16.2239 19.2239 16 19.5 16Z" fill="white" fill-opacity="0.84"/>
<path d="M7.74121 11.1533C7.77752 11.1523 7.81347 11.1604 7.8457 11.1758L11.4014 12.8682C11.4605 12.8964 11.5104 12.9389 11.5449 12.9912C11.5795 13.0436 11.5977 13.1038 11.5977 13.165L11.5869 16.2617C11.5864 16.3186 11.5696 16.3744 11.5391 16.4238C11.5086 16.4732 11.4649 16.5144 11.4121 16.5439C11.3592 16.5736 11.2992 16.5905 11.2373 16.5928C11.1755 16.595 11.1138 16.5833 11.0586 16.5576L7.72266 14.9697C7.66302 14.9417 7.61306 14.8982 7.57812 14.8457C7.54336 14.7933 7.52439 14.7332 7.52441 14.6719L7.53613 11.3477C7.53622 11.3142 7.54555 11.2811 7.56348 11.252C7.5814 11.2229 7.60758 11.1989 7.63867 11.1816C7.66973 11.1644 7.70496 11.1544 7.74121 11.1533Z" fill="white" fill-opacity="0.84"/>
<path d="M16.3477 11.1182C16.3728 11.1192 16.3975 11.1257 16.4189 11.1377C16.4404 11.1498 16.4582 11.1674 16.4707 11.1875C16.4831 11.2076 16.4898 11.2299 16.4902 11.2529L16.5029 14.6709C16.5031 14.7325 16.4842 14.7931 16.4492 14.8457C16.4143 14.8982 16.3643 14.9408 16.3047 14.9688L12.9688 16.5566C12.9136 16.5825 12.8519 16.5949 12.79 16.5928C12.7283 16.5906 12.668 16.5744 12.6152 16.5449C12.5623 16.5153 12.5178 16.4734 12.4873 16.4238C12.4569 16.3744 12.4408 16.3185 12.4404 16.2617L12.4297 13.165C12.4297 13.1035 12.4484 13.0427 12.4834 12.9902C12.5183 12.9379 12.5684 12.8951 12.6279 12.8672L16.2744 11.1318C16.2971 11.1216 16.3224 11.1171 16.3477 11.1182Z" fill="white" fill-opacity="0.84"/>
<path d="M12.0039 7.61523C12.1748 7.6153 12.3435 7.65315 12.4951 7.72559L12.8965 7.91699C12.7394 8.03314 12.5578 8.1185 12.3594 8.16113L11.9502 8.24902C11.5486 8.33527 11.5486 8.9079 11.9502 8.99414L12.3594 9.08203C12.8975 9.19763 13.318 9.61817 13.4336 10.1562L13.5215 10.5654C13.6077 10.9671 14.1804 10.9671 14.2666 10.5654L14.3545 10.1562C14.4663 9.63605 14.8635 9.22783 15.376 9.09668L16.2627 9.51953C16.3344 9.55481 16.3947 9.60685 16.4365 9.6709C16.4783 9.73488 16.4998 9.80821 16.5 9.88281C16.4996 9.95774 16.4778 10.0316 16.4355 10.0957C16.3932 10.1598 16.332 10.2121 16.2598 10.2471L16.2578 10.2441L12.5215 12.0342C12.3699 12.1066 12.2012 12.1445 12.0303 12.1445C11.8594 12.1445 11.6907 12.1065 11.5391 12.0342L7.77441 10.2441C7.70198 10.2094 7.6412 10.1569 7.59863 10.0928C7.55609 10.0287 7.53373 9.95494 7.5332 9.87988C7.53376 9.80486 7.55609 9.73104 7.59863 9.66699C7.64115 9.60306 7.70216 9.55136 7.77441 9.5166L11.5117 7.72559C11.6635 7.65309 11.8329 7.61523 12.0039 7.61523Z" fill="white" fill-opacity="0.84"/>
<path d="M7.5 4C7.77614 4 8 4.22386 8 4.5C8 4.77614 7.77614 5 7.5 5H5V7.5C5 7.77614 4.77614 8 4.5 8C4.22386 8 4 7.77614 4 7.5V5C4 4.44772 4.44772 4 5 4H7.5Z" fill="white" fill-opacity="0.84"/>
<path d="M19 4C19.5523 4 20 4.44772 20 5V7.5C20 7.77614 19.7761 8 19.5 8C19.2239 8 19 7.77614 19 7.5V5H16.5C16.2239 5 16 4.77614 16 4.5C16 4.22386 16.2239 4 16.5 4H19Z" fill="white" fill-opacity="0.84"/>
<path d="M12.2393 8.77778C12.0852 8.7447 12.0852 8.52484 12.2393 8.49175L12.919 8.34578C13.2566 8.27328 13.5204 8.00955 13.5928 7.67194L13.7388 6.99218C13.7719 6.8381 13.9918 6.8381 14.0249 6.99219L14.1708 7.67194C14.2433 8.00955 14.507 8.27328 14.8447 8.34578L15.5244 8.49175C15.6785 8.52484 15.6785 8.7447 15.5244 8.77778L14.8447 8.92375C14.507 8.99625 14.2433 9.25998 14.1708 9.59759L14.0249 10.2773C13.9918 10.4314 13.7719 10.4314 13.7388 10.2773L13.5928 9.59759C13.5204 9.25998 13.2566 8.99625 12.919 8.92375L12.2393 8.77778Z" fill="white" fill-opacity="0.84"/>
<path d="M14.6038 7.46126C14.5461 7.44887 14.5461 7.36656 14.6038 7.35417L14.8583 7.29953C14.9847 7.27239 15.0834 7.17366 15.1106 7.04727L15.1652 6.79279C15.1776 6.7351 15.2599 6.7351 15.2723 6.79279L15.3269 7.04727C15.3541 7.17366 15.4528 7.27239 15.5792 7.29953L15.8337 7.35417C15.8914 7.36656 15.8914 7.44887 15.8337 7.46126L15.5792 7.5159C15.4528 7.54304 15.3541 7.64177 15.3269 7.76816L15.2723 8.02264C15.2599 8.08033 15.1776 8.08033 15.1652 8.02264L15.1106 7.76816C15.0834 7.64177 14.9847 7.54304 14.8583 7.5159L14.6038 7.46126Z" fill="white" fill-opacity="0.84"/>
</svg>
