<svg width="24" height="24" viewBox="0 0 24 24" fill="none" xmlns="http://www.w3.org/2000/svg">
<path fill-rule="evenodd" clip-rule="evenodd" d="M7.12152 5.37305C5.37718 5.37305 4 6.7165 4 8.41831C4 11.4636 7.12152 15.1358 7.12152 15.1358C7.12152 15.1358 10.243 11.4636 10.243 8.41831C10.243 6.71659 8.86594 5.37305 7.12152 5.37305ZM7.12152 10.2992C6.0198 10.2992 5.19353 9.40356 5.19353 8.41831C5.19353 7.34351 6.0198 6.53742 7.12152 6.53742C8.13145 6.53742 9.0495 7.34351 9.0495 8.41831C9.0495 9.40358 8.13143 10.2992 7.12152 10.2992Z" fill="white" fill-opacity="0.84"/>
<path fill-rule="evenodd" clip-rule="evenodd" d="M16.8785 5.37305C15.1342 5.37305 13.757 6.7165 13.757 8.41831C13.757 11.4636 16.8785 15.1358 16.8785 15.1358C16.8785 15.1358 20 11.4636 20 8.41831C20 6.71659 18.6229 5.37305 16.8785 5.37305ZM16.8785 10.2992C15.7768 10.2992 14.9505 9.40356 14.9505 8.41831C14.9505 7.34351 15.7768 6.53742 16.8785 6.53742C17.8884 6.53742 18.8065 7.34351 18.8065 8.41831C18.8065 9.40358 17.8884 10.2992 16.8785 10.2992Z" fill="white" fill-opacity="0.84"/>
<path d="M16.0996 18.3087H7.8437V16.112H7.09317V19.7731L16.8502 19.7731V16.112H16.0996V18.3087Z" fill="white" fill-opacity="0.84"/>
</svg>
