<svg width="24" height="24" viewBox="0 0 24 24" fill="none" xmlns="http://www.w3.org/2000/svg">
<path d="M4 10.9015V14.3392C4 14.9721 4.36143 15.4852 4.80727 15.4852H5.93953C6.08781 15.488 6.23044 15.5424 6.34286 15.6392L9.13432 18.4991C9.67286 18.9405 10.345 18.3887 10.345 17.5059V7.73428C10.345 6.85142 9.67231 6.29965 9.13432 6.74107L6.34286 9.60096C6.23039 9.69753 6.08775 9.75179 5.93953 9.75437H4.80727C4.36143 9.75492 4 10.2687 4 10.9015Z" fill="white" fill-opacity="0.84"/>
<path d="M11.752 12.1889C11.752 12.4279 11.6953 12.6635 11.5865 12.8764C11.5216 13.017 11.5023 13.1745 11.5314 13.3267C11.5605 13.4789 11.6364 13.6182 11.7487 13.725L11.752 13.7283C11.8353 13.8143 11.9376 13.8795 12.0508 13.9187C12.1639 13.9578 12.2847 13.9698 12.4033 13.9537C12.522 13.9376 12.6351 13.8938 12.7337 13.8259C12.8323 13.758 12.9136 13.6679 12.9709 13.5628C13.1817 13.1361 13.2913 12.6666 13.2913 12.1908C13.2913 11.7149 13.1817 11.2455 12.9709 10.8188C12.9135 10.7138 12.8322 10.6237 12.7336 10.5559C12.635 10.4881 12.5219 10.4443 12.4033 10.4282C12.2847 10.4121 12.164 10.4241 12.0509 10.4632C11.9377 10.5023 11.8353 10.5673 11.752 10.6532L11.7482 10.6576C11.6355 10.7644 11.5593 10.9039 11.5302 11.0564C11.5011 11.2089 11.5206 11.3666 11.586 11.5074C11.6945 11.7182 11.7513 11.9518 11.752 12.1889Z" fill="white" fill-opacity="0.84"/>
<path d="M18.4623 12.1888C18.4647 13.9947 17.8293 15.7434 16.6684 17.1267C16.5485 17.2735 16.4877 17.4597 16.4979 17.649C16.5081 17.8382 16.5886 18.0168 16.7236 18.1498C16.7999 18.226 16.8912 18.2855 16.9917 18.3244C17.0923 18.3634 17.1998 18.3811 17.3076 18.3762C17.4153 18.3713 17.5207 18.344 17.6173 18.2961C17.7139 18.2482 17.7995 18.1807 17.8686 18.0979C19.2461 16.4371 20 14.3471 20 12.1894C20 10.0316 19.2461 7.94169 17.8686 6.28087C17.7997 6.19784 17.7144 6.13007 17.6179 6.08186C17.5215 6.03366 17.416 6.00609 17.3082 6.0009C17.2005 5.99571 17.0929 6.01302 16.9923 6.05172C16.8916 6.09042 16.8001 6.14968 16.7236 6.2257C16.5886 6.35868 16.5081 6.53726 16.4979 6.7265C16.4877 6.91574 16.5485 7.10199 16.6684 7.24871C17.8298 8.6326 18.4652 10.3822 18.4623 12.1888Z" fill="white" fill-opacity="0.84"/>
<path d="M15.3828 12.1888C15.3841 13.1852 15.0612 14.1549 14.463 14.9516C14.3512 15.0991 14.2966 15.282 14.3092 15.4666C14.3218 15.6512 14.4007 15.8249 14.5314 15.9559C14.6088 16.0339 14.7019 16.0945 14.8046 16.1336C14.9073 16.1727 15.0171 16.1895 15.1268 16.1828C15.2364 16.1762 15.3434 16.1462 15.4406 16.0948C15.5377 16.0435 15.6228 15.9721 15.6901 15.8853C16.4877 14.8177 16.9187 13.5209 16.9187 12.1883C16.9187 10.8557 16.4877 9.55887 15.6901 8.49134C15.6228 8.40453 15.5377 8.33308 15.4406 8.28176C15.3434 8.23045 15.2364 8.20045 15.1268 8.19376C15.0171 8.18708 14.9073 8.20386 14.8046 8.243C14.7019 8.28214 14.6088 8.34273 14.5314 8.42072C14.4007 8.55184 14.3219 8.72581 14.3095 8.9105C14.2971 9.0952 14.352 9.27814 14.464 9.42551C15.063 10.222 15.3856 11.1923 15.3828 12.1888Z" fill="white" fill-opacity="0.84"/>
</svg>
