<svg width="24" height="24" viewBox="0 0 24 24" fill="none" xmlns="http://www.w3.org/2000/svg">
<path d="M12.7275 11.9998C12.7275 12.3753 12.6749 12.698 12.5693 12.9675C12.4637 13.237 12.3201 13.4447 12.1396 13.5906C11.9591 13.7364 11.7519 13.8093 11.5186 13.8093C11.2809 13.8093 11.0696 13.7364 10.8848 13.5906C10.7043 13.4447 10.5607 13.2371 10.4551 12.9675C10.3539 12.698 10.3037 12.3753 10.3037 11.9998C10.3037 11.6198 10.3539 11.2971 10.4551 11.032C10.5608 10.7624 10.7042 10.5562 10.8848 10.4148C11.0696 10.2691 11.281 10.1961 11.5186 10.196C11.7518 10.196 11.9592 10.269 12.1396 10.4148C12.3202 10.5562 12.4637 10.7624 12.5693 11.032C12.6749 11.2971 12.7275 11.6198 12.7275 11.9998Z" fill="white" fill-opacity="0.84"/>
<path fill-rule="evenodd" clip-rule="evenodd" d="M18.1875 11.9998C18.1875 13.2304 17.8224 14.4336 17.1387 15.4568C16.455 16.4799 15.4835 17.2779 14.3467 17.7488C13.2097 18.2197 11.958 18.3424 10.751 18.1023C9.5441 17.8622 8.43555 17.2693 7.56543 16.3992C6.69531 15.529 6.10238 14.4206 5.8623 13.2136C5.62224 12.0067 5.74593 10.7558 6.2168 9.6189C6.68771 8.48202 7.48469 7.50963 8.50781 6.82593C9.53096 6.14228 10.7343 5.77716 11.9648 5.7771C13.6151 5.7771 15.1983 6.43345 16.3652 7.60034C17.5319 8.7672 18.1875 10.3497 18.1875 11.9998ZM8.80371 9.67944H8.375L7.19922 10.1902V10.7273L8.13086 10.4285L8.13086 14.3201H8.80371L8.80371 9.67944ZM13.4014 11.9998C13.4014 11.5225 13.324 11.1048 13.1699 10.7468C13.0202 10.3844 12.8043 10.1039 12.5225 9.90503C12.2451 9.70171 11.9104 9.59937 11.5186 9.59937C11.1268 9.5994 10.7896 9.70175 10.5078 9.90503C10.2262 10.1039 10.0085 10.3846 9.85449 10.7468C9.7004 11.1048 9.62305 11.5224 9.62305 11.9998C9.62305 12.4771 9.70038 12.8971 9.85449 13.2595C10.0085 13.6173 10.2262 13.898 10.5078 14.1013C10.7896 14.3002 11.1268 14.4001 11.5186 14.4001C11.9104 14.4001 12.2451 14.3002 12.5225 14.1013C12.8042 13.898 13.0202 13.6175 13.1699 13.2595C13.324 12.8971 13.4014 12.4771 13.4014 11.9998ZM16.7988 13.3123C16.8032 13.0737 16.7546 12.8858 16.6533 12.7488C16.5565 12.6075 16.4153 12.5035 16.2305 12.4373C16.0456 12.3666 15.8191 12.3134 15.5508 12.2781C15.3614 12.2471 15.2068 12.2076 15.0879 12.1589C14.9737 12.1104 14.8921 12.0508 14.8437 11.9802C14.7953 11.9095 14.7715 11.8294 14.7715 11.741C14.7715 11.6129 14.8242 11.5114 14.9297 11.4363C15.0354 11.3611 15.19 11.324 15.3926 11.324C15.5861 11.324 15.7401 11.366 15.8545 11.45C15.9732 11.5295 16.0434 11.6397 16.0654 11.781H16.7061C16.6664 11.4672 16.5351 11.2215 16.3105 11.0447C16.0904 10.8679 15.7859 10.78 15.3984 10.78C15.1344 10.7801 14.9056 10.8245 14.7119 10.9128C14.5228 10.9967 14.3752 11.1134 14.2695 11.2634C14.1683 11.4137 14.1172 11.5842 14.1172 11.7742C14.1172 11.9377 14.1435 12.0796 14.1963 12.199C14.2535 12.3183 14.3358 12.4173 14.4414 12.4968C14.5515 12.5719 14.6814 12.6338 14.8311 12.6824C14.9851 12.7309 15.1565 12.7691 15.3457 12.7957C15.513 12.8178 15.6541 12.8486 15.7686 12.8884C15.8874 12.9282 15.976 12.9852 16.0332 13.0603C16.0948 13.131 16.125 13.231 16.125 13.3591C16.125 13.4562 16.101 13.5444 16.0527 13.6238C16.0043 13.6989 15.9294 13.7593 15.8281 13.8035C15.7313 13.8432 15.6124 13.863 15.4717 13.863C15.3044 13.863 15.1633 13.836 15.0488 13.783C14.9388 13.7255 14.8527 13.6526 14.791 13.5642C14.7339 13.4715 14.6963 13.3723 14.6787 13.2664H14.0117C14.0294 13.4872 14.0931 13.6839 14.2031 13.8562C14.3132 14.0286 14.4742 14.1633 14.6855 14.2605C14.8969 14.3533 15.1591 14.4001 15.4717 14.4001C15.7402 14.4001 15.9738 14.3581 16.1719 14.2742C16.3699 14.1858 16.5237 14.0612 16.6338 13.9021C16.7437 13.7386 16.7988 13.542 16.7988 13.3123Z" fill="white" fill-opacity="0.84"/>
<path fill-rule="evenodd" clip-rule="evenodd" d="M20 11.9998C20 16.418 16.4183 19.9998 12 19.9998C7.58172 19.9998 4 16.418 4 11.9998C4 7.58148 7.58172 3.99976 12 3.99976C16.4183 3.99976 20 7.58148 20 11.9998ZM18.7998 11.9998C18.7998 8.24422 15.7555 5.19995 12 5.19995C8.24446 5.19995 5.2002 8.24422 5.2002 11.9998C5.2002 15.7553 8.24446 18.7996 12 18.7996C15.7555 18.7996 18.7998 15.7553 18.7998 11.9998Z" fill="white" fill-opacity="0.84"/>
</svg>
