<svg width="24" height="24" viewBox="0 0 24 24" fill="none" xmlns="http://www.w3.org/2000/svg">
<path d="M12.475 9.49644L9.34253 10.3691L12.2467 4L15.1543 10.3691L12.475 9.49644Z" fill="white" fill-opacity="0.84"/>
<path d="M10.2754 11.5079V13.7171C10.277 13.7965 10.2621 13.8755 10.2313 13.9495C10.2005 14.0234 10.1544 14.0907 10.0959 14.1477C10.0374 14.2046 9.96749 14.2498 9.89036 14.2809C9.81313 14.312 9.73021 14.3283 9.64628 14.3288C9.47507 14.3286 9.31086 14.2642 9.18968 14.1495C9.06861 14.0348 9.0003 13.8793 9 13.7171V11.5079C9.00386 11.3481 9.07368 11.1962 9.19455 11.0848C9.31543 10.9734 9.47761 10.9113 9.64628 10.912C9.72889 10.9119 9.8108 10.9272 9.88712 10.9571C9.92172 10.9707 9.95481 10.9871 9.98617 11.0061C10.024 11.0291 10.0593 11.056 10.0913 11.0863C10.1498 11.1416 10.196 11.2074 10.2276 11.2797C10.2593 11.3521 10.2754 11.4296 10.2754 11.5079Z" fill="white" fill-opacity="0.84"/>
<path d="M12.8872 12.7929V17.424C12.889 17.5035 12.874 17.5824 12.8433 17.6564C12.8125 17.7303 12.7665 17.7977 12.7079 17.8546C12.6493 17.9116 12.5795 17.9569 12.5023 17.988C12.4251 18.0191 12.342 18.0353 12.2581 18.0357C12.0869 18.0355 11.9227 17.971 11.8015 17.8563C11.6804 17.7417 11.6121 17.5863 11.6118 17.424V12.7929C11.6157 12.6332 11.6855 12.4812 11.8064 12.3698C11.9272 12.2584 12.0894 12.1963 12.2581 12.197C12.3407 12.1969 12.4226 12.2123 12.4989 12.2422C12.5754 12.2721 12.6447 12.316 12.7031 12.3714C12.7616 12.4267 12.8079 12.4924 12.8394 12.5647C12.8711 12.6371 12.8872 12.7146 12.8872 12.7929Z" fill="white" fill-opacity="0.84"/>
<path d="M15.3982 13.7171V11.5079C15.3982 11.4296 15.382 11.3521 15.3504 11.2797C15.3188 11.2074 15.2725 11.1416 15.2141 11.0863C15.1556 11.0309 15.0863 10.987 15.0099 10.9571C14.9336 10.9272 14.8517 10.9119 14.769 10.912C14.6004 10.9113 14.4382 10.9734 14.3173 11.0848C14.1964 11.1962 14.1266 11.3481 14.1228 11.5079V13.7171C14.1231 13.8793 14.1914 14.0348 14.3124 14.1495C14.4336 14.2642 14.5978 14.3286 14.769 14.3288C14.853 14.3283 14.9359 14.312 15.0131 14.2809C15.0903 14.2498 15.1602 14.2046 15.2186 14.1477C15.2416 14.1254 15.2626 14.1015 15.2815 14.0763C15.3109 14.037 15.3352 13.9945 15.354 13.9495C15.3849 13.8755 15.3998 13.7965 15.3982 13.7171Z" fill="white" fill-opacity="0.84"/>
<path d="M10.2798 15.7614C10.2798 15.4269 9.99358 15.1558 9.6405 15.1558C9.28742 15.1558 9.00122 15.4269 9.00122 15.7614C9.00122 16.0958 9.28742 16.367 9.6405 16.367C9.99358 16.367 10.2798 16.0958 10.2798 15.7614Z" fill="white" fill-opacity="0.84"/>
<path d="M12.2004 18.7888C12.5534 18.7888 12.8396 19.0599 12.8396 19.3944C12.8396 19.7289 12.5534 20 12.2004 20C11.8473 20 11.5611 19.7289 11.5611 19.3944C11.5611 19.0599 11.8473 18.7888 12.2004 18.7888Z" fill="white" fill-opacity="0.84"/>
<path d="M15.4 15.7614C15.4 15.4269 15.1138 15.1558 14.7607 15.1558C14.4076 15.1558 14.1214 15.4269 14.1214 15.7614C14.1214 16.0958 14.4076 16.367 14.7607 16.367C15.1138 16.367 15.4 16.0958 15.4 15.7614Z" fill="white" fill-opacity="0.84"/>
</svg>
