<svg width="24" height="24" viewBox="0 0 24 24" fill="none" xmlns="http://www.w3.org/2000/svg">
<path d="M14.6849 5.93418C15.9062 5.33141 16.9751 5.80534 18.0603 7.43034C17.7838 6.37564 17.2417 5.468 16.5189 4.84939C15.7961 4.2308 14.9334 3.93616 14.0657 4.01158C11.9842 4.1523 10.5668 6.0361 10.1719 9.24135H8.90966L11.5872 15.1316L14.2727 9.21222H12.9734C12.958 8.50633 13.1144 7.81173 13.421 7.2245C13.7277 6.63727 14.1692 6.18639 14.6849 5.93418Z" fill="white" fill-opacity="0.84"/>
<path d="M11.9969 20C7.58666 20 4.00015 18.4499 4.00015 16.5494C3.99828 16.4206 4.01375 16.2924 4.046 16.1704L4.05275 16.1618C4.24662 15.3832 5.03647 14.6894 6.21397 14.1588C6.54866 14.0047 6.92328 13.8677 7.31816 13.7394C7.33119 13.7354 7.34469 13.7353 7.35763 13.7391C7.37066 13.7428 7.38284 13.7504 7.39316 13.7611C7.40347 13.7718 7.41181 13.7855 7.41734 13.801C7.42016 13.809 7.42231 13.8173 7.42363 13.8259C7.42484 13.8339 7.42541 13.8422 7.42522 13.8504V13.8677C7.42522 13.8896 7.42016 13.9111 7.41059 13.9293C7.40103 13.9475 7.38763 13.9617 7.37178 13.9701C6.92609 14.161 6.51106 14.4532 6.14656 14.8328C6.09819 14.8873 6.05656 14.9505 6.02272 15.0202C6.00969 15.047 5.99778 15.0748 5.98719 15.1034C5.94903 15.2065 5.92756 15.3185 5.92428 15.4325C5.92175 15.5172 5.92934 15.6016 5.9465 15.683C5.9525 15.7114 5.95962 15.7393 5.96787 15.7667C5.98306 15.8171 6.002 15.8653 6.02431 15.9108C6.04925 15.9615 6.07831 16.0088 6.11112 16.0518C6.50441 16.4867 6.96359 16.8134 7.45981 17.0115C7.50744 17.0394 7.55675 17.0623 7.60738 17.0799C10.4978 18.1414 13.5633 18.1414 16.4537 17.0799C16.5041 17.0623 16.5533 17.0394 16.6008 17.0115C17.0644 16.8213 17.4968 16.5236 17.8761 16.1332C17.9435 16.0586 17.9984 15.9672 18.0374 15.8646C18.0764 15.7621 18.0986 15.6504 18.1027 15.5365C18.1069 15.4226 18.093 15.3088 18.0617 15.202C18.0304 15.0952 17.9824 14.9976 17.9207 14.9152C17.5445 14.4913 17.1044 14.1705 16.6274 13.9728C16.6115 13.9644 16.598 13.9502 16.5885 13.932C16.5789 13.9138 16.5738 13.8923 16.5738 13.8704V13.8531C16.5735 13.8361 16.5762 13.8192 16.5817 13.8037C16.5872 13.7882 16.5956 13.7745 16.606 13.7638C16.6163 13.7531 16.6284 13.7455 16.6414 13.7417C16.6544 13.738 16.6679 13.7381 16.6809 13.7421C17.085 13.8604 17.4829 14.0119 17.8719 14.1955C19.0095 14.7266 19.7656 15.4113 19.9531 16.1731C19.9663 16.2138 19.9731 16.2574 19.9733 16.3014C19.9924 16.3818 20.0013 16.4655 19.9998 16.5494C19.9998 18.4505 16.4132 20 11.9969 20Z" fill="white" fill-opacity="0.84"/>
</svg>
