<svg width="24" height="24" viewBox="0 0 24 24" fill="none" xmlns="http://www.w3.org/2000/svg">
<path d="M9.65233 5.08055C9.64781 5.07035 9.64611 5.05902 9.64746 5.04813C9.64882 5.03725 9.65316 5.02734 9.65988 5.01979C9.66595 5.01126 9.6742 5.00511 9.68363 5.0021C9.69306 4.99908 9.70325 4.99932 9.71294 5.0028L10.892 5.42451C11.1358 5.51294 11.3524 5.68901 11.5078 5.9251L14.6516 10.7509L11.1971 9.50952L9.65233 5.08055ZM19.1406 16.4639L7.59569 12.3212C7.12934 12.152 6.69418 11.8714 6.32059 11.4992L4.41103 9.5822C4.24764 9.41706 4.12539 9.20609 4.05825 8.97342C3.99112 8.74074 3.98181 8.49575 4.03138 8.26645L4.7539 5.03001L5.28965 5.22307C5.29862 5.22666 5.3068 5.23268 5.31346 5.2406C5.32012 5.24851 5.32504 5.25806 5.32778 5.26837L5.84311 7.30045C5.92876 7.63448 6.08813 7.94335 6.30553 8.19666C6.52293 8.44998 6.79089 8.63903 7.08304 8.74521L16.8007 12.2303C17.4023 12.4456 17.9489 12.8478 18.3762 13.3897L19.8113 15.2138C19.8901 15.3174 19.9468 15.4396 19.9765 15.5698C20.0061 15.7 20.0078 15.8342 19.9813 15.961C19.9594 16.0594 19.9201 16.1505 19.8659 16.2292C19.8116 16.3078 19.7434 16.3723 19.6652 16.4191C19.587 16.4658 19.5003 16.4938 19.4102 16.5014C19.3201 16.5091 19.2287 16.4965 19.1406 16.4639Z" fill="white" fill-opacity="0.84"/>
<path d="M19.3021 19.4H5.03815C4.95785 19.4 4.88085 19.3629 4.82407 19.2968C4.76729 19.2307 4.7354 19.1411 4.7354 19.0476C4.7354 18.9541 4.76729 18.8645 4.82407 18.7984C4.88085 18.7323 4.95785 18.6952 5.03815 18.6952H19.3021C19.3824 18.6952 19.4594 18.7323 19.5162 18.7984C19.573 18.8645 19.6049 18.9541 19.6049 19.0476C19.6049 19.1411 19.573 19.2307 19.5162 19.2968C19.4594 19.3629 19.3824 19.4 19.3021 19.4Z" fill="white" fill-opacity="0.84"/>
</svg>
