<svg width="24" height="24" viewBox="0 0 24 24" fill="none" xmlns="http://www.w3.org/2000/svg">
<path d="M15.8753 13.4467L13.3146 12.2682L12.2132 11.4669C12.1858 11.3374 12.1228 11.2185 12.0314 11.1229H12.0175V9.80121C12.2722 9.41899 12.4917 9.01429 12.6731 8.59232C13.0833 8.32303 13.3424 7.8761 13.3724 7.38632C13.3945 6.75842 13.1851 6.60707 12.9979 6.60442C13.0447 6.16669 13.2733 3 10.0432 3C6.57654 3 7.06942 6.65393 7.06942 6.65393C6.88772 6.67602 6.69488 6.81085 6.72523 7.38632C6.75961 7.87476 7.01794 8.31977 7.42477 8.59232C7.6057 9.01219 7.82408 9.41493 8.0774 9.79566V11.1173C7.99174 11.211 7.93277 11.3261 7.90665 11.4505L6.84659 12.2463L4.36851 13.4358C3.88469 13.659 3.53779 14.1019 3.43773 14.6253L3 16.8473C3 16.8473 3.42121 17.9129 10.1208 17.9129C16.8203 17.9129 17.2441 16.8473 17.2441 16.8473L16.8035 14.6253C16.7005 14.1065 16.3554 13.6684 15.8753 13.4467Z" fill="white" fill-opacity="0.87"/>
<path d="M17.3204 9.49201C16.8447 9.95306 16.5996 10.5286 16.5996 11.1898C16.5996 11.2498 16.6023 11.3102 16.6076 11.3708L12.619 13.619C12.4709 13.5237 12.3136 13.4433 12.1474 13.3781C11.8605 13.2656 11.5602 13.2097 11.2498 13.2097C10.5819 13.2097 9.99565 13.4414 9.52057 13.9019C9.04488 14.363 8.7998 14.9385 8.7998 15.5997C8.7998 16.2609 9.04488 16.8364 9.52057 17.2974C9.99565 17.7579 10.5819 17.9896 11.2498 17.9896C11.5602 17.9896 11.8605 17.9337 12.1474 17.8212C12.3136 17.756 12.4709 17.6757 12.619 17.5803L16.6076 19.8286C16.6023 19.8892 16.5996 19.9495 16.5996 20.0096C16.5996 20.6708 16.8447 21.2463 17.3204 21.7073C17.7955 22.1678 18.3818 22.3995 19.0496 22.3995C19.7174 22.3995 20.3037 22.1678 20.7788 21.7073C21.2545 21.2463 21.4996 20.6708 21.4996 20.0096C21.4996 19.3484 21.2545 18.7729 20.7788 18.3118C20.3037 17.8514 19.7174 17.6196 19.0496 17.6196C18.7392 17.6196 18.4388 17.6755 18.152 17.788C17.9858 17.8532 17.8284 17.9336 17.6804 18.0289L13.6918 15.7807C13.697 15.7201 13.6997 15.6597 13.6997 15.5997C13.6997 15.5396 13.697 15.4793 13.6918 15.4187L17.6804 13.1704C17.8284 13.2658 17.9858 13.3461 18.152 13.4113C18.4388 13.5238 18.7392 13.5797 19.0496 13.5797C19.7174 13.5797 20.3037 13.348 20.7788 12.8875C21.2545 12.4265 21.4996 11.851 21.4996 11.1898C21.4996 10.5286 21.2545 9.95306 20.7788 9.49201C20.3037 9.03154 19.7174 8.7998 19.0496 8.7998C18.3818 8.7998 17.7955 9.03154 17.3204 9.49201ZM19.1647 11.2796C19.1396 11.304 19.1127 11.3198 19.0496 11.3198C18.9865 11.3198 18.9596 11.304 18.9345 11.2796C18.9102 11.256 18.8996 11.2373 18.8996 11.1898C18.8996 11.1422 18.9102 11.1235 18.9345 11.0999C18.9596 11.0756 18.9865 11.0598 19.0496 11.0598C19.1127 11.0598 19.1396 11.0756 19.1647 11.0999C19.189 11.1235 19.1996 11.1422 19.1996 11.1898C19.1996 11.2373 19.189 11.256 19.1647 11.2796ZM11.3649 15.6895C11.3397 15.7139 11.3128 15.7297 11.2498 15.7297C11.1867 15.7297 11.1598 15.7139 11.1346 15.6895C11.1103 15.6659 11.0998 15.6472 11.0998 15.5997C11.0998 15.5521 11.1103 15.5334 11.1346 15.5098C11.1598 15.4855 11.1867 15.4697 11.2498 15.4697C11.3128 15.4697 11.3397 15.4855 11.3649 15.5098C11.3892 15.5334 11.3997 15.5521 11.3997 15.5997C11.3997 15.6472 11.3892 15.6659 11.3649 15.6895ZM19.1647 20.0994C19.1396 20.1238 19.1127 20.1396 19.0496 20.1396C18.9865 20.1396 18.9596 20.1238 18.9345 20.0994C18.9102 20.0758 18.8996 20.0571 18.8996 20.0096C18.8996 19.962 18.9102 19.9433 18.9345 19.9197C18.9596 19.8954 18.9865 19.8796 19.0496 19.8796C19.1127 19.8796 19.1396 19.8954 19.1647 19.9197C19.189 19.9433 19.1996 19.962 19.1996 20.0096C19.1996 20.0571 19.189 20.0758 19.1647 20.0994Z" fill="#EBEBEB"/>
<path d="M17.3204 9.49201L17.6684 9.85104M17.3204 9.49201C16.8447 9.95306 16.5996 10.5286 16.5996 11.1898C16.5996 11.2498 16.6023 11.3102 16.6076 11.3708L12.619 13.619C12.4709 13.5237 12.3136 13.4433 12.1474 13.3781C11.8605 13.2656 11.5602 13.2097 11.2498 13.2097C10.5819 13.2097 9.99565 13.4414 9.52057 13.9019C9.04488 14.363 8.7998 14.9385 8.7998 15.5997C8.7998 16.2609 9.04488 16.8364 9.52057 17.2974C9.99565 17.7579 10.5819 17.9896 11.2498 17.9896C11.5602 17.9896 11.8605 17.9337 12.1474 17.8212C12.3136 17.756 12.4709 17.6757 12.619 17.5803L16.6076 19.8286C16.6023 19.8892 16.5996 19.9495 16.5996 20.0096C16.5996 20.6708 16.8447 21.2463 17.3204 21.7073C17.7955 22.1678 18.3818 22.3995 19.0496 22.3995C19.7174 22.3995 20.3037 22.1678 20.7788 21.7073C21.2545 21.2463 21.4996 20.6708 21.4996 20.0096C21.4996 19.3484 21.2545 18.7729 20.7788 18.3118C20.3037 17.8514 19.7174 17.6196 19.0496 17.6196C18.7392 17.6196 18.4388 17.6755 18.152 17.788C17.9858 17.8532 17.8284 17.9336 17.6804 18.0289L13.6918 15.7807C13.697 15.7201 13.6997 15.6597 13.6997 15.5997C13.6997 15.5396 13.697 15.4793 13.6918 15.4187L17.6804 13.1704C17.8284 13.2658 17.9858 13.3461 18.152 13.4113C18.4388 13.5238 18.7392 13.5797 19.0496 13.5797C19.7174 13.5797 20.3037 13.348 20.7788 12.8875C21.2545 12.4265 21.4996 11.851 21.4996 11.1898C21.4996 10.5286 21.2545 9.95306 20.7788 9.49201C20.3037 9.03154 19.7174 8.7998 19.0496 8.7998C18.3818 8.7998 17.7955 9.03154 17.3204 9.49201ZM19.1647 11.0999C19.189 11.1235 19.1996 11.1422 19.1996 11.1898C19.1996 11.2373 19.189 11.256 19.1647 11.2796C19.1396 11.304 19.1127 11.3198 19.0496 11.3198C18.9865 11.3198 18.9596 11.304 18.9345 11.2796C18.9102 11.256 18.8996 11.2373 18.8996 11.1898C18.8996 11.1422 18.9102 11.1235 18.9345 11.0999C18.9596 11.0756 18.9865 11.0598 19.0496 11.0598C19.1127 11.0598 19.1396 11.0756 19.1647 11.0999ZM19.1647 11.2796L19.5017 11.6272M19.1647 11.0999L19.5127 10.7409M19.1647 19.9197C19.1396 19.8954 19.1127 19.8796 19.0496 19.8796C18.9865 19.8796 18.9596 19.8954 18.9345 19.9197C18.9102 19.9433 18.8996 19.962 18.8996 20.0096C18.8996 20.0571 18.9102 20.0758 18.9345 20.0994C18.9596 20.1238 18.9865 20.1396 19.0496 20.1396C19.1127 20.1396 19.1396 20.1238 19.1647 20.0994C19.189 20.0758 19.1996 20.0571 19.1996 20.0096C19.1996 19.962 19.189 19.9433 19.1647 19.9197ZM19.1647 19.9197L19.5127 19.5607M11.3649 15.6895C11.3397 15.7139 11.3128 15.7297 11.2498 15.7297C11.1867 15.7297 11.1598 15.7139 11.1346 15.6895C11.1103 15.6659 11.0998 15.6472 11.0998 15.5997C11.0998 15.5521 11.1103 15.5334 11.1346 15.5098C11.1598 15.4855 11.1867 15.4697 11.2498 15.4697C11.3128 15.4697 11.3397 15.4855 11.3649 15.5098C11.3892 15.5334 11.3997 15.5521 11.3997 15.5997C11.3997 15.6472 11.3892 15.6659 11.3649 15.6895Z" stroke="#111113"/>
<path d="M12.172 15.6158C12.172 16.1128 11.7691 16.5157 11.2721 16.5157C10.775 16.5157 10.3721 16.1128 10.3721 15.6158C10.3721 15.1187 10.775 14.7158 11.2721 14.7158C11.7691 14.7158 12.172 15.1187 12.172 15.6158Z" fill="#111113"/>
<path d="M19.9914 11.2213C19.9914 11.7183 19.5879 12.1213 19.0908 12.1213C18.5938 12.1213 18.1914 11.7183 18.1914 11.2213C18.1914 10.7243 18.5943 10.3213 19.0914 10.3213C19.5884 10.3213 19.9914 10.7243 19.9914 11.2213Z" fill="#111113"/>
<path d="M20.0002 19.9996C20.0002 20.4966 19.5967 20.8996 19.0996 20.8996C18.6026 20.8996 18.2002 20.4966 18.2002 19.9996C18.2002 19.5026 18.6031 19.0996 19.1002 19.0996C19.5972 19.0996 20.0002 19.5026 20.0002 19.9996Z" fill="#111113"/>
<path d="M13.7998 15.5996L15.1498 14.2496L16.9497 13.3496L17.7372 13.7996L18.2997 17.3995H16.6122L14.2498 16.4996L13.7998 15.5996Z" fill="#111113"/>
</svg>
