<svg width="24" height="24" viewBox="0 0 24 24" fill="none" xmlns="http://www.w3.org/2000/svg">
<path d="M17.5478 16L7.19775 16C6.91442 16 6.67692 15.9 6.48525 15.7C6.29359 15.5 6.19775 15.2667 6.19775 15C6.19775 14.9167 6.21025 14.8292 6.23525 14.7375C6.26025 14.6458 6.29775 14.5583 6.34775 14.475L11.5228 6.325C11.6228 6.175 11.7478 6.0625 11.8978 5.9875C12.0478 5.9125 12.2061 5.875 12.3728 5.875C12.5394 5.875 12.6978 5.9125 12.8478 5.9875C12.9978 6.0625 13.1228 6.175 13.2228 6.325L18.3978 14.475C18.4478 14.5583 18.4853 14.6458 18.5103 14.7375C18.5353 14.8292 18.5478 14.9167 18.5478 15C18.5478 15.2667 18.4519 15.5 18.2603 15.7C18.0686 15.9 17.8311 16 17.5478 16Z" fill="white" fill-opacity="0.84"/>
</svg>
