<svg width="24" height="24" viewBox="0 0 24 24" fill="none" xmlns="http://www.w3.org/2000/svg">
<path d="M19.334 19.334V18.666C19.334 18.298 19.034 18 18.666 18H15.334V17.334H16V16.666H15.266C15.024 15.474 14.146 14.512 13 14.152V9.138C13.976 8.742 14.666 7.786 14.666 6.666C14.666 5.19399 13.472 4 12 4C10.528 4 9.334 5.19399 9.334 6.666C9.334 7.786 10.024 8.74399 11 9.138V14.152C9.854 14.512 8.976 15.474 8.734 16.666H8V17.334H8.666V18H5.334C4.966 18 4.666 18.298 4.666 18.666V19.334H4V20H20V19.334H19.334ZM12.334 9.312V14.016C12.224 14.006 12.112 14 12 14C11.888 14 11.776 14.006 11.666 14.016V9.312C11.776 9.326 11.888 9.334 12 9.334C12.114 9.334 12.224 9.326 12.334 9.312ZM10.666 6.666C10.666 5.93 11.264 5.334 12 5.334V6C11.632 6 11.334 6.298 11.334 6.666H10.666ZM12 14.666C13.242 14.666 14.286 15.516 14.582 16.666H9.41801C9.714 15.516 10.758 14.666 12 14.666ZM9.334 17.334H14.666V18H9.334V17.334Z" fill="white" fill-opacity="0.84"/>
</svg>
